<?xml version="1.0" encoding="utf-8"?>
<!-- Generator: Adobe Illustrator 25.4.1, SVG Export Plug-In . SVG Version: 6.00 Build 0)  -->
<svg version="1.1" id="katman_1" xmlns="http://www.w3.org/2000/svg" xmlns:xlink="http://www.w3.org/1999/xlink" x="0px" y="0px"
	 viewBox="0 0 209 62" style="enable-background:new 0 0 209 62;" xml:space="preserve">
<style type="text/css">
	.st0{fill:#FFFFFF;}
	.st1{fill:#300000;}
	.st2{fill-rule:evenodd;clip-rule:evenodd;fill:#300000;}
</style>
<desc>Created with Sketch.</desc>
<g id="Page-1">
	<g id="_x30_1_x5F_Home" transform="translate(-531.000000, -5404.000000)">
		<g id="Group-19" transform="translate(531.000000, 5404.000000)">
			<g id="Group-14">
				<path id="Rectangle" class="st0" d="M5.4,0h198.1c2.8,0,5,2.2,5,5V57c0,2.8-2.2,5-5,5H5.4c-2.8,0-5-2.2-5-5V5
					C0.4,2.3,2.7,0,5.4,0z"/>
				<g>
					<path class="st1" d="M69,45.3v-5.9h2.5v6.2c0,2.2,0.7,2.9,1.9,2.9c1.2,0,2-0.7,2-2.9v-6.2h2.4v5.9c0,3.7-1.5,5.3-4.4,5.3
						C70.5,50.6,69,49,69,45.3z M70.3,37.3c0-0.7,0.5-1.2,1.2-1.2s1.2,0.5,1.2,1.2s-0.5,1.2-1.2,1.2S70.3,38,70.3,37.3z M74.1,37.3
						c0-0.7,0.5-1.2,1.2-1.2c0.7,0,1.2,0.5,1.2,1.2s-0.5,1.2-1.2,1.2C74.6,38.5,74.1,38,74.1,37.3z"/>
					<path class="st1" d="M79.7,49.1l3.5-5.1h-3.1v-2h6.3v1.3l-3.5,5.1h3.7v2h-6.8V49.1z"/>
					<path class="st1" d="M87.3,46.2c0-2.7,2-4.4,4-4.4c2.4,0,3.6,1.7,3.6,4c0,0.5-0.1,0.9-0.1,1.1h-5c0.2,1.2,1.1,1.8,2.2,1.8
						c0.6,0,1.2-0.2,1.8-0.6l0.8,1.5c-0.9,0.6-2,1-3,1C89.2,50.6,87.3,49,87.3,46.2z M92.7,45.3c0-0.9-0.4-1.6-1.4-1.6
						c-0.8,0-1.5,0.5-1.6,1.6H92.7z"/>
					<path class="st1" d="M96.6,42h2l0.2,1.5h0.1c0.6-1.1,1.5-1.7,2.4-1.7c0.5,0,0.8,0.1,1,0.2l-0.4,2.2c-0.3-0.1-0.5-0.1-0.9-0.1
						c-0.6,0-1.4,0.4-1.9,1.6v4.9h-2.5V42z"/>
					<path class="st1" d="M103.2,39.5c0-0.8,0.6-1.3,1.4-1.3c0.8,0,1.4,0.5,1.4,1.3c0,0.8-0.6,1.3-1.4,1.3
						C103.8,40.8,103.2,40.2,103.2,39.5z M103.4,42h2.5v8.4h-2.5V42z"/>
					<path class="st1" d="M108.1,42h2l0.2,1.1h0.1c0.7-0.7,1.6-1.3,2.7-1.3c1.8,0,2.6,1.3,2.6,3.4v5.2h-2.5v-4.9
						c0-1.2-0.3-1.6-1-1.6c-0.6,0-1,0.3-1.6,0.8v5.7h-2.5V42z"/>
					<path class="st1" d="M117.3,46.2c0-2.8,1.7-4.4,3.5-4.4c0.9,0,1.5,0.3,2.1,0.9l-0.1-1.3v-2.9h2.5v11.9h-2l-0.2-0.8H123
						c-0.6,0.6-1.4,1-2.2,1C118.7,50.6,117.3,49,117.3,46.2z M122.8,47.8v-3.5c-0.4-0.4-0.9-0.5-1.4-0.5c-0.8,0-1.5,0.7-1.5,2.4
						c0,1.7,0.6,2.4,1.5,2.4C122,48.6,122.4,48.4,122.8,47.8z"/>
					<path class="st1" d="M127,46.2c0-2.7,2-4.4,4-4.4c2.4,0,3.6,1.7,3.6,4c0,0.5-0.1,0.9-0.1,1.1h-5c0.2,1.2,1.1,1.8,2.2,1.8
						c0.6,0,1.2-0.2,1.8-0.6l0.8,1.5c-0.9,0.6-2,1-3,1C128.9,50.6,127,49,127,46.2z M132.5,45.3c0-0.9-0.4-1.6-1.4-1.6
						c-0.8,0-1.5,0.5-1.6,1.6H132.5z"/>
					<path class="st1" d="M136.3,42h2l0.2,1.1h0.1c0.7-0.7,1.6-1.3,2.7-1.3c1.8,0,2.6,1.3,2.6,3.4v5.2h-2.5v-4.9
						c0-1.2-0.3-1.6-1-1.6c-0.6,0-1,0.3-1.6,0.8v5.7h-2.5V42z"/>
					<path class="st1" d="M149.5,37.2c0-0.8,0.6-1.3,1.4-1.3c0.8,0,1.4,0.5,1.4,1.3c0,0.8-0.6,1.3-1.4,1.3
						C150.1,38.5,149.5,38,149.5,37.2z M149.7,39.4h2.5v11.1h-2.5V39.4z"/>
					<path class="st1" d="M154.6,42h2l0.2,1.1h0.1c0.7-0.7,1.6-1.3,2.7-1.3c1.8,0,2.6,1.3,2.6,3.4v5.2h-2.5v-4.9
						c0-1.2-0.3-1.6-1-1.6c-0.6,0-1,0.3-1.6,0.8v5.7h-2.5V42z"/>
					<path class="st1" d="M163.9,46.2c0-2.8,1.7-4.4,3.5-4.4c0.9,0,1.5,0.3,2.1,0.9l-0.1-1.3v-2.9h2.5v11.9h-2l-0.2-0.8h-0.1
						c-0.6,0.6-1.4,1-2.2,1C165.2,50.6,163.9,49,163.9,46.2z M169.3,47.8v-3.5c-0.4-0.4-0.9-0.5-1.4-0.5c-0.8,0-1.5,0.7-1.5,2.4
						c0,1.7,0.6,2.4,1.5,2.4C168.5,48.6,168.9,48.4,169.3,47.8z"/>
					<path class="st1" d="M173.8,39.5c0-0.8,0.6-1.3,1.4-1.3c0.8,0,1.4,0.5,1.4,1.3c0,0.8-0.6,1.3-1.4,1.3
						C174.4,40.8,173.8,40.2,173.8,39.5z M174,42h2.5v8.4H174V42z"/>
					<path class="st1" d="M178.7,42h2l0.2,1.5h0.1c0.6-1.1,1.5-1.7,2.4-1.7c0.5,0,0.8,0.1,1,0.2l-0.4,2.2c-0.3-0.1-0.5-0.1-0.9-0.1
						c-0.6,0-1.4,0.4-1.9,1.6v4.9h-2.5V42z"/>
				</g>
				<g id="Page-1_00000059992553068511534090000005185571799580885921_">
					
						<g id="_x30_1_x5F_Home_00000013871666373640967650000009897460971190644110_" transform="translate(-305.000000, -5405.000000)">
						<g id="Group-20" transform="translate(305.000000, 5405.000000)">
							<g id="Group-15">
								<g id="Group-13" transform="translate(0.000000, 0.000000)">
									<path id="Shape" class="st2" d="M88.7,31h2.9l-5.4-16.7h-3.3L77.4,31h2.8l1.5-4.9h5.4L88.7,31z M85.3,19.7l1.4,4.4h-4.5
										l1.4-4.4c0.4-1.4,0.6-2.4,0.8-3.1h0C84.8,18.2,85.1,19.2,85.3,19.7z"/>
									<path id="Shape_00000147214893099546625800000009598678092245187980_" class="st2" d="M103.5,29.7c1.1-1.2,1.7-2.8,1.7-4.9
										c0-1.8-0.5-3.3-1.4-4.4c-1-1.1-2.1-1.7-3.6-1.7c-1.8,0-3.2,0.7-4.1,2.2h0l-0.2-1.9h-2.4c0.1,1.4,0.1,2.7,0.1,4v13h2.7v-6.3
										h0c0.7,1.1,1.8,1.7,3.4,1.7C101.3,31.3,102.5,30.7,103.5,29.7z M101.6,22c0.5,0.8,0.8,1.7,0.8,2.9c0,1.3-0.3,2.3-0.8,3.1
										c-0.6,0.8-1.3,1.2-2.4,1.2c-0.9,0-1.6-0.3-2.1-0.9c-0.5-0.6-0.8-1.3-0.8-2.2v-2c0-0.2,0-0.5,0.1-0.8
										c0.2-0.7,0.5-1.3,1.1-1.7c0.5-0.4,1.1-0.7,1.8-0.7C100.3,20.8,101,21.2,101.6,22z"/>
									<path id="Shape_00000174562219939115346770000005060101611048659641_" class="st2" d="M117.5,29.7c1.1-1.2,1.7-2.8,1.7-4.9
										c0-1.8-0.5-3.3-1.4-4.4c-1-1.1-2.1-1.7-3.6-1.7c-1.8,0-3.2,0.7-4.1,2.2h0l-0.2-1.9h-2.4c0.1,1.4,0.1,2.7,0.1,4v13h2.7v-6.3
										h0c0.7,1.1,1.8,1.7,3.4,1.7C115.2,31.3,116.5,30.7,117.5,29.7z M115.6,22c0.5,0.8,0.8,1.7,0.8,2.9c0,1.3-0.3,2.3-0.8,3.1
										c-0.6,0.8-1.3,1.2-2.4,1.2c-0.9,0-1.6-0.3-2.1-0.9c-0.5-0.6-0.8-1.3-0.8-2.2v-2c0-0.2,0-0.5,0.1-0.8
										c0.2-0.7,0.5-1.3,1.1-1.7c0.5-0.4,1.1-0.7,1.8-0.7C114.2,20.8,115,21.2,115.6,22z"/>
									<path id="Path_00000086669048449006833000000017228173091110476430_" class="st1" d="M137.2,26.3c0,1.4-0.5,2.6-1.5,3.5
										c-1.1,1-2.6,1.5-4.6,1.5c-1.8,0-3.2-0.3-4.3-1l0.6-2.2c1.2,0.7,2.5,1.1,3.9,1.1c1,0,1.8-0.2,2.4-0.7
										c0.6-0.5,0.8-1.1,0.8-1.8c0-0.7-0.2-1.2-0.7-1.7s-1.2-0.9-2.3-1.3c-2.9-1.1-4.4-2.7-4.4-4.8c0-1.4,0.5-2.5,1.5-3.4
										c1-0.9,2.4-1.3,4.1-1.3c1.5,0,2.8,0.3,3.8,0.8l-0.7,2.2c-0.9-0.5-2-0.8-3.2-0.8c-0.9,0-1.7,0.2-2.2,0.7
										c-0.4,0.4-0.7,0.9-0.7,1.5c0,0.7,0.3,1.2,0.8,1.6c0.4,0.4,1.3,0.8,2.4,1.3c1.4,0.6,2.5,1.3,3.2,2
										C136.9,24.2,137.2,25.2,137.2,26.3z"/>
									<path id="Path_00000054239403360875768200000015301884490376654212_" class="st1" d="M145.9,21h-2.9v5.8
										c0,1.5,0.5,2.2,1.6,2.2c0.5,0,0.9,0,1.2-0.1l0.1,2c-0.5,0.2-1.2,0.3-2.1,0.3c-1.1,0-1.9-0.3-2.5-1
										c-0.6-0.6-0.9-1.7-0.9-3.2V21h-1.8v-2h1.8v-2.2l2.6-0.8v3h2.9V21z"/>
									<path id="Shape_00000103964683113654024100000006753721972370190756_" class="st2" d="M157.5,29.4c1.1-1.2,1.6-2.7,1.6-4.6
										c0-1.8-0.5-3.3-1.5-4.4c-1.1-1.2-2.5-1.8-4.3-1.8c-1.8,0-3.3,0.6-4.4,1.8c-1.1,1.2-1.6,2.7-1.6,4.6c0,1.8,0.5,3.3,1.6,4.4
										c1,1.2,2.5,1.8,4.2,1.8C154.9,31.3,156.4,30.7,157.5,29.4z M155.6,22.1c0.5,0.8,0.7,1.7,0.7,2.9c0,1.1-0.2,2.1-0.7,2.9
										c-0.6,1-1.4,1.5-2.4,1.5c-1,0-1.9-0.5-2.4-1.4c-0.5-0.8-0.7-1.7-0.7-2.9c0-1.1,0.2-2.1,0.7-2.9c0.6-1,1.4-1.4,2.5-1.4
										C154.2,20.7,155,21.1,155.6,22.1z"/>
									<path id="Path_00000144296251660290811360000016697054241184777129_" class="st1" d="M168,21.3c-0.3,0-0.5-0.1-0.8-0.1
										c-0.9,0-1.7,0.4-2.2,1.1c-0.4,0.6-0.7,1.4-0.7,2.4V31h-2.7l0-8.3c0-1.4,0-2.7-0.1-3.8h2.3l0.1,2.3h0.1
										c0.3-0.8,0.7-1.4,1.3-1.9c0.6-0.4,1.2-0.6,1.9-0.6c0.2,0,0.5,0,0.7,0V21.3z"/>
									<path id="Shape_00000124156961042597839940000004848752052020568454_" class="st2" d="M179.7,25.6c0.1-0.3,0.1-0.7,0.1-1.2
										c0-1.5-0.4-2.8-1.1-3.8c-0.9-1.3-2.2-1.9-3.9-1.9c-1.8,0-3.2,0.6-4.2,1.9c-1,1.2-1.5,2.7-1.5,4.5c0,1.9,0.5,3.3,1.6,4.4
										c1.1,1.1,2.5,1.6,4.4,1.6c1.6,0,2.9-0.2,4-0.7l-0.4-1.9c-1,0.4-2.1,0.6-3.2,0.6c-1.1,0-1.9-0.3-2.6-0.8
										c-0.7-0.6-1.1-1.5-1.2-2.7H179.7z M176.7,21.6c0.4,0.6,0.5,1.3,0.5,2.1h-5.6c0.1-0.8,0.3-1.5,0.8-2.1
										c0.5-0.7,1.3-1.1,2.1-1.1C175.5,20.5,176.3,20.9,176.7,21.6z"/>
									<g id="Page-1_00000006676590939267798250000000536811525082347938_">
										
											<g id="_x30_1_x5F_Home_00000071524209709540845210000003573380328357535128_" transform="translate(-305.000000, -5405.000000)">
											<g id="Group-20_00000142856129615334403110000009652847907376957355_" transform="translate(305.000000, 5405.000000)">
												<g id="Group-15_00000145737629560950596420000013355589541468258238_">
													<g id="Group-13_00000161618977167822214070000011280513851214202781_" transform="translate(0.000000, 0.000000)">
														<path id="Path_00000039816491209799400820000011989786795496062653_" class="st1" d="M50.4,30.7
															c-0.1-6.2,5.1-9.2,5.3-9.4c-2.9-4.2-7.4-4.8-9-4.9c-3.8-0.4-7.4,2.3-9.4,2.3c-2,0-4.9-2.2-8.1-2.2
															c-4.1,0.1-8,2.4-10.1,6.1c-4.4,7.5-1.1,18.6,3.1,24.7c2.1,3,4.5,6.3,7.7,6.2c3.1-0.1,4.3-2,8.1-2c3.7,0,4.8,2,8.1,1.9
															c3.4-0.1,5.5-3,7.5-6c2.4-3.4,3.4-6.8,3.4-7C56.9,40.6,50.4,38.1,50.4,30.7z"/>
														<path id="Path_00000173863647416757967920000007319952568838225821_" class="st1" d="M44.2,12.5
															c1.7-2.1,2.8-5,2.5-7.9c-2.4,0.1-5.5,1.7-7.2,3.7c-1.5,1.8-2.9,4.8-2.6,7.6C39.6,16.1,42.5,14.6,44.2,12.5z"/>
													</g>
												</g>
											</g>
										</g>
									</g>
								</g>
							</g>
						</g>
					</g>
				</g>
			</g>
		</g>
	</g>
</g>
</svg>
