<svg xmlns="http://www.w3.org/2000/svg" width="230.423" height="124.185" viewBox="0 0 230.423 124.185">
  <g id="Group_134" data-name="Group 134" transform="translate(-221.13 -1987.63)" opacity="0.11">
    <path id="Path_202" data-name="Path 202" d="M644.795,792c-2.71,5.164-7.26,7.771-13.6,7.771a21.718,21.718,0,0,1-15.951-6.544,21.547,21.547,0,0,1,0-30.931A21.673,21.673,0,0,1,631.2,755.8c6.288,0,11.043,2.607,14.162,7.873v-4.652h7.873V788.93a20.318,20.318,0,0,1-6.289,14.98,22.775,22.775,0,0,1-32,.153,49.348,49.348,0,0,1-3.732-4.5l7.515-2.761a23.036,23.036,0,0,0,2.147,2.454,13.493,13.493,0,0,0,10.021,4.243C639.069,803.5,643.721,799.666,644.795,792Zm.562-17.587a14.445,14.445,0,0,0-4.09-7.464,13.493,13.493,0,0,0-10.021-4.243,13.814,13.814,0,0,0-10.174,4.346,15.5,15.5,0,0,0,0,21.422,13.928,13.928,0,0,0,10.174,4.346,14.146,14.146,0,0,0,10.225-4.4,13.9,13.9,0,0,0,3.885-7.209Z" transform="translate(-387.57 1231.881)" fill="#585955"/>
    <path id="Path_203" data-name="Path 203" d="M727.672,767.149a13.165,13.165,0,0,0-8.333,4.295,12.809,12.809,0,0,0-2.965,8.691v20.859H708.5V761.269h7.873v5.624c1.176-3.119,3.63-5.266,7.464-6.493Z" transform="translate(-436.347 1229.633)" fill="#585955"/>
    <path id="Path_204" data-name="Path 204" d="M762.827,777.582v.153a14.416,14.416,0,0,0,4.295,10.634,13.877,13.877,0,0,0,10.174,4.295,14.146,14.146,0,0,0,10.225-4.4c.409-.409,1.176-1.329,2.352-2.761l7.362,2.607a24.32,24.32,0,0,1-3.834,4.908,22.774,22.774,0,0,1-32.056.1,21.547,21.547,0,0,1,0-30.931A21.672,21.672,0,0,1,777.3,755.7a21.91,21.91,0,0,1,16.1,6.6c3.783,3.835,5.675,8.947,5.675,15.287Zm1.38-6.851H790.23c-1.841-5.368-6.186-8.078-12.935-8.078C770.5,762.653,766.15,765.363,764.207,770.731Z" transform="translate(-458.975 1231.93)" fill="#585955"/>
    <path id="Path_205" data-name="Path 205" d="M857.027,777.582v.153a14.416,14.416,0,0,0,4.295,10.634,13.878,13.878,0,0,0,10.174,4.295,14.146,14.146,0,0,0,10.225-4.4c.409-.409,1.176-1.329,2.352-2.761l7.362,2.607a24.324,24.324,0,0,1-3.834,4.908,22.774,22.774,0,0,1-32.056.1,21.547,21.547,0,0,1,0-30.931A21.672,21.672,0,0,1,871.5,755.7a21.91,21.91,0,0,1,16.1,6.6c3.783,3.835,5.675,8.947,5.675,15.287Zm1.38-6.851H884.43c-1.841-5.368-6.186-8.078-12.935-8.078C864.7,762.653,860.3,765.363,858.407,770.731Z" transform="translate(-505.016 1231.93)" fill="#585955"/>
    <path id="Path_206" data-name="Path 206" d="M954.973,770.119v29.653H947.1V760.047h7.873c1.329-1.431,4.09-2.147,8.231-2.147q7.516,0,12.117,4.6a15.564,15.564,0,0,1,4.7,11.248v26.023H972.2V774.107a8.906,8.906,0,0,0-2.761-6.7,8.7,8.7,0,0,0-12.372-.153A9.929,9.929,0,0,0,954.973,770.119Z" transform="translate(-552.961 1230.855)" fill="#585955"/>
    <path id="Path_207" data-name="Path 207" d="M612.7,874.4h7.873v27.352q4.678-7.822,14.111-7.822a21.788,21.788,0,0,1,16,6.493,21.665,21.665,0,0,1,0,30.931,21.751,21.751,0,0,1-16,6.544c-6.34,0-11.043-2.607-14.111-7.873v6.8H612.7Zm7.873,38.242v6.7a14.286,14.286,0,0,0,24.234,7.26,15.309,15.309,0,0,0,0-21.37,13.785,13.785,0,0,0-10.123-4.346,14.113,14.113,0,0,0-10.276,4.448A13.572,13.572,0,0,0,620.573,912.642Z" transform="translate(-389.526 1173.917)" fill="#585955"/>
    <path id="Path_208" data-name="Path 208" d="M731.672,924.049a13.165,13.165,0,0,0-8.333,4.295,12.809,12.809,0,0,0-2.965,8.691v20.859H712.5V918.169h7.924v5.624c1.176-3.119,3.63-5.266,7.464-6.493Z" transform="translate(-438.302 1152.949)" fill="#585955"/>
    <path id="Path_209" data-name="Path 209" d="M783.1,912.6a21.706,21.706,0,0,1,16,6.493,21.335,21.335,0,0,1,6.493,15.491,21.105,21.105,0,0,1-6.493,15.44,22.775,22.775,0,0,1-31.954,0,21.547,21.547,0,0,1,0-30.931A21.873,21.873,0,0,1,783.1,912.6Zm-10.174,11.3a14.731,14.731,0,0,0-4.295,10.736,14.416,14.416,0,0,0,4.295,10.634,14.138,14.138,0,0,0,20.3,0,15.309,15.309,0,0,0,0-21.371,14.023,14.023,0,0,0-20.3,0Z" transform="translate(-461.811 1155.247)" fill="#585955"/>
    <path id="Path_210" data-name="Path 210" d="M906.133,919l-13.5,39.725h-5.521l-6.7-18.814-6.7,18.814h-5.624L854.7,919h8.487l7.976,24.694,6.7-18.508h5.317l6.646,18.508L897.748,919Z" transform="translate(-507.802 1152.119)" fill="#585955"/>
    <path id="Path_211" data-name="Path 211" d="M971.573,927.019v29.653H963.7V916.947h7.873c1.329-1.432,4.09-2.147,8.231-2.147q7.516,0,12.117,4.6a15.565,15.565,0,0,1,4.7,11.248v26.023H988.8V931.007a8.907,8.907,0,0,0-2.761-6.7,8.7,8.7,0,0,0-12.372-.153A8.32,8.32,0,0,0,971.573,927.019Z" transform="translate(-561.075 1154.171)" fill="#585955"/>
    <path id="Path_212" data-name="Path 212" d="M866.767,876.617H673.359a2.659,2.659,0,1,1,0-5.317H866.767a2.659,2.659,0,1,1,0,5.317Z" transform="translate(-417.873 1175.432)" fill="#585955"/>
  </g>
</svg>
