<svg xmlns="http://www.w3.org/2000/svg" width="328.103" height="49.06" viewBox="0 0 328.103 49.06">
  <g id="Group_464" data-name="Group 464" transform="translate(-173.897 -3903)">
    <text id="GREEN_BROWN_BLOG" data-name="GREEN BROWN BLOG" transform="translate(229 3931)" fill="#fff" font-size="27" font-family="Poppins-Bold, Poppins" font-weight="700"><tspan x="0" y="0">GREEN BROWN </tspan><tspan y="0" font-family="Poppins-Regular, Poppins" font-weight="400">BLOG</tspan></text>
    <g id="Group_219" data-name="Group 219" transform="translate(-20.922 91.99)">
      <path id="Path_3059" data-name="Path 3059" d="M44.306,169.191V151.409c0-.117.009-.234.009-.351s0-.234-.009-.351v-.1a11.857,11.857,0,1,0-16.663,11.291c.234.108.473.2.712.29a2.263,2.263,0,0,0,.44.047,2.138,2.138,0,0,0,.993-4.032c-.126-.047-.253-.1-.375-.155a7.618,7.618,0,1,1,10.654-7.334v.7a7.64,7.64,0,0,1-4.426,6.57c-.192.089-.389.169-.59.244a2.158,2.158,0,0,0,1.11,4.009,2.061,2.061,0,0,0,.342-.028c.309-.112.618-.239.918-.379a11.838,11.838,0,0,0,2.651-1.686v10.79a7.417,7.417,0,0,1-7.395,7.221,7.589,7.589,0,0,1-7.573-6.814c0-.052.009-.1.009-.155a2.137,2.137,0,0,0-.066-.52v0a2.145,2.145,0,0,0-4.21.281h0a2.063,2.063,0,0,0-.014.244,2.12,2.12,0,0,0,.052.459,11.862,11.862,0,0,0,11.8,10.752,11.371,11.371,0,0,0,8.275-3.545,12.1,12.1,0,0,0,3.32-7.563,2.8,2.8,0,0,0,.033-.393V170.4c0-.131,0-.258.009-.379A6.24,6.24,0,0,0,44.306,169.191Z" transform="translate(174.22 3677.673)" fill="#fff"/>
      <path id="Path_3060" data-name="Path 3060" d="M216.215,376.275a3.6,3.6,0,0,1,.45,5.61c-1.33,1.33-2.182,1.316-3.5,0a3.555,3.555,0,0,1-.852-4.009c.67-1.5,2.332-2.693,3.906-1.6Z" transform="translate(-8.231 3452.105)" fill="#898f65"/>
      <path id="Path_3061" data-name="Path 3061" d="M230.264,631.633l1.4,6.411a2.181,2.181,0,0,1-4.262.927,2.211,2.211,0,0,1,0-.927l1.4-6.411a.755.755,0,0,1,1.47,0Z" transform="translate(-22.847 3208.857)" fill="#653a2b"/>
      <path id="Path_3062" data-name="Path 3062" d="M559.753,20.613a11.8,11.8,0,0,0-7.512,2.693V16.117a2.117,2.117,0,0,0-4.234,0V30.9a11.632,11.632,0,0,0-.108,1.574,11.858,11.858,0,1,0,11.853-11.858Zm0,19.477a7.619,7.619,0,1,1,7.62-7.619A7.629,7.629,0,0,1,559.753,40.09Z" transform="translate(-328.386 3797.01)" fill="#fff"/>
    </g>
    <path id="Path_3063" data-name="Path 3063" d="M17.247,0H85.628" transform="translate(415.5 3936.5)" fill="none" stroke="#fff" stroke-width="2"/>
  </g>
</svg>
