<svg xmlns="http://www.w3.org/2000/svg" width="36.648" height="21.794" viewBox="0 0 36.648 21.794">
  <g id="download" transform="translate(0.5 0.5)">
    <g id="Group_278" data-name="Group 278" transform="translate(0 0)">
      <g id="Group_247" data-name="Group 247" transform="translate(5.942 16.339)">
        <path id="Path_3066" data-name="Path 3066" d="M106.67,443.4a.743.743,0,0,1,.742-.743h2.971a.743.743,0,1,1,0,1.486h-2.971A.743.743,0,0,1,106.67,443.4Z" transform="translate(-106.67 -442.66)" fill="#fff"/>
        <g id="Group_246" data-name="Group 246">
          <path id="Path_3067" data-name="Path 3067" d="M106.67,443.4a.743.743,0,0,1,.742-.743h2.971a.743.743,0,1,1,0,1.486h-2.971A.743.743,0,0,1,106.67,443.4Z" transform="translate(-106.67 -442.66)" fill="#fff" stroke="rgba(0,0,0,0)" stroke-width="1"/>
        </g>
      </g>
      <g id="Group_249" data-name="Group 249" transform="translate(5.942 16.339)">
        <path id="Path_3068" data-name="Path 3068" d="M106.67,443.4a.743.743,0,0,1,.742-.743h2.971a.743.743,0,1,1,0,1.486h-2.971A.743.743,0,0,1,106.67,443.4Z" transform="translate(-106.67 -442.66)" fill="#fff"/>
        <g id="Group_248" data-name="Group 248">
          <path id="Path_3069" data-name="Path 3069" d="M106.67,443.4a.743.743,0,0,1,.742-.743h2.971a.743.743,0,1,1,0,1.486h-2.971A.743.743,0,0,1,106.67,443.4Z" transform="translate(-106.67 -442.66)" fill="#fff" stroke="rgba(0,0,0,0)" stroke-width="1"/>
        </g>
      </g>
      <g id="Group_251" data-name="Group 251" transform="translate(20.051 4.456)">
        <path id="Path_3070" data-name="Path 3070" d="M371.125,241.956a.743.743,0,0,1,.742-.743h1.24q.9-4.8,1-5.335a5.2,5.2,0,0,0-5.212-5.062H364.02l-2.363,10.4h4.269a.743.743,0,0,1,0,1.486h-5.2a.743.743,0,0,1-.725-.906l2.7-11.883a.742.742,0,0,1,.725-.579H368.9a6.692,6.692,0,0,1,6.684,6.684c-.113.608-1.015,5.47-1.127,6.078a.741.741,0,0,1-.729.606h-1.857A.743.743,0,0,1,371.125,241.956Z" transform="translate(-359.984 -229.33)" fill="#fff"/>
        <g id="Group_250" data-name="Group 250">
          <path id="Path_3071" data-name="Path 3071" d="M371.125,241.956a.743.743,0,0,1,.742-.743h1.24q.9-4.8,1-5.335a5.2,5.2,0,0,0-5.212-5.062H364.02l-2.363,10.4h4.269a.743.743,0,0,1,0,1.486h-5.2a.743.743,0,0,1-.725-.906l2.7-11.883a.742.742,0,0,1,.725-.579H368.9a6.692,6.692,0,0,1,6.684,6.684c-.113.608-1.015,5.47-1.127,6.078a.741.741,0,0,1-.729.606h-1.857A.743.743,0,0,1,371.125,241.956Z" transform="translate(-359.984 -229.33)" fill="#fff" stroke="rgba(0,0,0,0)" stroke-width="1"/>
        </g>
      </g>
      <g id="Group_253" data-name="Group 253" transform="translate(20.051 4.456)">
        <path id="Path_3072" data-name="Path 3072" d="M371.125,241.956a.743.743,0,0,1,.742-.743h1.24q.9-4.8,1-5.335a5.2,5.2,0,0,0-5.212-5.062H364.02l-2.363,10.4h4.269a.743.743,0,0,1,0,1.486h-5.2a.743.743,0,0,1-.725-.906l2.7-11.883a.742.742,0,0,1,.725-.579H368.9a6.692,6.692,0,0,1,6.684,6.684c-.113.608-1.015,5.47-1.127,6.078a.741.741,0,0,1-.729.606h-1.857A.743.743,0,0,1,371.125,241.956Z" transform="translate(-359.984 -229.33)" fill="#fff"/>
        <g id="Group_252" data-name="Group 252">
          <path id="Path_3073" data-name="Path 3073" d="M371.125,241.956a.743.743,0,0,1,.742-.743h1.24q.9-4.8,1-5.335a5.2,5.2,0,0,0-5.212-5.062H364.02l-2.363,10.4h4.269a.743.743,0,0,1,0,1.486h-5.2a.743.743,0,0,1-.725-.906l2.7-11.883a.742.742,0,0,1,.725-.579H368.9a6.692,6.692,0,0,1,6.684,6.684c-.113.608-1.015,5.47-1.127,6.078a.741.741,0,0,1-.729.606h-1.857A.743.743,0,0,1,371.125,241.956Z" transform="translate(-359.984 -229.33)" fill="#fff" stroke="rgba(0,0,0,0)" stroke-width="1"/>
        </g>
      </g>
      <g id="Group_255" data-name="Group 255" transform="translate(25.251 13.368)">
        <path id="Path_3074" data-name="Path 3074" d="M457.044,389.33a3.713,3.713,0,1,1-3.714,3.714A3.718,3.718,0,0,1,457.044,389.33Zm0,5.942a2.228,2.228,0,1,0-2.228-2.228A2.231,2.231,0,0,0,457.044,395.272Z" transform="translate(-453.33 -389.33)" fill="#fff"/>
        <g id="Group_254" data-name="Group 254">
          <path id="Path_3075" data-name="Path 3075" d="M457.044,389.33a3.713,3.713,0,1,1-3.714,3.714A3.718,3.718,0,0,1,457.044,389.33Zm0,5.942a2.228,2.228,0,1,0-2.228-2.228A2.231,2.231,0,0,0,457.044,395.272Z" transform="translate(-453.33 -389.33)" fill="#fff" stroke="rgba(0,0,0,0)" stroke-width="1"/>
        </g>
      </g>
      <g id="Group_257" data-name="Group 257" transform="translate(25.251 13.368)">
        <path id="Path_3076" data-name="Path 3076" d="M457.044,389.33a3.713,3.713,0,1,1-3.714,3.714A3.718,3.718,0,0,1,457.044,389.33Zm0,5.942a2.228,2.228,0,1,0-2.228-2.228A2.231,2.231,0,0,0,457.044,395.272Z" transform="translate(-453.33 -389.33)" fill="#fff"/>
        <g id="Group_256" data-name="Group 256">
          <path id="Path_3077" data-name="Path 3077" d="M457.044,389.33a3.713,3.713,0,1,1-3.714,3.714A3.718,3.718,0,0,1,457.044,389.33Zm0,5.942a2.228,2.228,0,1,0-2.228-2.228A2.231,2.231,0,0,0,457.044,395.272Z" transform="translate(-453.33 -389.33)" fill="#fff" stroke="rgba(0,0,0,0)" stroke-width="1"/>
        </g>
      </g>
      <g id="Group_259" data-name="Group 259" transform="translate(8.912 13.368)">
        <path id="Path_3078" data-name="Path 3078" d="M163.714,389.33A3.713,3.713,0,1,1,160,393.044,3.717,3.717,0,0,1,163.714,389.33Zm0,5.942a2.228,2.228,0,1,0-2.228-2.228A2.231,2.231,0,0,0,163.714,395.272Z" transform="translate(-160 -389.33)" fill="#fff"/>
        <g id="Group_258" data-name="Group 258">
          <path id="Path_3079" data-name="Path 3079" d="M163.714,389.33A3.713,3.713,0,1,1,160,393.044,3.717,3.717,0,0,1,163.714,389.33Zm0,5.942a2.228,2.228,0,1,0-2.228-2.228A2.231,2.231,0,0,0,163.714,395.272Z" transform="translate(-160 -389.33)" fill="#fff" stroke="rgba(0,0,0,0)" stroke-width="1"/>
        </g>
      </g>
      <g id="Group_261" data-name="Group 261" transform="translate(8.912 13.368)">
        <path id="Path_3080" data-name="Path 3080" d="M163.714,389.33A3.713,3.713,0,1,1,160,393.044,3.717,3.717,0,0,1,163.714,389.33Zm0,5.942a2.228,2.228,0,1,0-2.228-2.228A2.231,2.231,0,0,0,163.714,395.272Z" transform="translate(-160 -389.33)" fill="#fff"/>
        <g id="Group_260" data-name="Group 260">
          <path id="Path_3081" data-name="Path 3081" d="M163.714,389.33A3.713,3.713,0,1,1,160,393.044,3.717,3.717,0,0,1,163.714,389.33Zm0,5.942a2.228,2.228,0,1,0-2.228-2.228A2.231,2.231,0,0,0,163.714,395.272Z" transform="translate(-160 -389.33)" fill="#fff" stroke="rgba(0,0,0,0)" stroke-width="1"/>
        </g>
      </g>
      <g id="Group_263" data-name="Group 263" transform="translate(2.971 2.971)">
        <path id="Path_3082" data-name="Path 3082" d="M53.33,203.413a.743.743,0,0,1,.743-.742h5.941a.742.742,0,1,1,0,1.485H54.073A.743.743,0,0,1,53.33,203.413Z" transform="translate(-53.33 -202.67)" fill="#fff"/>
        <g id="Group_262" data-name="Group 262">
          <path id="Path_3083" data-name="Path 3083" d="M53.33,203.413a.743.743,0,0,1,.743-.742h5.941a.742.742,0,1,1,0,1.485H54.073A.743.743,0,0,1,53.33,203.413Z" transform="translate(-53.33 -202.67)" fill="#fff" stroke="rgba(0,0,0,0)" stroke-width="1"/>
        </g>
      </g>
      <g id="Group_265" data-name="Group 265" transform="translate(2.971 2.971)">
        <path id="Path_3084" data-name="Path 3084" d="M53.33,203.413a.743.743,0,0,1,.743-.742h5.941a.742.742,0,1,1,0,1.485H54.073A.743.743,0,0,1,53.33,203.413Z" transform="translate(-53.33 -202.67)" fill="#fff"/>
        <g id="Group_264" data-name="Group 264">
          <path id="Path_3085" data-name="Path 3085" d="M53.33,203.413a.743.743,0,0,1,.743-.742h5.941a.742.742,0,1,1,0,1.485H54.073A.743.743,0,0,1,53.33,203.413Z" transform="translate(-53.33 -202.67)" fill="#fff" stroke="rgba(0,0,0,0)" stroke-width="1"/>
        </g>
      </g>
      <g id="Group_267" data-name="Group 267" transform="translate(1.486 7.427)">
        <path id="Path_3086" data-name="Path 3086" d="M26.67,283.412a.743.743,0,0,1,.742-.742h7.427a.742.742,0,1,1,0,1.485H27.412A.743.743,0,0,1,26.67,283.412Z" transform="translate(-26.67 -282.67)" fill="#fff"/>
        <g id="Group_266" data-name="Group 266">
          <path id="Path_3087" data-name="Path 3087" d="M26.67,283.412a.743.743,0,0,1,.742-.742h7.427a.742.742,0,1,1,0,1.485H27.412A.743.743,0,0,1,26.67,283.412Z" transform="translate(-26.67 -282.67)" fill="#fff" stroke="rgba(0,0,0,0)" stroke-width="1"/>
        </g>
      </g>
      <g id="Group_269" data-name="Group 269" transform="translate(1.486 7.427)">
        <path id="Path_3088" data-name="Path 3088" d="M26.67,283.412a.743.743,0,0,1,.742-.742h7.427a.742.742,0,1,1,0,1.485H27.412A.743.743,0,0,1,26.67,283.412Z" transform="translate(-26.67 -282.67)" fill="#fff"/>
        <g id="Group_268" data-name="Group 268">
          <path id="Path_3089" data-name="Path 3089" d="M26.67,283.412a.743.743,0,0,1,.742-.742h7.427a.742.742,0,1,1,0,1.485H27.412A.743.743,0,0,1,26.67,283.412Z" transform="translate(-26.67 -282.67)" fill="#fff" stroke="rgba(0,0,0,0)" stroke-width="1"/>
        </g>
      </g>
      <g id="Group_271" data-name="Group 271" transform="translate(0 11.883)">
        <path id="Path_3090" data-name="Path 3090" d="M0,363.4a.743.743,0,0,1,.742-.743H9.655a.743.743,0,1,1,0,1.486H.742A.743.743,0,0,1,0,363.4Z" transform="translate(0 -362.66)" fill="#fff"/>
        <g id="Group_270" data-name="Group 270">
          <path id="Path_3091" data-name="Path 3091" d="M0,363.4a.743.743,0,0,1,.742-.743H9.655a.743.743,0,1,1,0,1.486H.742A.743.743,0,0,1,0,363.4Z" transform="translate(0 -362.66)" fill="#fff" stroke="rgba(0,0,0,0)" stroke-width="1"/>
        </g>
      </g>
      <g id="Group_273" data-name="Group 273" transform="translate(0 11.883)">
        <path id="Path_3092" data-name="Path 3092" d="M0,363.4a.743.743,0,0,1,.742-.743H9.655a.743.743,0,1,1,0,1.486H.742A.743.743,0,0,1,0,363.4Z" transform="translate(0 -362.66)" fill="#fff"/>
        <g id="Group_272" data-name="Group 272">
          <path id="Path_3093" data-name="Path 3093" d="M0,363.4a.743.743,0,0,1,.742-.743H9.655a.743.743,0,1,1,0,1.486H.742A.743.743,0,0,1,0,363.4Z" transform="translate(0 -362.66)" fill="#fff" stroke="rgba(0,0,0,0)" stroke-width="1"/>
        </g>
      </g>
      <g id="Group_275" data-name="Group 275" transform="translate(5.942 0)">
        <path id="Path_3094" data-name="Path 3094" d="M115.582,166.412a.743.743,0,0,1,.742-.743h4.606l3.375-14.853H107.412a.743.743,0,0,1,0-1.486h17.824a.743.743,0,0,1,.725.906c-.371,1.634-3.342,14.7-3.713,16.339a.743.743,0,0,1-.725.579h-5.2A.743.743,0,0,1,115.582,166.412Z" transform="translate(-106.67 -149.33)" fill="#fff"/>
        <g id="Group_274" data-name="Group 274">
          <path id="Path_3095" data-name="Path 3095" d="M115.582,166.412a.743.743,0,0,1,.742-.743h4.606l3.375-14.853H107.412a.743.743,0,0,1,0-1.486h17.824a.743.743,0,0,1,.725.906c-.371,1.634-3.342,14.7-3.713,16.339a.743.743,0,0,1-.725.579h-5.2A.743.743,0,0,1,115.582,166.412Z" transform="translate(-106.67 -149.33)" fill="#fff" stroke="rgba(0,0,0,0)" stroke-width="1"/>
        </g>
      </g>
      <g id="Group_277" data-name="Group 277" transform="translate(5.942 0)">
        <path id="Path_3096" data-name="Path 3096" d="M115.582,166.412a.743.743,0,0,1,.742-.743h4.606l3.375-14.853H107.412a.743.743,0,0,1,0-1.486h17.824a.743.743,0,0,1,.725.906c-.371,1.634-3.342,14.7-3.713,16.339a.743.743,0,0,1-.725.579h-5.2A.743.743,0,0,1,115.582,166.412Z" transform="translate(-106.67 -149.33)" fill="#fff"/>
        <g id="Group_276" data-name="Group 276">
          <path id="Path_3097" data-name="Path 3097" d="M115.582,166.412a.743.743,0,0,1,.742-.743h4.606l3.375-14.853H107.412a.743.743,0,0,1,0-1.486h17.824a.743.743,0,0,1,.725.906c-.371,1.634-3.342,14.7-3.713,16.339a.743.743,0,0,1-.725.579h-5.2A.743.743,0,0,1,115.582,166.412Z" transform="translate(-106.67 -149.33)" fill="#fff" stroke="rgba(0,0,0,0)" stroke-width="1"/>
        </g>
      </g>
    </g>
  </g>
</svg>
