<svg xmlns="http://www.w3.org/2000/svg" width="234.355" height="49.06" viewBox="0 0 234.355 49.06">
  <g id="Group_467" data-name="Group 467" transform="translate(-173.897 -3903)">
    <path id="Path_3223" data-name="Path 3223" d="M10.584-9.747,18.279,0H12.69L6.21-8.559V0H1.593V-19.089H6.21v8.4l6.534-8.4h5.535ZM32.049-3.483H24.894L23.706,0h-4.86l6.993-18.954h5.319L38.151,0H33.237Zm-1.188-3.51-2.376-7.02-2.4,7.02Zm22.788-12.1v3.672H48.465V0H43.821V-15.417h-5.13v-3.672Zm6.561,3.672v4h6.453v3.483H60.21V-3.7h7.263V0H55.593V-19.089h11.88v3.672Zm18.819-3.861a9.534,9.534,0,0,1,5.913,1.755,7.477,7.477,0,0,1,2.889,4.752H82.944A3.768,3.768,0,0,0,81.459-14.4a4.539,4.539,0,0,0-2.4-.608,4.491,4.491,0,0,0-3.51,1.471,5.736,5.736,0,0,0-1.323,3.983,5.83,5.83,0,0,0,1.391,4.185,5.207,5.207,0,0,0,3.955,1.458,4.777,4.777,0,0,0,2.889-.9A4.821,4.821,0,0,0,84.213-7.4H78.381v-3.321h9.693v4.563a9.309,9.309,0,0,1-1.728,3.105A8.9,8.9,0,0,1,83.309-.729a9.619,9.619,0,0,1-4.226.891,10.039,10.039,0,0,1-5.049-1.229A8.416,8.416,0,0,1,70.7-4.509a10.609,10.609,0,0,1-1.174-5.049A10.609,10.609,0,0,1,70.7-14.607a8.44,8.44,0,0,1,3.321-3.442A9.908,9.908,0,0,1,79.029-19.278Zm20.709-.108a9.712,9.712,0,0,1,4.9,1.255,9.147,9.147,0,0,1,3.47,3.483,9.991,9.991,0,0,1,1.269,5.036,9.982,9.982,0,0,1-1.283,5.049,9.217,9.217,0,0,1-3.483,3.5A9.66,9.66,0,0,1,99.738.189a9.66,9.66,0,0,1-4.873-1.256,9.217,9.217,0,0,1-3.483-3.5A9.982,9.982,0,0,1,90.1-9.612a9.908,9.908,0,0,1,1.283-5.036,9.244,9.244,0,0,1,3.483-3.483A9.66,9.66,0,0,1,99.738-19.386Zm0,4.293a4.629,4.629,0,0,0-3.6,1.472A5.74,5.74,0,0,0,94.8-9.612a5.75,5.75,0,0,0,1.337,4,4.608,4.608,0,0,0,3.6,1.485,4.618,4.618,0,0,0,3.591-1.485,5.714,5.714,0,0,0,1.35-4,5.75,5.75,0,0,0-1.337-4A4.608,4.608,0,0,0,99.738-15.093ZM121.77,0l-4.131-7.209h-1.053V0h-4.617V-19.089h7.884a8.511,8.511,0,0,1,3.834.783,5.407,5.407,0,0,1,2.349,2.146,6.149,6.149,0,0,1,.783,3.118A5.543,5.543,0,0,1,125.672-9.5a5.866,5.866,0,0,1-3.335,2L126.873,0Zm-5.184-10.368h2.862a2.883,2.883,0,0,0,2.025-.608,2.345,2.345,0,0,0,.648-1.8,2.38,2.38,0,0,0-.661-1.782,2.772,2.772,0,0,0-2.012-.648h-2.862Zm17.172-8.721V0h-4.617V-19.089Zm-4.266-3.645a1.907,1.907,0,0,1,.567-1.4,1.875,1.875,0,0,1,1.377-.567,1.862,1.862,0,0,1,1.391.567,1.931,1.931,0,0,1,.553,1.4,1.853,1.853,0,0,1-.553,1.364,1.886,1.886,0,0,1-1.391.553,1.9,1.9,0,0,1-1.377-.553A1.831,1.831,0,0,1,129.492-22.734Zm12.069,19.2h6.156V0H136.944V-19.089h4.617Zm12.906-11.88v4h6.453v3.483h-6.453V-3.7h7.263V0H149.85V-19.089h11.88v3.672ZM174.15,0l-4.131-7.209h-1.053V0h-4.617V-19.089h7.884a8.511,8.511,0,0,1,3.834.783,5.407,5.407,0,0,1,2.349,2.146,6.149,6.149,0,0,1,.783,3.118A5.543,5.543,0,0,1,178.051-9.5a5.866,5.866,0,0,1-3.335,2L179.253,0Zm-5.184-10.368h2.862a2.883,2.883,0,0,0,2.025-.608,2.345,2.345,0,0,0,.648-1.8,2.38,2.38,0,0,0-.661-1.782,2.772,2.772,0,0,0-2.011-.648h-2.862Z" transform="translate(229 3931)" fill="#45726e"/>
    <g id="Group_219" data-name="Group 219" transform="translate(-20.922 91.99)">
      <path id="Path_3059" data-name="Path 3059" d="M44.306,169.191V151.409c0-.117.009-.234.009-.351s0-.234-.009-.351v-.1a11.857,11.857,0,1,0-16.663,11.291c.234.108.473.2.712.29a2.263,2.263,0,0,0,.44.047,2.138,2.138,0,0,0,.993-4.032c-.126-.047-.253-.1-.375-.155a7.618,7.618,0,1,1,10.654-7.334v.7a7.64,7.64,0,0,1-4.426,6.57c-.192.089-.389.169-.59.244a2.158,2.158,0,0,0,1.11,4.009,2.061,2.061,0,0,0,.342-.028c.309-.112.618-.239.918-.379a11.838,11.838,0,0,0,2.651-1.686v10.79a7.417,7.417,0,0,1-7.395,7.221,7.589,7.589,0,0,1-7.573-6.814c0-.052.009-.1.009-.155a2.137,2.137,0,0,0-.066-.52v0a2.145,2.145,0,0,0-4.21.281h0a2.063,2.063,0,0,0-.014.244,2.12,2.12,0,0,0,.052.459,11.862,11.862,0,0,0,11.8,10.752,11.371,11.371,0,0,0,8.275-3.545,12.1,12.1,0,0,0,3.32-7.563,2.8,2.8,0,0,0,.033-.393V170.4c0-.131,0-.258.009-.379A6.24,6.24,0,0,0,44.306,169.191Z" transform="translate(174.22 3677.673)" fill="#585955"/>
      <path id="Path_3060" data-name="Path 3060" d="M216.215,376.275a3.6,3.6,0,0,1,.45,5.61c-1.33,1.33-2.182,1.316-3.5,0a3.555,3.555,0,0,1-.852-4.009c.67-1.5,2.332-2.693,3.906-1.6Z" transform="translate(-8.231 3452.105)" fill="#898f65"/>
      <path id="Path_3061" data-name="Path 3061" d="M230.264,631.633l1.4,6.411a2.181,2.181,0,0,1-4.262.927,2.211,2.211,0,0,1,0-.927l1.4-6.411a.755.755,0,0,1,1.47,0Z" transform="translate(-22.847 3208.857)" fill="#653a2b"/>
      <path id="Path_3062" data-name="Path 3062" d="M559.753,20.613a11.8,11.8,0,0,0-7.512,2.693V16.117a2.117,2.117,0,0,0-4.234,0V30.9a11.632,11.632,0,0,0-.108,1.574,11.858,11.858,0,1,0,11.853-11.858Zm0,19.477a7.619,7.619,0,1,1,7.62-7.619A7.629,7.629,0,0,1,559.753,40.09Z" transform="translate(-328.386 3797.01)" fill="#585955"/>
    </g>
  </g>
</svg>
