<svg xmlns="http://www.w3.org/2000/svg" width="28.681" height="35.394" viewBox="0 0 28.681 35.394">
  <g id="daimateze" transform="translate(0)">
    <path id="Path_3098" data-name="Path 3098" d="M28.092,34.216h-.883A2.348,2.348,0,0,0,27.62,32.8V24.558a2.835,2.835,0,0,0-.412-1.413h.883a.589.589,0,0,0,0-1.178H20.612a4.729,4.729,0,0,1,2.12-3.592l1-.648a5.963,5.963,0,0,0,2.65-4.947V9.423a.59.59,0,0,0-.589-.589h-10.6V5.359H27.8a.59.59,0,0,0,.589-.589V.589A.59.59,0,0,0,27.8,0H23.91a.59.59,0,0,0-.589.589V4.24H14.605a.59.59,0,0,0-.589.589v4H2.65a.59.59,0,0,0-.589.589V12.78a5.963,5.963,0,0,0,2.65,4.947l1,.648a4.729,4.729,0,0,1,2.12,3.592H.589a.589.589,0,0,0,0,1.178h.824A2.348,2.348,0,0,0,1,24.558V32.8a2.835,2.835,0,0,0,.412,1.413H.589A.59.59,0,0,0,0,34.805a.556.556,0,0,0,.589.589h27.5a.589.589,0,0,0,0-1.178ZM24.5,1.119h2.768V4.24H24.5ZM6.36,17.491l-1-.648a4.822,4.822,0,0,1-2.179-4V10.012H25.324v2.827a4.745,4.745,0,0,1-2.179,4l-1,.648a5.978,5.978,0,0,0-2.65,4.417H9.011A5.712,5.712,0,0,0,6.36,17.491ZM3.534,34.216A1.433,1.433,0,0,1,2.12,32.8V24.5a1.313,1.313,0,0,1,1.413-1.355H25.088A1.433,1.433,0,0,1,26.5,24.558V32.8a1.433,1.433,0,0,1-1.413,1.413Z" transform="translate(0)" fill="#fff"/>
    <path id="Path_3099" data-name="Path 3099" d="M22.943,34.672a1.943,1.943,0,1,0,1.943,1.943A1.961,1.961,0,0,0,22.943,34.672Zm0,2.827a.824.824,0,1,1,.824-.824A.805.805,0,0,1,22.943,37.5ZM32.72,20.243a.278.278,0,0,0,.294-.294V18.594a.294.294,0,0,0-.589,0v1.355A.278.278,0,0,0,32.72,20.243Zm-5.771,8.893h0A.323.323,0,0,0,27.3,28.9l.236-1.119a4.364,4.364,0,0,1,1.708-2.65l1.708-1.237a4.642,4.642,0,0,0,1.826-2.65.279.279,0,1,0-.53-.177,4.021,4.021,0,0,1-1.649,2.3L28.892,24.6a4.831,4.831,0,0,0-1.885,3l-.236,1.119A.327.327,0,0,0,26.948,29.136Z" transform="translate(-8.633 -7.523)" fill="#fff"/>
  </g>
</svg>
