<svg xmlns="http://www.w3.org/2000/svg" width="72.244" height="26.151" viewBox="0 0 72.244 26.151">
  <g id="discount-25-orange" transform="translate(-5.352 -4.956)" style="isolation: isolate">
    <g id="Layer_1" data-name="Layer 1" transform="translate(0.48 0.05)">
      <path id="Path_3284" data-name="Path 3284" d="M67.817,30.646H7.033A2.042,2.042,0,0,1,4.9,28.762V6.395A2.042,2.042,0,0,1,7.033,4.511H67.817A2.043,2.043,0,0,1,69.94,6.395V28.762a2.043,2.043,0,0,1-2.123,1.884Z" transform="translate(7.176 0.403)" fill="#45726e"/>
      <path id="Path_3285" data-name="Path 3285" d="M22.309,30.645H7.827C6.214,30.639,4.909,29.8,4.9,28.761V6.394C4.909,5.356,6.214,4.516,7.827,4.51H22.309Z" transform="translate(-0.03 0.404)" fill="#fe511f"/>
      <g id="GREEN_BROWN_DİKEY_LOGO_ACIK_RENK" transform="translate(0.089 9.021)">
        <path id="Path_3196" data-name="Path 3196" d="M13.32,139.695v-4.739c0-.03,0-.062,0-.094s0-.062,0-.094v-.027a3.161,3.161,0,1,0-4.442,3.009c.062.028.126.053.191.078a.613.613,0,0,0,.117.012.569.569,0,0,0,.264-1.075c-.034-.012-.067-.027-.1-.041a2.031,2.031,0,1,1,2.84-1.956v.187a2.035,2.035,0,0,1-1.18,1.752c-.051.024-.1.045-.157.064a.575.575,0,0,0,.387,1.061c.083-.03.164-.064.244-.1a3.189,3.189,0,0,0,.706-.449v2.876a1.975,1.975,0,0,1-1.969,1.925A2.023,2.023,0,0,1,8.2,140.267c0-.013,0-.028,0-.041a.584.584,0,0,0-.017-.139h0a.573.573,0,0,0-1.124.074h0a.573.573,0,0,0,0,.064.5.5,0,0,0,.015.122,3.162,3.162,0,0,0,3.147,2.866,3.028,3.028,0,0,0,2.206-.946,3.225,3.225,0,0,0,.885-2.015.806.806,0,0,0,.01-.106v-.128c0-.035,0-.068,0-.1A1.512,1.512,0,0,0,13.32,139.695Z" transform="translate(0 -127.037)" fill="#fff"/>
        <path id="Path_3197" data-name="Path 3197" d="M611.981,765.983a.346.346,0,0,1-.332.19.535.535,0,0,1-.39-.159.527.527,0,0,1,0-.755.532.532,0,0,1,.39-.158.378.378,0,0,1,.346.192v-.113h.192v.729a.5.5,0,0,1-.154.366.532.532,0,0,1-.393.163.525.525,0,0,1-.389-.158,1.107,1.107,0,0,1-.091-.111l.184-.067a.462.462,0,0,0,.052.06.334.334,0,0,0,.246.1A.306.306,0,0,0,611.981,765.983Zm.012-.429a.367.367,0,0,0-.1-.182.342.342,0,0,0-.494,0,.379.379,0,0,0,0,.523.344.344,0,0,0,.5,0,.346.346,0,0,0,.1-.176Z" transform="translate(-596.757 -752.738)" fill="#fff"/>
        <path id="Path_3198" data-name="Path 3198" d="M713.968,769.865a.325.325,0,0,0-.2.1.31.31,0,0,0-.072.212v.509H713.5v-.97h.192v.137a.263.263,0,0,1,.182-.158Z" transform="translate(-697.912 -757.282)" fill="#fff"/>
        <path id="Path_3199" data-name="Path 3199" d="M761.1,765.534v0a.357.357,0,0,0,.1.26.345.345,0,0,0,.5,0,.871.871,0,0,0,.057-.067l.18.063a.609.609,0,0,1-.094.12.558.558,0,0,1-.784,0,.514.514,0,0,1-.159-.377.522.522,0,0,1,.159-.379.559.559,0,0,1,.784,0,.507.507,0,0,1,.139.373H761.1Zm.034-.168h.636a.3.3,0,0,0-.316-.2A.3.3,0,0,0,761.132,765.366Z" transform="translate(-744.736 -752.639)" fill="#fff"/>
        <path id="Path_3200" data-name="Path 3200" d="M857.8,765.534v0a.356.356,0,0,0,.1.26.345.345,0,0,0,.5,0c.01-.01.029-.032.057-.067l.18.063a.611.611,0,0,1-.094.12.558.558,0,0,1-.784,0,.514.514,0,0,1-.159-.377.522.522,0,0,1,.159-.379.559.559,0,0,1,.784,0,.507.507,0,0,1,.139.373H857.8Zm.034-.168h.636a.3.3,0,0,0-.316-.2A.3.3,0,0,0,857.832,765.366Z" transform="translate(-840.26 -752.639)" fill="#fff"/>
        <path id="Path_3201" data-name="Path 3201" d="M958.792,767.3v.723H958.6v-.97h.192a.279.279,0,0,1,.2-.054.4.4,0,0,1,.3.113.38.38,0,0,1,.114.275v.636h-.192V767.4a.219.219,0,0,0-.067-.164.214.214,0,0,0-.153-.066.208.208,0,0,0-.15.062A.248.248,0,0,0,958.792,767.3Z" transform="translate(-940.033 -754.614)" fill="#fff"/>
        <path id="Path_3202" data-name="Path 3202" d="M615.2,886.8h.192v.669a.374.374,0,0,1,.345-.191.531.531,0,0,1,.39.159.528.528,0,0,1,0,.756.526.526,0,0,1-.39.159.376.376,0,0,1-.345-.192v.167H615.2Zm.192.934v.163a.335.335,0,0,0,.1.18.339.339,0,0,0,.246.1.343.343,0,0,0,.248-.1.353.353,0,0,0,.106-.26.358.358,0,0,0-.106-.263.339.339,0,0,0-.248-.106.345.345,0,0,0-.25.108A.332.332,0,0,0,615.392,887.734Z" transform="translate(-600.807 -872.958)" fill="#fff"/>
        <path id="Path_3203" data-name="Path 3203" d="M718.168,931.164a.325.325,0,0,0-.2.1.31.31,0,0,0-.072.211v.509H717.7v-.97h.192v.139a.263.263,0,0,1,.182-.158Z" transform="translate(-702.061 -916.621)" fill="#fff"/>
        <path id="Path_3204" data-name="Path 3204" d="M767.55,926.1a.531.531,0,0,1,.39.159.531.531,0,0,1,0,.756.526.526,0,0,1-.39.159.535.535,0,0,1-.39-.159.514.514,0,0,1-.159-.377.522.522,0,0,1,.159-.379A.53.53,0,0,1,767.55,926.1Zm-.248.276a.379.379,0,0,0,0,.523.338.338,0,0,0,.248.1.343.343,0,0,0,.248-.1.353.353,0,0,0,.106-.26.358.358,0,0,0-.106-.263.34.34,0,0,0-.248-.106A.331.331,0,0,0,767.3,926.376Z" transform="translate(-750.762 -911.78)" fill="#fff"/>
        <path id="Path_3205" data-name="Path 3205" d="M864.957,932.6l-.329.97h-.135l-.164-.459-.163.459h-.137l-.328-.97h.207l.195.6.163-.452h.129l.163.452.193-.6Z" transform="translate(-846.286 -918.201)" fill="#fff"/>
        <path id="Path_3206" data-name="Path 3206" d="M975.792,928.5v.723H975.6v-.97h.192a.278.278,0,0,1,.2-.054.4.4,0,0,1,.3.113.379.379,0,0,1,.114.275v.636h-.191V928.6a.219.219,0,0,0-.067-.164.214.214,0,0,0-.153-.066.207.207,0,0,0-.15.062A.237.237,0,0,0,975.792,928.5Z" transform="translate(-956.826 -913.855)" fill="#fff"/>
        <path id="Path_3207" data-name="Path 3207" d="M679.389,883.631h-4.724a.066.066,0,1,1,0-.131h4.724a.065.065,0,0,1,.066.066A.066.066,0,0,1,679.389,883.631Z" transform="translate(-659.485 -869.698)" fill="#fff"/>
        <path id="Path_3208" data-name="Path 3208" d="M204.731,374.882a.961.961,0,0,1,.12,1.5c-.355.354-.582.351-.934,0a.945.945,0,0,1-.227-1.068c.177-.4.621-.72,1.04-.428Z" transform="translate(-194.221 -367.151)" fill="#898f65"/>
        <path id="Path_3209" data-name="Path 3209" d="M220.189,637.031l.372,1.709a.581.581,0,1,1-1.135,0l.372-1.709a.2.2,0,0,1,.391,0Z" transform="translate(-209.83 -626.071)" fill="#653a2b"/>
        <path id="Path_3210" data-name="Path 3210" d="M551.562,4.864a3.145,3.145,0,0,0-2,.717V3.665a.565.565,0,0,0-1.13,0V7.606a3.16,3.16,0,1,0,3.133-2.742Zm0,5.192a2.031,2.031,0,1,1,2.031-2.031A2.034,2.034,0,0,1,551.562,10.055Z" transform="translate(-534.819)" fill="#fff"/>
      </g>
      <rect id="Rectangle_405" data-name="Rectangle 405" width="2" height="4" transform="translate(21.4 5.103)" fill="#fff"/>
      <rect id="Rectangle_406" data-name="Rectangle 406" width="2" height="4" transform="translate(21.4 12.103)" fill="#fff"/>
      <rect id="Rectangle_407" data-name="Rectangle 407" width="2" height="4" transform="translate(21.4 19.103)" fill="#fff"/>
      <rect id="Rectangle_408" data-name="Rectangle 408" width="2" height="4" transform="translate(21.4 26.103)" fill="#fff"/>
    </g>
  </g>
</svg>
