<svg xmlns="http://www.w3.org/2000/svg" width="95.549" height="35.478" viewBox="0 0 95.549 35.478">
  <g id="katman-1" transform="translate(-34.602 -355.351)">
    <g id="Group_332" data-name="Group 332" transform="translate(102.339 355.351)">
      <g id="Group_331" data-name="Group 331" transform="translate(0 0)" opacity="0.3">
        <g id="Group_330" data-name="Group 330">
          <path id="Path_3163" data-name="Path 3163" d="M-55.265-7.41a.093.093,0,0,1-.06-.095c.284.064.409-.345.415-.345.419.034.558-.464.389-.784.373-.018.476-.371.368-.681a.579.579,0,0,0,.461-.58c.663.351,1.879.527,2.113-.466a.983.983,0,0,0,1.136-.186c.223-.222.27.011.554.094a1.27,1.27,0,0,0,.9-.092,1.409,1.409,0,0,0,.472-.376c.269-.328.153-.283.577-.293a.854.854,0,0,0,.885-.689c1.086.322,2.014-.438,1.636-1.585A1.988,1.988,0,0,0-43.645-15.2a2.407,2.407,0,0,0-1.228-2.3,1.465,1.465,0,0,0-1.391.008c-.3.157-.19.086-.393-.124a1.8,1.8,0,0,0-.681-.437,1.424,1.424,0,0,0-1.938,1.288.807.807,0,0,0-.565-.192,1.061,1.061,0,0,0-.1-.6,1.931,1.931,0,0,0-.789-.728,1.725,1.725,0,0,0-2.063.3,1.91,1.91,0,0,0-.468,1.2,2.625,2.625,0,0,0,.043.662,1.385,1.385,0,0,0-.485.226,1.526,1.526,0,0,0-.35,2.132c-.986.071-1,1.478-.576,2.1a.672.672,0,0,0-.479.4.83.83,0,0,0-.68.1.942.942,0,0,0-.076,1.509.64.64,0,0,0-.2.827.593.593,0,0,0,.36.3c.284.087.09.2.15.457a.374.374,0,0,0-.218.716c.071.269.731.414.5-.043h0" transform="translate(56.203 18.506)" fill="#819399"/>
        </g>
      </g>
    </g>
    <g id="Group_335" data-name="Group 335" transform="translate(102.547 355.669)">
      <g id="Group_334" data-name="Group 334" transform="translate(0 0)" opacity="0.6">
        <g id="Group_333" data-name="Group 333">
          <path id="Path_3164" data-name="Path 3164" d="M-345.879-537.026a.614.614,0,0,0,.176.21c-.247,0-.306-.073-.176-.21.042.081-.021.04,0,0m3.591,1.661c-.225.021-.287-.063-.188-.252a1.886,1.886,0,0,0,.188.252c-.072-.026-.07-.079,0,0m-1.692,1.251c-.334.028-.232.211-.427-.152.193.056.9-.009.922.084a.683.683,0,0,0-.495.067c-.112.009.138-.077,0,0m-1.3-2.5c-.029.094-.075.084-.139-.03l.139.03c-.013.02-.048,0,0,0m-5.691,8.359a.149.149,0,0,0-.088-.174c.215-.145.253-.427.453-.493.538-.175.1-.746.328-.949-.141.113.083-.069.114-.109.2-.242.075-.311.356-.4.512-.163.478-.744.627-1.141a1.19,1.19,0,0,1,0,.561,1.349,1.349,0,0,0,.748.068,1.324,1.324,0,0,0,1.02-.9,1.207,1.207,0,0,0,1.114.089c.323-.18.2-.189.591-.141a1.458,1.458,0,0,0,.709-.091,1.436,1.436,0,0,0,.465-.3c.236-.226.161-.412.465-.307a.887.887,0,0,0,1.155-.765c1.021.685,2.045-.693,1.291-1.588,1.408.55,2.48-1.1,1.977-2.332a1.635,1.635,0,0,0-3.119.372,1.359,1.359,0,0,0-.61-.441c.647-.474.672-1.617-.3-1.66a1.035,1.035,0,0,0-.8,1.652,1.223,1.223,0,0,0-.253.131.637.637,0,0,0-1.007-.512,1.446,1.446,0,0,0-.625-1.352,1.348,1.348,0,0,0-1.5.045,1.481,1.481,0,0,0-.465,1.48c.091.226.516.151.745.207a1.721,1.721,0,0,1,.779.392c-.284.127-.183.265-.463.047a1.6,1.6,0,0,0-.578-.287,1.9,1.9,0,0,0-1.263.1,1.5,1.5,0,0,0-.6,1.948c.128.311.557.188.861.292a2.052,2.052,0,0,1,.967.688,1.652,1.652,0,0,0,.542-.223,1.711,1.711,0,0,0,.473.394c-.116.266-.008.358-.3.431a1.015,1.015,0,0,0-.6.462c-.208-.18-.2-.579-.381-.831a1.356,1.356,0,0,0-1.246-.59,1.078,1.078,0,0,0-.96.87,1.36,1.36,0,0,0,.024.569c.072.286.411.3.623.51a1.171,1.171,0,0,0-.768.283.759.759,0,0,0-.174.253.635.635,0,0,0-.48-.045.864.864,0,0,0-.13,1.515.514.514,0,0,0-.415.779c.023.034.729.466.474.549s-.431.579-.216.766c.046.041.372.526.449.177" transform="translate(351.752 539.244)" fill="#fff"/>
        </g>
      </g>
    </g>
    <g id="Group_338" data-name="Group 338" transform="translate(108.904 356.947)">
      <g id="Group_337" data-name="Group 337" transform="translate(0 0)" opacity="0.6">
        <g id="Group_336" data-name="Group 336">
          <path id="Path_3165" data-name="Path 3165" d="M-213.155,14.4a1.01,1.01,0,0,0,.121-1.5,1.208,1.208,0,0,0,1.7-.789,1.434,1.434,0,0,0-.668-2.1c-1.449-.735-2.484,1.564-1.5,2.564a.928.928,0,0,0-.543.013,1.382,1.382,0,0,0-2.38-1.323,1.346,1.346,0,0,0-.112,1.66,1.592,1.592,0,0,0,1.857.353,1.045,1.045,0,0,0,1.522,1.125h0" transform="translate(216.775 -9.864)" fill="#fff"/>
        </g>
      </g>
    </g>
    <g id="Group_339" data-name="Group 339" transform="translate(109.988 356.358)">
      <path id="Path_3166" data-name="Path 3166" d="M-36.771-4.8a.631.631,0,0,0-.02-1.261c-.8.047-.817,1.362.02,1.261.115-.013-.11.014,0,0" transform="translate(37.395 6.064)" fill="#fff"/>
    </g>
    <g id="Group_342" data-name="Group 342" transform="translate(105.173 356.353)">
      <g id="Group_341" data-name="Group 341" transform="translate(0 0)" opacity="0.4">
        <g id="Group_340" data-name="Group 340">
          <path id="Path_3167" data-name="Path 3167" d="M-219.029,15.205a1.2,1.2,0,0,0,1.1-.823.88.88,0,0,0,1.475-.469c.158-.763-.835-1.507-1.487-.966a1.48,1.48,0,0,0-1.709-.547,1.758,1.758,0,0,0-.049-1.057.772.772,0,0,0,1.322-.536,1.309,1.309,0,0,0-.424-.771.68.68,0,0,0-.345-.151c-.308-.041-.141-.066-.311-.3-.327-.444-.542-.975-1.242-.735a.993.993,0,0,0-.43,1.508c-.827,0-1.786.78-1.59,1.678s1.323,1.975,2.27,1.45a1.562,1.562,0,0,0,1.424,1.718c.519.033-.484-.03,0,0" transform="translate(222.748 -8.792)" fill="#fff"/>
        </g>
      </g>
    </g>
    <g id="Group_346" data-name="Group 346" transform="translate(102.799 360.545)">
      <g id="Group_345" data-name="Group 345" transform="translate(0 0)" opacity="0.7">
        <g id="Group_343" data-name="Group 343" transform="translate(2.41 1.096)">
          <path id="Path_3168" data-name="Path 3168" d="M0-.189H0" transform="translate(0.003 0.189)" fill="#fff"/>
        </g>
        <g id="Group_344" data-name="Group 344">
          <path id="Path_3169" data-name="Path 3169" d="M-49.348,7.4a.358.358,0,0,0,.22-.6.764.764,0,0,0,.195-1.134A.787.787,0,0,0-47.9,5.155c.953.839,2.03.1,2.076-1.05a.6.6,0,0,0,1.182-.01.6.6,0,0,0-1.19-.178,1.1,1.1,0,0,0-1.049-.935c-.035-.411-.113-.932-.632-1a.8.8,0,0,0-.879,1.04,3.845,3.845,0,0,0,.315.449,1.209,1.209,0,0,0-.3.754.764.764,0,0,0-1.074.51.568.568,0,0,0-.722.4.593.593,0,0,0,.2.567.745.745,0,0,0-.14.648.619.619,0,0,0,.429.537.35.35,0,0,0,.337.506h0" transform="translate(50.186 -1.98)" fill="#fff"/>
        </g>
      </g>
    </g>
    <g id="Group_347" data-name="Group 347" transform="translate(102.579 365.882)">
      <path id="Path_3170" data-name="Path 3170" d="M-21.572-2.995c-.03.007.153-.063.187-.177a.223.223,0,0,0,.281-.343.216.216,0,0,0-.372.07.712.712,0,0,0-.2-.107c-.389-.034-.341.666.1.557h0" transform="translate(21.938 3.594)" fill="#fff"/>
    </g>
    <g id="Group_348" data-name="Group 348" transform="translate(103.02 366.422)">
      <path id="Path_3171" data-name="Path 3171" d="M-12.3-4.678a.105.105,0,0,0-.206-.045.105.105,0,0,0,.206.045" transform="translate(12.504 4.803)" fill="#fff"/>
    </g>
    <g id="Group_349" data-name="Group 349" transform="translate(108.011 360.664)">
      <path id="Path_3172" data-name="Path 3172" d="M-97.3-24.245a1.074,1.074,0,0,0,.326-.956,1.282,1.282,0,0,0-.405-.813,1.258,1.258,0,0,1-.064,1.069,1.547,1.547,0,0,1-1.222.568c-.626.1-.083.559.281.567a1.62,1.62,0,0,0,1.085-.434c.531-.5-.379.356,0,0" transform="translate(98.951 26.014)" fill="#fff"/>
    </g>
    <g id="Group_350" data-name="Group 350" transform="translate(106.309 358.97)">
      <path id="Path_3173" data-name="Path 3173" d="M-40.449-1.342a1.291,1.291,0,0,0,1.382-.678A1.5,1.5,0,0,0-39.4-3.458a1.6,1.6,0,0,1,.058,1.034.985.985,0,0,1-.813.649c-.155.013-1.027-.333-.979-.031.051.32.411.426.685.464h0" transform="translate(41.136 3.458)" fill="#fff"/>
    </g>
    <g id="Group_351" data-name="Group 351" transform="translate(103.282 361.532)">
      <path id="Path_3174" data-name="Path 3174" d="M-55.691-36.656a.8.8,0,0,0-.125-.713.883.883,0,0,0,1.1-.492c.369.745,1.645.389,1.94-.245a1.3,1.3,0,0,0-.074-1.121,1.283,1.283,0,0,0-.306-.392A2.621,2.621,0,0,0-53.6-39.8c.387.471.856,1.3.121,1.716a1.424,1.424,0,0,1-.98.08c-.247-.052-.2.042-.248-.214-.008-.051-.055-.44-.151-.422-.061.01-.035.368-.053.431a.721.721,0,0,1-.348.43.9.9,0,0,1-.906.052c-.211-.189.1.54.112.568a.488.488,0,0,1-.078.5c-.082.087-.493.225-.5.325-.039.35.861-.028.944-.318s-.111.385,0,0" transform="translate(56.636 39.805)" fill="#fff"/>
    </g>
    <g id="Group_352" data-name="Group 352" transform="translate(105.55 360.988) rotate(-104.114)">
      <path id="Path_3175" data-name="Path 3175" d="M.317,1.639C-.115.659,1.045.041,1.839.113A1.488,1.488,0,0,0,.317.333a.832.832,0,0,0,0,1.306c-.04-.091-.414-.294,0,0" transform="translate(0 0)" fill="#fff"/>
    </g>
    <g id="Group_353" data-name="Group 353" transform="translate(112.008 357.685)">
      <path id="Path_3176" data-name="Path 3176" d="M0-106.446a1.8,1.8,0,0,1,.432,2.015,1.138,1.138,0,0,0,.363-1.382,1.227,1.227,0,0,0,1.387-.895,1.326,1.326,0,0,0-.016-.808c-.03-.084-.543-.759-.627-.482-.024.08.313.473.335.629a1.224,1.224,0,0,1-.156.773.819.819,0,0,1-.717.338c-.371.014-.661-.22-1-.187.12.111.194-.02,0,0" transform="translate(0 108.064)" fill="#fff"/>
    </g>
    <g id="Group_354" data-name="Group 354" transform="translate(109.339 359.312) rotate(-64.484)">
      <path id="Path_3177" data-name="Path 3177" d="M1.443.716C1.554,1.449.632,1.938,0,1.823.89,2.737,2.355.913,1.443,0a1.215,1.215,0,0,1,0,.716c.025.168.069-.244,0,0" transform="translate(0 0)" fill="#fff"/>
    </g>
    <g id="Group_355" data-name="Group 355" transform="translate(54.755 366.455)">
      <path id="Path_3178" data-name="Path 3178" d="M3314.412,2491.5a1.6,1.6,0,0,0-.48,1.177v12.861a1.659,1.659,0,0,0,2.825,1.177,1.557,1.557,0,0,0,.49-1.155v-.022a4.565,4.565,0,0,0,3.643,1.743,5.028,5.028,0,0,0,3.763-1.624,6.1,6.1,0,0,0,1.56-4.414v-.044a6.08,6.08,0,0,0-1.571-4.414,5.037,5.037,0,0,0-3.751-1.624,4.323,4.323,0,0,0-3.643,1.9v-4.381a1.666,1.666,0,0,0-2.836-1.177Zm3.6,12.075a3.394,3.394,0,0,1-.807-2.332v-.044a3.33,3.33,0,0,1,.818-2.321,2.613,2.613,0,0,1,2.018-.9,2.646,2.646,0,0,1,2.029.9,3.3,3.3,0,0,1,.829,2.321v.044a3.293,3.293,0,0,1-.829,2.332,2.749,2.749,0,0,1-4.057,0Zm26.808-12.046a1.6,1.6,0,0,0-.48,1.175v12.831a1.658,1.658,0,1,0,3.317,0v-1.892l1.331-1.2,2.9,3.98a1.691,1.691,0,0,0,1.44.761,1.553,1.553,0,0,0,1.091-.424,1.4,1.4,0,0,0,.458-1.076,1.833,1.833,0,0,0-.415-1.066l-3.12-4.2,2.618-2.24a2.022,2.022,0,0,0,.764-1.436,1.49,1.49,0,0,0-.4-1.033,1.36,1.36,0,0,0-1.058-.446,2.239,2.239,0,0,0-1.462.74l-4.146,3.914v-7.22a1.668,1.668,0,0,0-2.837-1.175Zm-50.58.434a3.826,3.826,0,0,0-.938,2.823v.738h-.131a1.375,1.375,0,0,0-1.375,1.369,1.279,1.279,0,0,0,.4.955,1.346,1.346,0,0,0,.971.391h.131v7.3a1.59,1.59,0,0,0,.48,1.173,1.658,1.658,0,0,0,2.837-1.173v-7.3h1.4a1.346,1.346,0,0,0,.971-.391,1.333,1.333,0,0,0,0-1.911,1.347,1.347,0,0,0-.971-.391h-1.44v-.456q0-1.26,1.2-1.26h.283a1.375,1.375,0,0,0,1.354-1.368,1.272,1.272,0,0,0-.338-.891,1.306,1.306,0,0,0-.8-.434,8.253,8.253,0,0,0-1.353-.087A3.649,3.649,0,0,0,3294.24,2491.961Zm45.207-.3a.887.887,0,0,0-.268.656v.022a.927.927,0,0,0,.082.393h-.828a.124.124,0,0,0-.124.124v.56a.124.124,0,0,0,.124.124h.547l-1.107,12.058a1.336,1.336,0,0,0,.493,1.175,2.79,2.79,0,0,0,1.7.479,2.911,2.911,0,0,0,1.7-.479,1.3,1.3,0,0,0,.493-1.175l-1-12.058h.47a.124.124,0,0,0,.124-.124v-.56a.124.124,0,0,0-.124-.124h-.766a.936.936,0,0,0,.082-.394v-.022a.888.888,0,0,0-.268-.656.964.964,0,0,0-1.33,0Zm18.825,4.292a1.4,1.4,0,0,0-.642.5,1.308,1.308,0,0,0-.25.782,1.283,1.283,0,0,0,.4.957,1.339,1.339,0,0,0,.968.392,1.529,1.529,0,0,0,.479-.087,7.639,7.639,0,0,1,2.284-.326q2.5,0,2.5,2.131v.2a8.717,8.717,0,0,0-2.85-.478,5.668,5.668,0,0,0-3.427.935,3.231,3.231,0,0,0-1.273,2.783v.044a3.218,3.218,0,0,0,1.142,2.62,4.339,4.339,0,0,0,2.861.945,4.506,4.506,0,0,0,3.525-1.478v.022a1.268,1.268,0,0,0,.446.957,1.614,1.614,0,0,0,1.142.413,1.575,1.575,0,0,0,1.142-.457,1.518,1.518,0,0,0,.468-1.131v-5.3a5.039,5.039,0,0,0-1.262-3.718,5.353,5.353,0,0,0-3.938-1.3A10.594,10.594,0,0,0,3358.271,2495.948Zm1.893,8.729a1.229,1.229,0,0,1-.5-1.033v-.043a1.356,1.356,0,0,1,.609-1.2,2.951,2.951,0,0,1,1.676-.413,4.947,4.947,0,0,1,2.11.435v.587a1.8,1.8,0,0,1-.718,1.468,2.9,2.9,0,0,1-1.871.576A2.1,2.1,0,0,1,3360.164,2504.677Zm-27.256-8.719a5.089,5.089,0,0,0-.983,1.554v-.522a1.659,1.659,0,1,0-3.318,0v8.605a1.659,1.659,0,1,0,3.318,0v-3.086q0-3.412,2.62-4.02a1.694,1.694,0,0,0,.9-.521,1.475,1.475,0,0,0,.349-1.021,1.613,1.613,0,0,0-.426-1.163,1.567,1.567,0,0,0-1.19-.445A1.736,1.736,0,0,0,3332.908,2495.959Zm-30.757-.01a1.4,1.4,0,0,0-.642.5,1.3,1.3,0,0,0-.25.782,1.282,1.282,0,0,0,.4.957,1.339,1.339,0,0,0,.968.392,1.531,1.531,0,0,0,.479-.087,7.638,7.638,0,0,1,2.284-.326q2.5,0,2.5,2.131v.2a8.716,8.716,0,0,0-2.85-.478,5.669,5.669,0,0,0-3.427.935,3.231,3.231,0,0,0-1.273,2.783v.044a3.216,3.216,0,0,0,1.142,2.62,4.337,4.337,0,0,0,2.861.945,4.507,4.507,0,0,0,3.525-1.478v.022a1.27,1.27,0,0,0,.446.957,1.615,1.615,0,0,0,1.142.413,1.574,1.574,0,0,0,1.142-.457,1.517,1.517,0,0,0,.468-1.131v-5.3a5.039,5.039,0,0,0-1.262-3.718,5.354,5.354,0,0,0-3.938-1.3A10.6,10.6,0,0,0,3302.151,2495.948Zm1.893,8.729a1.228,1.228,0,0,1-.5-1.033v-.043a1.355,1.355,0,0,1,.609-1.2,2.952,2.952,0,0,1,1.676-.413,4.948,4.948,0,0,1,2.111.435v.587a1.8,1.8,0,0,1-.718,1.468,2.9,2.9,0,0,1-1.871.576A2.1,2.1,0,0,1,3304.044,2504.677Z" transform="translate(-3291.795 -2491.018)" fill="#fff"/>
    </g>
    <g id="Group_356" data-name="Group 356" transform="translate(34.602 373.668)">
      <path id="Path_3179" data-name="Path 3179" d="M2090.464,2500.465a.462.462,0,0,0-.132.329v7.927a.459.459,0,0,0,.132.329.469.469,0,0,0,.658.006.454.454,0,0,0,.132-.335v-3.137a1.919,1.919,0,0,1,.527-1.4,1.778,1.778,0,0,1,1.329-.539,1.612,1.612,0,0,1,1.262.5,1.97,1.97,0,0,1,.449,1.371v3.209a.47.47,0,0,0,.467.467.427.427,0,0,0,.323-.138.458.458,0,0,0,.132-.329v-3.437a2.528,2.528,0,0,0-.635-1.8,2.264,2.264,0,0,0-1.735-.677,2.333,2.333,0,0,0-2.119,1.209v-3.221a.47.47,0,0,0-.467-.467A.43.43,0,0,0,2090.464,2500.465Zm-4.509.715a.461.461,0,0,0-.13.329v1.458h-.5a.386.386,0,0,0-.285.12.392.392,0,0,0,.006.568.385.385,0,0,0,.279.125h.5v3.728a1.7,1.7,0,0,0,.469,1.32,1.816,1.816,0,0,0,1.265.424,2.333,2.333,0,0,0,.9-.167.356.356,0,0,0,.261-.359.388.388,0,0,0-.113-.274.367.367,0,0,0-.279-.12l-.19.048a1.843,1.843,0,0,1-.368.036.911.911,0,0,1-1.033-1.028v-3.608h1.591a.408.408,0,0,0,.291-.12.392.392,0,0,0,0-.573.407.407,0,0,0-.291-.12h-1.591v-1.458a.45.45,0,0,0-.137-.329.444.444,0,0,0-.327-.137A.425.425,0,0,0,2085.955,2501.18Zm12.218,2.569a3.285,3.285,0,0,0-.846,2.287v.024a3.169,3.169,0,0,0,.888,2.317,2.943,2.943,0,0,0,2.186.9,3.219,3.219,0,0,0,2.323-.934.388.388,0,0,0,.024-.581.4.4,0,0,0-.286-.114.411.411,0,0,0-.262.108,2.537,2.537,0,0,1-1.775.719,2.1,2.1,0,0,1-1.459-.557,2.29,2.29,0,0,1-.709-1.539h4.456a.414.414,0,0,0,.3-.126.419.419,0,0,0,.125-.306,3.334,3.334,0,0,0-.774-2.216,2.582,2.582,0,0,0-2.085-.922A2.728,2.728,0,0,0,2098.173,2503.749Zm.707.435a1.79,1.79,0,0,1,1.356-.592,1.742,1.742,0,0,1,1.386.592,2.512,2.512,0,0,1,.586,1.491h-3.98A2.5,2.5,0,0,1,2098.88,2504.184Z" transform="translate(-2084.922 -2500.328)" fill="#fff"/>
    </g>
    <g id="Group_357" data-name="Group 357" transform="translate(34.956 385.479)">
      <path id="Path_3180" data-name="Path 3180" d="M2121.775,2008.931a.178.178,0,0,0-.052.131v.1a.177.177,0,0,0,.183.183.19.19,0,0,0,.134-.052.174.174,0,0,0,.055-.131v-.1a.174.174,0,0,0-.055-.131.189.189,0,0,0-.134-.052A.178.178,0,0,0,2121.775,2008.931Zm-2.288.223a.148.148,0,0,0-.043.109v.866h-.335a.141.141,0,0,0-.1.04.124.124,0,0,0-.042.094.146.146,0,0,0,.14.14h.335v2.035a.807.807,0,0,0,.244.637.911.911,0,0,0,.628.216,1.317,1.317,0,0,0,.439-.079.13.13,0,0,0,.1-.128.125.125,0,0,0-.042-.094.135.135,0,0,0-.092-.04l-.133.035a.879.879,0,0,1-.22.026.541.541,0,0,1-.622-.6V2010.4h.975a.14.14,0,0,0,.1-.04.125.125,0,0,0,.042-.094.145.145,0,0,0-.14-.14h-.975v-.866a.156.156,0,0,0-.153-.152A.14.14,0,0,0,2119.487,2009.154Zm27.745,1.386a1.6,1.6,0,0,0-.463,1.142v.012a1.584,1.584,0,0,0,.46,1.136,1.5,1.5,0,0,0,1.125.479,1.635,1.635,0,0,0,1.2-.536.123.123,0,0,0,.036-.091.138.138,0,0,0-.244-.1,1.358,1.358,0,0,1-.975.445,1.2,1.2,0,0,1-.908-.393,1.337,1.337,0,0,1-.372-.954v-.032a1.332,1.332,0,0,1,.362-.928,1.176,1.176,0,0,1,.893-.387,1.394,1.394,0,0,1,.963.439l.005,0a.142.142,0,0,0,.1.032.15.15,0,0,0,.106-.043.142.142,0,0,0,.046-.109.15.15,0,0,0-.042-.11,1.683,1.683,0,0,0-1.17-.494A1.494,1.494,0,0,0,2147.232,2010.54Zm-3.687.167v-.451a.146.146,0,0,0-.152-.152.141.141,0,0,0-.1.043.148.148,0,0,0-.043.11v2.852a.146.146,0,0,0,.152.152.138.138,0,0,0,.107-.043.154.154,0,0,0,.04-.11v-1.67a1.088,1.088,0,0,1,.308-.795,1.033,1.033,0,0,1,.771-.314.932.932,0,0,1,.725.287,1.1,1.1,0,0,1,.262.774v1.718a.146.146,0,0,0,.153.152.137.137,0,0,0,.106-.043.154.154,0,0,0,.04-.11v-1.773a1.3,1.3,0,0,0-.332-.923,1.184,1.184,0,0,0-.911-.357A1.211,1.211,0,0,0,2143.546,2010.708Zm-3.647-.183a1.656,1.656,0,0,0-.424,1.152v.034a1.586,1.586,0,0,0,.448,1.142,1.452,1.452,0,0,0,1.075.457,1.656,1.656,0,0,0,1.213-.506.146.146,0,0,0,.049-.1.132.132,0,0,0-.043-.1.146.146,0,0,0-.1-.039.134.134,0,0,0-.1.042l-.015.014a1.4,1.4,0,0,1-.991.412,1.16,1.16,0,0,1-.825-.332,1.317,1.317,0,0,1-.393-.893h2.438a.145.145,0,0,0,.1-.043.129.129,0,0,0,.046-.1,1.71,1.71,0,0,0-.393-1.146,1.289,1.289,0,0,0-1.033-.463A1.36,1.36,0,0,0,2139.9,2010.525Zm.259.149a1.033,1.033,0,0,1,.78-.344.971.971,0,0,1,.792.347,1.479,1.479,0,0,1,.323.859h-2.261A1.388,1.388,0,0,1,2140.157,2010.674Zm-4.241-.2a1.376,1.376,0,0,0-.451,1.061v.032a1.356,1.356,0,0,0,.451,1.031,1.5,1.5,0,0,0,1.042.411,1.518,1.518,0,0,0,1.3-.719v.451a1.167,1.167,0,0,1-.332.9,1.246,1.246,0,0,1-.887.311,1.962,1.962,0,0,1-1.194-.4.2.2,0,0,0-.085-.024.146.146,0,0,0-.107.046.134.134,0,0,0-.046.094.157.157,0,0,0,.067.134,2.318,2.318,0,0,0,1.359.427,1.521,1.521,0,0,0,1.127-.415,1.424,1.424,0,0,0,.4-1.054v-2.5a.144.144,0,0,0-.046-.11.152.152,0,0,0-.107-.043.141.141,0,0,0-.1.043.149.149,0,0,0-.043.11v.494a1.512,1.512,0,0,0-1.3-.695A1.5,1.5,0,0,0,2135.916,2010.47Zm.225,1.911a1.128,1.128,0,0,1-.354-.85v-.031a1.106,1.106,0,0,1,.347-.835,1.207,1.207,0,0,1,.853-.323,1.339,1.339,0,0,1,.9.332,1.07,1.07,0,0,1,.387.85v.012a1.07,1.07,0,0,1-.39.847,1.338,1.338,0,0,1-.9.335A1.182,1.182,0,0,1,2136.142,2012.38Zm-9.15-1.856a1.656,1.656,0,0,0-.424,1.152v.034a1.589,1.589,0,0,0,.448,1.142,1.451,1.451,0,0,0,1.076.457,1.655,1.655,0,0,0,1.212-.506.146.146,0,0,0,.049-.1.132.132,0,0,0-.042-.1.147.147,0,0,0-.1-.039.134.134,0,0,0-.1.042l-.015.014a1.4,1.4,0,0,1-.99.412,1.161,1.161,0,0,1-.826-.332,1.318,1.318,0,0,1-.393-.893h2.438a.144.144,0,0,0,.1-.043.13.13,0,0,0,.046-.1,1.709,1.709,0,0,0-.393-1.146,1.289,1.289,0,0,0-1.033-.463A1.359,1.359,0,0,0,2126.992,2010.525Zm.259.149a1.031,1.031,0,0,1,.78-.344.971.971,0,0,1,.792.347,1.479,1.479,0,0,1,.323.859h-2.261A1.385,1.385,0,0,1,2127.251,2010.674Zm-14.818-.149a1.656,1.656,0,0,0-.423,1.152v.034a1.588,1.588,0,0,0,.448,1.142,1.451,1.451,0,0,0,1.075.457,1.655,1.655,0,0,0,1.213-.506.146.146,0,0,0,.049-.1.132.132,0,0,0-.043-.1.146.146,0,0,0-.1-.039.135.135,0,0,0-.1.042l-.015.014a1.4,1.4,0,0,1-.991.412,1.161,1.161,0,0,1-.825-.332,1.318,1.318,0,0,1-.393-.893h2.438a.144.144,0,0,0,.1-.043.13.13,0,0,0,.046-.1,1.71,1.71,0,0,0-.393-1.146,1.289,1.289,0,0,0-1.033-.463A1.36,1.36,0,0,0,2112.433,2010.525Zm.259.149a1.032,1.032,0,0,1,.78-.344.971.971,0,0,1,.792.347,1.48,1.48,0,0,1,.323.859h-2.261A1.387,1.387,0,0,1,2112.692,2010.674Zm-6.137-.134a1.6,1.6,0,0,0-.463,1.142v.033a1.579,1.579,0,0,0,.46,1.116,1.5,1.5,0,0,0,1.125.479,1.635,1.635,0,0,0,1.2-.536.124.124,0,0,0,.036-.091.138.138,0,0,0-.244-.1,1.357,1.357,0,0,1-.975.445,1.2,1.2,0,0,1-.908-.393,1.338,1.338,0,0,1-.372-.954v-.032a1.331,1.331,0,0,1,.362-.928,1.176,1.176,0,0,1,.893-.387,1.4,1.4,0,0,1,.963.439l0,0a.143.143,0,0,0,.1.032.151.151,0,0,0,.107-.043.142.142,0,0,0,.046-.109.15.15,0,0,0-.042-.11,1.682,1.682,0,0,0-1.17-.494A1.494,1.494,0,0,0,2106.556,2010.54Zm25.716-.229a.144.144,0,0,0,.055.275.154.154,0,0,0,.067-.018l.024-.012a2.018,2.018,0,0,1,.859-.2,1.086,1.086,0,0,1,.756.244.908.908,0,0,1,.268.707v.134a4.016,4.016,0,0,0-1.03-.134,1.651,1.651,0,0,0-.987.268.865.865,0,0,0-.372.744v.028a.829.829,0,0,0,.363.7,1.405,1.405,0,0,0,.838.259,1.373,1.373,0,0,0,1.188-.591v.39a.154.154,0,0,0,.04.11.154.154,0,0,0,.213,0,.155.155,0,0,0,.04-.11v-1.81a1.186,1.186,0,0,0-.317-.878,1.328,1.328,0,0,0-.981-.341A2.529,2.529,0,0,0,2132.272,2010.311Zm.223,2.523a.612.612,0,0,1-.265-.518v-.026a.623.623,0,0,1,.268-.513,1.255,1.255,0,0,1,.756-.2,4.263,4.263,0,0,1,1.054.14v.354a.838.838,0,0,1-.344.686,1.3,1.3,0,0,1-.832.271A1.045,1.045,0,0,1,2132.495,2012.834Zm-16.609-2.523a.144.144,0,0,0,.055.275.155.155,0,0,0,.067-.018l.024-.012a2.02,2.02,0,0,1,.86-.2,1.084,1.084,0,0,1,.755.244.906.906,0,0,1,.268.707v.134a4.012,4.012,0,0,0-1.03-.134,1.65,1.65,0,0,0-.987.268.865.865,0,0,0-.372.744v.028a.829.829,0,0,0,.362.7,1.405,1.405,0,0,0,.838.259,1.372,1.372,0,0,0,1.188-.591v.39a.155.155,0,0,0,.04.11.155.155,0,0,0,.213,0,.155.155,0,0,0,.039-.11v-1.81a1.186,1.186,0,0,0-.317-.878,1.329,1.329,0,0,0-.981-.341A2.526,2.526,0,0,0,2115.886,2010.311Zm.222,2.523a.612.612,0,0,1-.265-.518v-.026a.622.622,0,0,1,.268-.513,1.255,1.255,0,0,1,.756-.2,4.261,4.261,0,0,1,1.054.14v.354a.839.839,0,0,1-.344.686,1.3,1.3,0,0,1-.832.271A1.045,1.045,0,0,1,2116.108,2012.834Zm-5.476-2.5a1.644,1.644,0,0,0-.548.683v-.756a.147.147,0,0,0-.152-.152.142.142,0,0,0-.1.043.149.149,0,0,0-.043.11v2.852a.146.146,0,0,0,.152.152.14.14,0,0,0,.1-.043.148.148,0,0,0,.043-.11v-1.146a1.6,1.6,0,0,1,.356-1.106,1.317,1.317,0,0,1,.893-.448h.009a.148.148,0,0,0,.15-.164.163.163,0,0,0-.046-.116.148.148,0,0,0-.113-.049A1.214,1.214,0,0,0,2110.632,2010.329Zm42.225-.115-1.085,2.693-1.247-2.69a.169.169,0,0,0-.155-.114.16.16,0,0,0-.113.043.145.145,0,0,0-.046.11.279.279,0,0,0,.025.092l1.389,2.87-.019.043a1.667,1.667,0,0,1-.329.524.583.583,0,0,1-.421.165,1.145,1.145,0,0,1-.4-.061.406.406,0,0,0-.1-.024.136.136,0,0,0-.14.14.123.123,0,0,0,.085.128,1.509,1.509,0,0,0,.53.1.894.894,0,0,0,.588-.2,1.766,1.766,0,0,0,.448-.68l1.261-3.01a.229.229,0,0,0,.019-.079.144.144,0,0,0-.046-.11.152.152,0,0,0-.107-.043A.15.15,0,0,0,2152.857,2010.214Zm-27.264,0-1.152,2.688-1.133-2.676a.174.174,0,0,0-.159-.122.16.16,0,0,0-.113.043.144.144,0,0,0-.046.11.277.277,0,0,0,.025.092l1.249,2.8a.188.188,0,0,0,.17.128h.012a.188.188,0,0,0,.17-.128l1.255-2.815a.24.24,0,0,0,.019-.079.144.144,0,0,0-.046-.11.151.151,0,0,0-.106-.043A.15.15,0,0,0,2125.593,2010.214Zm-3.791-.067a.149.149,0,0,0-.043.11v2.852a.146.146,0,0,0,.152.152.138.138,0,0,0,.107-.043.155.155,0,0,0,.04-.11v-2.852a.146.146,0,0,0-.152-.152A.142.142,0,0,0,2121.8,2010.147Z" transform="translate(-2106.093 -2008.879)" fill="#fff"/>
    </g>
  </g>
</svg>
