<svg xmlns="http://www.w3.org/2000/svg" width="82.398" height="83.5" viewBox="0 0 82.398 83.5">
  <g id="GREEN_BROWN_DİKEY_LOGO_ACIK_RENK" transform="translate(-7 -3.1)">
    <path id="Path_3196" data-name="Path 3196" d="M47.357,182.753V152.488c.008-.194.016-.4.016-.6s-.008-.4-.016-.6v-.171a20.186,20.186,0,1,0-28.364,19.212c.4.179.807.342,1.219.5a3.913,3.913,0,0,0,.745.078,3.637,3.637,0,0,0,1.684-6.862c-.217-.078-.427-.171-.637-.264a12.97,12.97,0,1,1,18.133-12.49v1.2A12.993,12.993,0,0,1,32.6,163.673c-.326.155-.66.287-1,.411a3.672,3.672,0,0,0,2.468,6.777c.528-.194,1.048-.411,1.56-.644a20.37,20.37,0,0,0,4.51-2.864v18.366a12.614,12.614,0,0,1-12.575,12.3,12.917,12.917,0,0,1-12.893-11.6c.008-.085.016-.179.016-.264a3.733,3.733,0,0,0-.109-.885v-.008a3.658,3.658,0,0,0-7.18.474h0a3.654,3.654,0,0,0-.023.411,3.173,3.173,0,0,0,.093.776,20.195,20.195,0,0,0,20.1,18.3,19.335,19.335,0,0,0,14.089-6.039,20.6,20.6,0,0,0,5.651-12.87,5.15,5.15,0,0,0,.062-.675v-.815c0-.225.008-.435.016-.652A9.656,9.656,0,0,0,47.357,182.753Z" transform="translate(0 -118.618)" fill="#fff"/>
    <path id="Path_3208" data-name="Path 3208" d="M210.759,375.493a6.135,6.135,0,0,1,.768,9.556c-2.267,2.259-3.718,2.243-5.962,0a6.037,6.037,0,0,1-1.452-6.823c1.133-2.569,3.967-4.6,6.645-2.732Z" transform="translate(-181.349 -342.818)" fill="#898f65"/>
    <path id="Path_3209" data-name="Path 3209" d="M224.371,637.87l2.375,10.914a3.71,3.71,0,1,1-7.25,0l2.375-10.914a1.282,1.282,0,0,1,2.5,0Z" transform="translate(-195.924 -584.579)" fill="#653a2b"/>
    <path id="Path_3210" data-name="Path 3210" d="M568.59,14.363a20.085,20.085,0,0,0-12.785,4.58V6.71a3.609,3.609,0,1,0-7.219,0V31.875a20.182,20.182,0,1,0,20-17.512Zm0,33.153a12.971,12.971,0,1,1,12.971-12.971A12.99,12.99,0,0,1,568.59,47.516Z" transform="translate(-499.374)" fill="#fff"/>
  </g>
</svg>
