<svg xmlns="http://www.w3.org/2000/svg" width="34.9" height="35.195" viewBox="0 0 34.9 35.195">
  <g id="GREEN_BROWN_DİKEY_LOGO" transform="translate(-20.6 -14)">
    <path id="Path_3181" data-name="Path 3181" d="M37.607,160.715V147.959c0-.084.007-.168.007-.252s0-.168-.007-.252v-.074a8.506,8.506,0,1,0-11.954,8.1c.168.077.339.144.511.208a1.624,1.624,0,0,0,.316.034,1.534,1.534,0,0,0,.712-2.893c-.091-.034-.181-.071-.269-.111a5.465,5.465,0,1,1,7.643-5.261v.5a5.481,5.481,0,0,1-3.175,4.714c-.138.064-.279.121-.423.175a1.548,1.548,0,0,0,.8,2.876,1.479,1.479,0,0,0,.245-.02c.222-.081.443-.171.658-.272a8.494,8.494,0,0,0,1.9-1.209v7.741a5.321,5.321,0,0,1-5.3,5.181,5.444,5.444,0,0,1-5.433-4.888c0-.037.007-.074.007-.111a1.533,1.533,0,0,0-.047-.373v0a1.538,1.538,0,0,0-3.02.2h0a1.48,1.48,0,0,0-.01.175,1.521,1.521,0,0,0,.037.329,8.51,8.51,0,0,0,8.466,7.714,8.158,8.158,0,0,0,5.936-2.543,8.677,8.677,0,0,0,2.382-5.426,2.012,2.012,0,0,0,.024-.282v-.353c0-.094,0-.185.007-.272A4.476,4.476,0,0,0,37.607,160.715Z" transform="translate(0 -120.994)" fill="#585955"/>
    <path id="Path_3182" data-name="Path 3182" d="M611.072,758.179a.932.932,0,0,1-.894.511,1.427,1.427,0,0,1-1.048-.43,1.416,1.416,0,0,1,0-2.033,1.424,1.424,0,0,1,1.048-.427,1.012,1.012,0,0,1,.931.517v-.306h.517v1.965a1.335,1.335,0,0,1-.413.984,1.5,1.5,0,0,1-2.1.01,3.237,3.237,0,0,1-.245-.3l.494-.181a1.522,1.522,0,0,0,.141.161.887.887,0,0,0,.659.279A.812.812,0,0,0,611.072,758.179Zm.037-1.156a.949.949,0,0,0-.269-.49.887.887,0,0,0-.659-.279.908.908,0,0,0-.669.286,1.019,1.019,0,0,0,0,1.408.915.915,0,0,0,.669.286.929.929,0,0,0,.672-.289.913.913,0,0,0,.255-.474Z" transform="translate(-568.342 -716.878)" fill="#585955"/>
    <path id="Path_3183" data-name="Path 3183" d="M709.76,760.843a.865.865,0,0,0-.548.282.842.842,0,0,0-.195.571v1.371H708.5v-2.61h.517v.37a.713.713,0,0,1,.49-.427Z" transform="translate(-664.789 -721.324)" fill="#585955"/>
    <path id="Path_3184" data-name="Path 3184" d="M755.328,757.138v.01a.947.947,0,0,0,.282.7.912.912,0,0,0,.669.282.93.93,0,0,0,.672-.289c.027-.027.077-.087.155-.181l.484.171a1.6,1.6,0,0,1-.252.323,1.5,1.5,0,0,1-2.107.007,1.416,1.416,0,0,1,0-2.033,1.424,1.424,0,0,1,1.048-.427,1.44,1.44,0,0,1,1.058.433,1.37,1.37,0,0,1,.373,1Zm.091-.45h1.71a.8.8,0,0,0-.85-.531A.813.813,0,0,0,755.418,756.688Z" transform="translate(-709.534 -716.781)" fill="#585955"/>
    <path id="Path_3185" data-name="Path 3185" d="M849.528,757.138v.01a.947.947,0,0,0,.282.7.912.912,0,0,0,.669.282.93.93,0,0,0,.672-.289c.027-.027.077-.087.155-.181l.484.171a1.6,1.6,0,0,1-.252.323,1.5,1.5,0,0,1-2.107.007,1.416,1.416,0,0,1,0-2.033,1.424,1.424,0,0,1,1.048-.427,1.44,1.44,0,0,1,1.058.433,1.37,1.37,0,0,1,.373,1Zm.091-.45h1.71a.8.8,0,0,0-.85-.531A.811.811,0,0,0,849.618,756.688Z" transform="translate(-800.569 -716.781)" fill="#585955"/>
    <path id="Path_3186" data-name="Path 3186" d="M947.617,758.7v1.949H947.1v-2.61h.517a.752.752,0,0,1,.541-.141,1.077,1.077,0,0,1,.8.3,1.023,1.023,0,0,1,.309.739v1.71h-.514v-1.687a.585.585,0,0,0-.181-.44.572.572,0,0,0-.813-.01A.652.652,0,0,0,947.617,758.7Z" transform="translate(-895.373 -718.908)" fill="#585955"/>
    <path id="Path_3187" data-name="Path 3187" d="M612.7,874.4h.517v1.8a1.01,1.01,0,0,1,.927-.514,1.432,1.432,0,0,1,1.052.427,1.424,1.424,0,0,1,0,2.033,1.429,1.429,0,0,1-1.052.43,1,1,0,0,1-.927-.517v.447H612.7Zm.517,2.513v.44a.939.939,0,0,0,1.592.477,1.006,1.006,0,0,0,0-1.4.906.906,0,0,0-.665-.286.927.927,0,0,0-.675.292A.892.892,0,0,0,613.217,876.913Z" transform="translate(-572.208 -831.494)" fill="#585955"/>
    <path id="Path_3188" data-name="Path 3188" d="M713.76,917.743a.865.865,0,0,0-.548.282.842.842,0,0,0-.195.571v1.371H712.5v-2.61h.521v.37a.713.713,0,0,1,.49-.427Z" transform="translate(-668.655 -872.952)" fill="#585955"/>
    <path id="Path_3189" data-name="Path 3189" d="M762.078,912.6a1.427,1.427,0,0,1,1.052.427,1.4,1.4,0,0,1,.427,1.018,1.387,1.387,0,0,1-.427,1.015,1.5,1.5,0,0,1-2.1,0,1.416,1.416,0,0,1,0-2.033A1.437,1.437,0,0,1,762.078,912.6Zm-.669.742a.968.968,0,0,0-.282.706.947.947,0,0,0,.282.7.929.929,0,0,0,1.334,0,1.006,1.006,0,0,0,0-1.4.922.922,0,0,0-1.334,0Z" transform="translate(-715.139 -868.41)" fill="#585955"/>
    <path id="Path_3190" data-name="Path 3190" d="M858.08,919l-.887,2.61h-.363l-.44-1.236-.44,1.236h-.37L854.7,919h.558l.524,1.623.44-1.216h.349l.437,1.216.521-1.623Z" transform="translate(-806.077 -874.595)" fill="#585955"/>
    <path id="Path_3191" data-name="Path 3191" d="M964.217,915.6v1.949H963.7v-2.61h.517a.752.752,0,0,1,.541-.141,1.076,1.076,0,0,1,.8.3,1.023,1.023,0,0,1,.309.739v1.71h-.514v-1.687a.585.585,0,0,0-.181-.44.572.572,0,0,0-.813-.01A.547.547,0,0,0,964.217,915.6Z" transform="translate(-911.415 -870.536)" fill="#585955"/>
    <path id="Path_3192" data-name="Path 3192" d="M683.584,871.649h-12.71a.175.175,0,0,1,0-.349h12.71a.175.175,0,0,1,0,.349Z" transform="translate(-628.259 -828.498)" fill="#585955"/>
    <path id="Path_3193" data-name="Path 3193" d="M215.028,376.155a2.581,2.581,0,0,1,.323,4.025c-.954.954-1.566.944-2.513,0a2.55,2.55,0,0,1-.611-2.876c.48-1.078,1.673-1.932,2.8-1.149Z" transform="translate(-184.984 -349.694)" fill="#898f65"/>
    <path id="Path_3194" data-name="Path 3194" d="M229.44,631.468l1,4.6a1.564,1.564,0,0,1-3.057.665,1.585,1.585,0,0,1,0-.665l1-4.6a.542.542,0,0,1,1.055,0Z" transform="translate(-199.803 -596.319)" fill="#653a2b"/>
    <path id="Path_3195" data-name="Path 3195" d="M556.4,18.744a8.465,8.465,0,0,0-5.389,1.932V15.519a1.519,1.519,0,1,0-3.037,0v10.6a8.342,8.342,0,0,0-.077,1.129,8.507,8.507,0,1,0,8.5-8.507Zm0,13.973a5.466,5.466,0,1,1,5.466-5.466A5.473,5.473,0,0,1,556.4,32.717Z" transform="translate(-509.585)" fill="#585955"/>
  </g>
</svg>
