<svg xmlns="http://www.w3.org/2000/svg" width="385.501" height="360.53" viewBox="0 0 385.501 360.53">
  <path id="Intersection_5" data-name="Intersection 5" d="M-1267.566,360.53v-8.241h6.305v8.241Zm-81.657,0a68.325,68.325,0,0,0,9.472-31.826V234.368a103.552,103.552,0,0,1-23.175,14.739c-2.622,1.229-5.324,2.335-8.025,3.316a18.028,18.028,0,0,1-2.989.246,18.881,18.881,0,0,1-18.876-18.875,18.82,18.82,0,0,1,9.171-16.174c1.761-.654,3.481-1.351,5.16-2.129a66.794,66.794,0,0,0,38.693-57.446V151.9a66.693,66.693,0,0,0-66.535-63.546,66.745,66.745,0,0,0-63.839,47.559V73.306a103.146,103.146,0,0,1,63.839-22.043,103.817,103.817,0,0,1,103.59,99.7v.9c.041,1.023.081,2.048.081,3.071s-.04,2.048-.081,3.071V313.473a54.715,54.715,0,0,1,.081,7.288c-.04,1.065-.081,2.17-.081,3.317v4.3a24.573,24.573,0,0,1-.286,3.44,107.611,107.611,0,0,1-5.96,28.714Zm107.534-5.252a2.113,2.113,0,0,1-2.128-2.129,2.114,2.114,0,0,1,2.128-2.129h154.9a2.115,2.115,0,0,1,2.128,2.129,2.114,2.114,0,0,1-2.128,2.129Zm-22.519-12.9a39.7,39.7,0,0,1-2.989-3.6l6.018-2.211a18.626,18.626,0,0,0,1.721,1.966,10.807,10.807,0,0,0,8.025,3.4c6.55,0,10.277-3.071,11.137-9.213-2.17,4.135-5.814,6.224-10.891,6.224a17.4,17.4,0,0,1-12.776-5.242,16.939,16.939,0,0,1-5.241-12.365,16.963,16.963,0,0,1,5.241-12.406,17.359,17.359,0,0,1,12.776-5.2,12.332,12.332,0,0,1,11.342,6.305v-3.726h6.305V330.26a16.272,16.272,0,0,1-5.037,12,17.4,17.4,0,0,1-12.856,5.323A17.294,17.294,0,0,1-1264.208,342.38Zm4.914-29.644a11.8,11.8,0,0,0-3.44,8.6,11.705,11.705,0,0,0,3.44,8.558,11.154,11.154,0,0,0,8.147,3.479,11.33,11.33,0,0,0,8.19-3.521,11.135,11.135,0,0,0,3.112-5.773v-5.445a11.571,11.571,0,0,0-3.276-5.979,10.808,10.808,0,0,0-8.026-3.4A11.063,11.063,0,0,0-1259.294,312.736Zm93.722,20.923a16.945,16.945,0,0,1-5.24-12.365,16.969,16.969,0,0,1,5.24-12.406,17.36,17.36,0,0,1,12.775-5.2,17.547,17.547,0,0,1,12.9,5.282c3.029,3.071,4.544,7.165,4.544,12.243h-29.029v.122a11.545,11.545,0,0,0,3.44,8.517,11.109,11.109,0,0,0,8.148,3.439,11.331,11.331,0,0,0,8.189-3.521c.328-.328.941-1.065,1.883-2.211l5.9,2.088a19.527,19.527,0,0,1-3.071,3.931,17.428,17.428,0,0,1-12.9,5.323A17.4,17.4,0,0,1-1165.573,333.659Zm2.293-17.934h20.841c-1.475-4.3-4.954-6.469-10.359-6.469C-1158.243,309.255-1161.764,311.426-1163.28,315.725Zm-40.863,17.934a16.943,16.943,0,0,1-5.241-12.365,16.967,16.967,0,0,1,5.241-12.406,17.356,17.356,0,0,1,12.776-5.2,17.545,17.545,0,0,1,12.9,5.282c3.03,3.071,4.545,7.165,4.545,12.243h-29.03v.122a11.551,11.551,0,0,0,3.438,8.517,11.118,11.118,0,0,0,8.15,3.439,11.325,11.325,0,0,0,8.187-3.521c.329-.328.943-1.065,1.885-2.211l5.9,2.088a19.461,19.461,0,0,1-3.071,3.931,17.426,17.426,0,0,1-12.9,5.323A17.391,17.391,0,0,1-1204.142,333.659Zm2.293-17.934h20.841c-1.474-4.3-4.955-6.469-10.359-6.469C-1196.813,309.255-1200.293,311.426-1201.849,315.725Zm91.307,22.4V317.568a7.131,7.131,0,0,0-2.211-5.364,6.92,6.92,0,0,0-4.995-2.129,6.939,6.939,0,0,0-4.913,2.006,7.951,7.951,0,0,0-1.679,2.293v23.748h-6.305V306.308h6.305c1.064-1.147,3.276-1.72,6.592-1.72a13.118,13.118,0,0,1,9.7,3.685,12.468,12.468,0,0,1,3.768,9.008v20.841Zm-117.8,0V306.308h6.306v4.5c.941-2.5,2.908-4.217,5.979-5.2l3.071,5.405a10.541,10.541,0,0,0-6.674,3.439,10.256,10.256,0,0,0-2.375,6.961v16.706Zm-196.575-16.214a19.334,19.334,0,0,1,0-8.107l12.2-56.053c1.557-6.838,11.384-6.756,12.857,0l12.2,56.053c2.533,14.392-8.184,23.036-18.908,23.038C-1414.391,336.839-1422.221,332.237-1424.917,321.908ZM-1294.1,161.486a101.927,101.927,0,0,1,.941-13.757V18.507A18.514,18.514,0,0,1-1274.649,0a18.515,18.515,0,0,1,18.508,18.507V81.357a103.162,103.162,0,0,1,65.675-23.543,103.858,103.858,0,0,1,103.713,103.672,103.8,103.8,0,0,1-103.672,103.672A103.8,103.8,0,0,1-1294.1,161.486Zm37.014,0a66.7,66.7,0,0,0,66.617,66.617,66.673,66.673,0,0,0,66.617-66.617,66.7,66.7,0,0,0-66.617-66.617A66.7,66.7,0,0,0-1257.084,161.486ZM-1442.2,252.22c-2.088-.778-4.176-1.6-6.223-2.539a103.9,103.9,0,0,1-21.748-13.111V174.042a66.85,66.85,0,0,0,37.225,41.983c1.065.491,2.17.942,3.276,1.351a18.723,18.723,0,0,1,10.03,16.542,18.733,18.733,0,0,1-18.711,18.712A19.79,19.79,0,0,1-1442.2,252.22Zm20.6-51.3c-9.54-9.458-12.817-22.806-7.453-35.049,5.856-13.144,20.391-23.543,34.149-14,16.664,12.038,18.794,34.68,3.931,49.052-5.8,5.8-10.56,8.674-15.307,8.675C-1411.052,209.591-1415.812,206.684-1421.6,200.916Z" transform="translate(1470.166)" fill="#585955" opacity="0.11"/>
</svg>
