<?xml version="1.0" encoding="utf-8"?>
<!-- Generator: Adobe Illustrator 25.4.1, SVG Export Plug-In . SVG Version: 6.00 Build 0)  -->
<svg version="1.1" id="katman_1" xmlns="http://www.w3.org/2000/svg" xmlns:xlink="http://www.w3.org/1999/xlink" x="0px" y="0px"
	 viewBox="0 0 209 62" style="enable-background:new 0 0 209 62;" xml:space="preserve">
<style type="text/css">
	.st0{fill:#FFFFFF;}
	.st1{fill-rule:evenodd;clip-rule:evenodd;fill:#300000;}
	.st2{fill:url(#Path_00000103248769116946577560000006815983975920266163_);}
	.st3{fill:url(#Path_00000080885808242143599420000005785094472845433529_);}
	.st4{fill:url(#Path_00000096748868847134286540000002029905093214526361_);}
	.st5{fill:url(#Path_00000003074658830007808480000017249027494726165943_);}
	.st6{opacity:0.2;enable-background:new    ;}
	.st7{opacity:0.12;fill-rule:evenodd;clip-rule:evenodd;enable-background:new    ;}
	.st8{opacity:0.25;fill:#FFFFFF;enable-background:new    ;}
	.st9{fill:#300000;}
</style>
<desc>Created with Sketch.</desc>
<g id="Page-1">
	<g id="_x30_1_x5F_Home" transform="translate(-531.000000, -5404.000000)">
		<g id="Group-19" transform="translate(531.000000, 5404.000000)">
			<g id="Group-14">
				<path id="Rectangle" class="st0" d="M5.4,0h198.1c2.8,0,5,2.2,5,5V57c0,2.8-2.2,5-5,5H5.4c-2.8,0-5-2.2-5-5V5
					C0.4,2.3,2.7,0,5.4,0z"/>
				<path id="Shape" class="st1" d="M75.8,21.6v2.4h5.8c-0.1,1.2-0.5,2.2-1.3,3.1c-1.2,1.2-2.8,1.9-4.5,1.8c-3.6,0-6.5-2.9-6.5-6.5
					c0-3.6,2.9-6.5,6.5-6.5c1.6,0,3.2,0.6,4.4,1.8l1.7-1.7c-1.6-1.6-3.9-2.5-6.2-2.5c-4.9,0-8.9,4-8.9,8.9c0,4.9,4,8.9,8.9,8.9
					c2.3,0.1,4.6-0.8,6.2-2.5c1.4-1.6,2.2-3.6,2.1-5.7c0-0.5,0-1-0.1-1.5L75.8,21.6z M98,23.4c0.9-2.2,3-3.6,5.3-3.6
					c1.5,0,3,0.6,4.1,1.6c1.1,1.1,1.7,2.6,1.7,4.1c0,2.3-1.4,4.4-3.5,5.3c-2.1,0.9-4.6,0.4-6.3-1.2C97.6,28.1,97.1,25.6,98,23.4z
					 M99.9,27.2c0.6,1.3,2,2.1,3.4,2v-0.1c0.9,0,1.7-0.4,2.3-1c0.6-0.6,0.9-1.5,0.9-2.4c0-1.4-0.9-2.7-2.2-3.2
					c-1.3-0.5-2.8-0.2-3.8,0.9C99.5,24.3,99.3,25.9,99.9,27.2z M90.8,19.9c-2.3,0-4.4,1.4-5.3,3.6s-0.4,4.6,1.3,6.3
					c1.6,1.6,4.1,2.1,6.3,1.2c2.1-0.9,3.5-3,3.5-5.3c0-1.5-0.6-3-1.7-4.1C93.8,20.4,92.3,19.8,90.8,19.9L90.8,19.9z M87.4,27.2
					c0.6,1.3,2,2.1,3.4,2v-0.1c0.9,0,1.7-0.4,2.3-1s0.9-1.5,0.9-2.4c0-1.4-0.9-2.7-2.2-3.2c-1.3-0.5-2.8-0.2-3.8,0.9
					C87,24.3,86.8,25.9,87.4,27.2z M132,19.8c2.2,0.1,4.2,1.5,4.9,3.7l0.3,0.6l-7.7,3.2c0.5,1.1,1.6,1.8,2.8,1.7
					c1.1,0,2.2-0.6,2.8-1.5l2,1.3c-1.1,1.6-2.9,2.6-4.8,2.6c-1.5,0-3-0.6-4.1-1.7c-1.1-1.1-1.7-2.6-1.6-4.1c-0.1-1.5,0.5-2.9,1.5-4
					C129.1,20.5,130.5,19.9,132,19.8z M129.1,25.4c-0.1-0.8,0.2-1.7,0.8-2.3c0.6-0.6,1.4-1,2.2-1c0.9-0.1,1.7,0.4,2.1,1.2
					L129.1,25.4z M125.3,31h-2.4l0-16.9h2.5V31z M118.8,21.1L118.8,21.1c-0.9-0.9-2-1.3-3.2-1.3c-3.2,0-5.7,2.6-5.7,5.8
					c0,3.2,2.6,5.8,5.7,5.8c1.2,0.1,2.3-0.4,3.1-1.3h0.1v0.8c0,2.2-1.2,3.4-3.1,3.4c-1.3,0-2.4-0.8-2.9-2l-2.2,0.9
					c0.8,2.1,2.9,3.4,5.1,3.4c3,0,5.4-1.8,5.4-6V20.2h-2.4L118.8,21.1z M112.7,25.6c0,1.8,1.4,3.3,3.2,3.5l-0.1,0
					c0.9,0,1.7-0.4,2.3-1c0.6-0.7,0.9-1.5,0.8-2.4c0.1-0.9-0.2-1.7-0.8-2.4c-0.6-0.7-1.4-1.1-2.3-1.1
					C114.1,22.3,112.7,23.8,112.7,25.6z M148.7,14.1h-6V31h2.5v-6.4h3.5c2.9,0,5.2-2.4,5.2-5.3C154,16.4,151.7,14.1,148.7,14.1
					L148.7,14.1z M145.2,22.3h3.5v0c1.6,0,2.9-1.3,2.9-2.9c0-1.6-1.3-2.9-2.9-2.9h-3.5V22.3z M164.3,19.8c-1.9-0.1-3.7,0.9-4.5,2.6
					l2.2,0.9c0.5-0.8,1.4-1.3,2.3-1.2c1.3-0.1,2.5,0.8,2.6,2.2v0.2c-0.8-0.4-1.7-0.6-2.6-0.6c-2.4,0-4.9,1.3-4.9,3.8
					c0,1.1,0.5,2,1.3,2.7c0.8,0.7,1.8,1.1,2.9,1c1.3,0.1,2.6-0.5,3.3-1.6V31h2.4v-6.5C169.4,21.5,167.2,19.8,164.3,19.8L164.3,19.8z
					 M162,27.7c0,1,1.2,1.4,2,1.4v0c1.5-0.1,2.8-1.2,3-2.7c-0.7-0.4-1.5-0.5-2.3-0.5C163.4,25.9,162,26.4,162,27.7z M178.3,20.2
					l-2.9,7.3h-0.1l-3-7.3h-2.7l4.5,10.2l-2.5,5.7h2.6l6.8-16H178.3z M158.1,31h-2.5l0-16.9h2.5V31z"/>
				
					<linearGradient id="Path_00000018918172707196148430000018055089050179742868_" gradientUnits="userSpaceOnUse" x1="-182.2771" y1="441.7593" x2="-182.6828" y2="441.5481" gradientTransform="matrix(19.9411 0 0 -38.7785 3671.0195 17145.2031)">
					<stop  offset="0" style="stop-color:#00A0FF"/>
					<stop  offset="1.000000e-02" style="stop-color:#00A1FF"/>
					<stop  offset="0.26" style="stop-color:#00BEFF"/>
					<stop  offset="0.51" style="stop-color:#00D2FF"/>
					<stop  offset="0.76" style="stop-color:#00DFFF"/>
					<stop  offset="1" style="stop-color:#00E3FF"/>
				</linearGradient>
				<path id="Path" style="fill:url(#Path_00000018918172707196148430000018055089050179742868_);" d="M19.6,11.7
					c-0.5,0.6-0.8,1.4-0.7,2.2v34.2c0,0.8,0.2,1.6,0.7,2.2l0.1,0.1l19.1-19.2v-0.5L19.6,11.7L19.6,11.7z"/>
				
					<linearGradient id="Path_00000068636625588063012200000001799662730441947530_" gradientUnits="userSpaceOnUse" x1="-178.3796" y1="421.9551" x2="-180.7628" y2="421.9551" gradientTransform="matrix(15.6495 0 0 -13.2512 2862.657 5622.4116)">
					<stop  offset="0" style="stop-color:#FFE000"/>
					<stop  offset="0.41" style="stop-color:#FFBD00"/>
					<stop  offset="0.78" style="stop-color:#FFA500"/>
					<stop  offset="1" style="stop-color:#FF9C00"/>
				</linearGradient>
				
					<path id="Path_00000095333671536247954190000008938547728408939905_" style="fill:url(#Path_00000068636625588063012200000001799662730441947530_);" d="
					M45.2,37.6l-6.3-6.4v-0.5l6.3-6.4l0.2,0.1l7.6,4.3c2.2,1.2,2.2,3.2,0,4.5l-7.6,4.3L45.2,37.6z"/>
				
					<linearGradient id="Path_00000149363773730664831360000000525287245358069640_" gradientUnits="userSpaceOnUse" x1="-184.6922" y1="431.8745" x2="-185.6486" y2="430.6251" gradientTransform="matrix(25.7177 0 0 -19.9168 4786.6089 8641.1436)">
					<stop  offset="0" style="stop-color:#FF3A44"/>
					<stop  offset="1" style="stop-color:#C31162"/>
				</linearGradient>
				
					<path id="Path_00000091710086890780519790000005111545907369924514_" style="fill:url(#Path_00000149363773730664831360000000525287245358069640_);" d="
					M45.3,37.5L38.8,31L19.6,50.3c0.9,0.8,2.3,0.8,3.2,0.1L45.3,37.5z"/>
				
					<linearGradient id="Path_00000080165949726202568830000012634784768970170781_" gradientUnits="userSpaceOnUse" x1="-184.9621" y1="432.0905" x2="-184.5361" y2="431.5335" gradientTransform="matrix(25.7486 0 0 -19.9297 4792.5386 8627.0693)">
					<stop  offset="0" style="stop-color:#32A071"/>
					<stop  offset="7.000000e-02" style="stop-color:#2DA771"/>
					<stop  offset="0.48" style="stop-color:#15CF74"/>
					<stop  offset="0.8" style="stop-color:#06E775"/>
					<stop  offset="1" style="stop-color:#00F076"/>
				</linearGradient>
				
					<path id="Path_00000133495924961876894060000015012915613607051161_" style="fill:url(#Path_00000080165949726202568830000012634784768970170781_);" d="
					M45.3,24.5L22.8,11.6c-1-0.8-2.3-0.7-3.2,0.1L38.8,31L45.3,24.5z"/>
				<path id="Path_00000051351004515882514780000014574740109753101735_" class="st6" d="M45.2,37.4L22.8,50.2
					c-0.9,0.7-2.2,0.7-3.1,0l-0.1,0.1l0.1,0.1c0.9,0.7,2.2,0.7,3.1,0l22.5-12.8L45.2,37.4z"/>
				<path id="Shape_00000039852393760440579200000012869187114455861932_" class="st7" d="M45.2,37.4l7.7-4.4c0.8-0.4,1.4-1.1,1.5-2
					c-0.1,1-0.7,1.8-1.5,2.2l-7.6,4.3L45.2,37.4z M18.9,48.2c0,0.7,0.3,1.3,0.7,1.9l0.1,0.1l-0.1,0.1C19.1,49.7,18.9,49,18.9,48.2z
					 M18.9,48.2C18.9,48.2,18.9,48.2,18.9,48.2l0-0.3C18.9,48,18.9,48.1,18.9,48.2z"/>
				<path id="Path_00000106142471402440073800000007085477595213352098_" class="st8" d="M22.8,11.8L52.9,29c0.8,0.4,1.4,1.1,1.5,2
					c-0.1-1-0.7-1.8-1.5-2.2L22.8,11.6c-2.2-1.2-3.9-0.2-3.9,2.3v0.2C19,11.7,20.7,10.6,22.8,11.8L22.8,11.8z"/>
			</g>
		</g>
	</g>
</g>
<g>
	<path class="st9" d="M66.4,44v-5.9h2.5v6.2c0,2.2,0.7,2.9,1.9,2.9c1.2,0,2-0.7,2-2.9v-6.2h2.4V44c0,3.7-1.5,5.3-4.4,5.3
		C67.9,49.3,66.4,47.7,66.4,44z M67.7,36c0-0.7,0.5-1.2,1.2-1.2s1.2,0.5,1.2,1.2s-0.5,1.2-1.2,1.2S67.7,36.7,67.7,36z M71.5,36
		c0-0.7,0.5-1.2,1.2-1.2c0.7,0,1.2,0.5,1.2,1.2s-0.5,1.2-1.2,1.2C72,37.2,71.5,36.7,71.5,36z"/>
	<path class="st9" d="M77.1,47.8l3.5-5.1h-3.1v-2h6.3V42l-3.5,5.1h3.7v2h-6.8V47.8z"/>
	<path class="st9" d="M84.7,44.9c0-2.7,2-4.4,4-4.4c2.4,0,3.6,1.7,3.6,4c0,0.5-0.1,0.9-0.1,1.1h-5c0.2,1.2,1.1,1.8,2.2,1.8
		c0.6,0,1.2-0.2,1.8-0.6l0.8,1.5c-0.9,0.6-2,1-3,1C86.6,49.3,84.7,47.7,84.7,44.9z M90.1,44c0-0.9-0.4-1.6-1.4-1.6
		c-0.8,0-1.5,0.5-1.6,1.6H90.1z"/>
	<path class="st9" d="M94,40.7h2l0.2,1.5h0.1c0.6-1.1,1.5-1.7,2.4-1.7c0.5,0,0.8,0.1,1,0.2l-0.4,2.2c-0.3-0.1-0.5-0.1-0.9-0.1
		c-0.6,0-1.4,0.4-1.9,1.6v4.9H94V40.7z"/>
	<path class="st9" d="M100.6,38.2c0-0.8,0.6-1.3,1.4-1.3c0.8,0,1.4,0.5,1.4,1.3c0,0.8-0.6,1.3-1.4,1.3
		C101.2,39.5,100.6,38.9,100.6,38.2z M100.8,40.7h2.5v8.4h-2.5V40.7z"/>
	<path class="st9" d="M105.5,40.7h2l0.2,1.1h0.1c0.7-0.7,1.6-1.3,2.7-1.3c1.8,0,2.6,1.3,2.6,3.4v5.2h-2.5v-4.9c0-1.2-0.3-1.6-1-1.6
		c-0.6,0-1,0.3-1.6,0.8v5.7h-2.5V40.7z"/>
	<path class="st9" d="M114.7,44.9c0-2.8,1.7-4.4,3.5-4.4c0.9,0,1.5,0.3,2.1,0.9l-0.1-1.3v-2.9h2.5v11.9h-2l-0.2-0.8h-0.1
		c-0.6,0.6-1.4,1-2.2,1C116.1,49.3,114.7,47.7,114.7,44.9z M120.2,46.5v-3.5c-0.4-0.4-0.9-0.5-1.4-0.5c-0.8,0-1.5,0.7-1.5,2.4
		c0,1.7,0.6,2.4,1.5,2.4C119.4,47.3,119.8,47.1,120.2,46.5z"/>
	<path class="st9" d="M124.4,44.9c0-2.7,2-4.4,4-4.4c2.4,0,3.6,1.7,3.6,4c0,0.5-0.1,0.9-0.1,1.1h-5c0.2,1.2,1.1,1.8,2.2,1.8
		c0.6,0,1.2-0.2,1.8-0.6l0.8,1.5c-0.9,0.6-2,1-3,1C126.3,49.3,124.4,47.7,124.4,44.9z M129.9,44c0-0.9-0.4-1.6-1.4-1.6
		c-0.8,0-1.5,0.5-1.6,1.6H129.9z"/>
	<path class="st9" d="M133.7,40.7h2l0.2,1.1h0.1c0.7-0.7,1.6-1.3,2.7-1.3c1.8,0,2.6,1.3,2.6,3.4v5.2h-2.5v-4.9c0-1.2-0.3-1.6-1-1.6
		c-0.6,0-1,0.3-1.6,0.8v5.7h-2.5V40.7z"/>
	<path class="st9" d="M146.9,35.9c0-0.8,0.6-1.3,1.4-1.3c0.8,0,1.4,0.5,1.4,1.3c0,0.8-0.6,1.3-1.4,1.3
		C147.5,37.2,146.9,36.7,146.9,35.9z M147.1,38.1h2.5v11.1h-2.5V38.1z"/>
	<path class="st9" d="M152,40.7h2l0.2,1.1h0.1c0.7-0.7,1.6-1.3,2.7-1.3c1.8,0,2.6,1.3,2.6,3.4v5.2h-2.5v-4.9c0-1.2-0.3-1.6-1-1.6
		c-0.6,0-1,0.3-1.6,0.8v5.7H152V40.7z"/>
	<path class="st9" d="M161.3,44.9c0-2.8,1.7-4.4,3.5-4.4c0.9,0,1.5,0.3,2.1,0.9l-0.1-1.3v-2.9h2.5v11.9h-2l-0.2-0.8H167
		c-0.6,0.6-1.4,1-2.2,1C162.6,49.3,161.3,47.7,161.3,44.9z M166.7,46.5v-3.5c-0.4-0.4-0.9-0.5-1.4-0.5c-0.8,0-1.5,0.7-1.5,2.4
		c0,1.7,0.6,2.4,1.5,2.4C165.9,47.3,166.3,47.1,166.7,46.5z"/>
	<path class="st9" d="M171.2,38.2c0-0.8,0.6-1.3,1.4-1.3c0.8,0,1.4,0.5,1.4,1.3c0,0.8-0.6,1.3-1.4,1.3
		C171.8,39.5,171.2,38.9,171.2,38.2z M171.4,40.7h2.5v8.4h-2.5V40.7z"/>
	<path class="st9" d="M176.1,40.7h2l0.2,1.5h0.1c0.6-1.1,1.5-1.7,2.4-1.7c0.5,0,0.8,0.1,1,0.2l-0.4,2.2c-0.3-0.1-0.5-0.1-0.9-0.1
		c-0.6,0-1.4,0.4-1.9,1.6v4.9h-2.5V40.7z"/>
</g>
</svg>
