<?xml version="1.0" encoding="utf-8"?>
<!-- Generator: Adobe Illustrator 26.0.2, SVG Export Plug-In . SVG Version: 6.00 Build 0)  -->
<svg version="1.1" id="Layer_1" xmlns="http://www.w3.org/2000/svg" xmlns:xlink="http://www.w3.org/1999/xlink" x="0px" y="0px"
	 viewBox="0 0 2002.1 467.7" style="enable-background:new 0 0 2002.1 467.7;" xml:space="preserve">
<style type="text/css">
	.st0{fill:#898F65;}
	.st1{fill:#585955;}
	.st2{fill:#653A2B;}
</style>
<path class="st0" d="M172.3,282.1C159.8,306,138.9,318,109.6,318c-29,0-53.5-10-73.6-30.1C15.9,267.7,5.9,244,5.9,216.6
	c0-27.6,10-51.4,30.1-71.4c20.1-20,44.6-29.9,73.6-29.9c29.1,0,50.9,12.1,65.3,36.3v-21.4h36.3v137.8c0,26.8-9.7,49.9-29,69.1
	c-20.3,20.4-45,30.6-74.1,30.6c-29.1,0-53.6-9.9-73.5-29.8c-4.5-4.7-10.3-11.6-17.2-20.8l34.7-12.6c4.7,5.9,7.9,9.6,9.8,11.2
	c13,13.1,28.4,19.6,46.3,19.6C145.8,335.2,167.2,317.5,172.3,282.1z M174.7,201.2c-2.7-13-8.9-24.4-18.8-34.5
	c-13-13.1-28.4-19.6-46.3-19.6c-18,0-33.7,6.7-46.9,20c-13.2,13.4-19.8,29.8-19.8,49.5c0,19.5,6.6,35.9,19.8,49.2
	c13.2,13.3,28.8,19.9,46.9,19.9c17.9,0,33.6-6.7,47.1-20.2c9.3-9.3,15.4-20.4,18-33.2V201.2z"/>
<path class="st0" d="M329.4,157.3c-16.6,2.5-29.4,9.1-38.5,19.7c-9.1,10.6-13.6,23.9-13.6,40v96.1H241V130.1h36.3v26
	c5.3-14.3,16.8-24.2,34.5-29.8L329.4,157.3z"/>
<path class="st0" d="M387.2,216v0.6c0,19.5,6.6,35.9,19.8,49.1c13.2,13.2,28.8,19.8,46.9,19.8c17.9,0,33.6-6.7,47.1-20.2
	c1.9-1.9,5.5-6.1,10.8-12.6l34.1,12c-5.1,8.5-11,16.1-17.6,22.6C508,307.7,483.2,318,453.9,318c-29,0-53.5-10-73.6-30.1
	c-20.1-20.1-30.1-43.8-30.1-71.2c0-27.6,10-51.5,30.1-71.5c20.1-20,44.6-30,73.6-30c29.2,0,54,10.1,74.3,30.4
	c17.5,17.6,26.2,41.1,26.2,70.5H387.2z M393.7,184.4h120c-8.5-24.8-28.4-37.3-59.7-37.3C422.6,147.1,402.5,159.5,393.7,184.4z"/>
<path class="st0" d="M609.2,216v0.6c0,19.5,6.6,35.9,19.8,49.1c13.2,13.2,28.8,19.8,46.9,19.8c17.9,0,33.6-6.7,47.1-20.2
	c1.9-1.9,5.5-6.1,10.8-12.6l34.1,12c-5.1,8.5-11,16.1-17.6,22.6c-20.3,20.4-45.1,30.6-74.3,30.6c-29,0-53.5-10-73.6-30.1
	c-20.1-20.1-30.1-43.8-30.1-71.2c0-27.6,10-51.5,30.1-71.5c20.1-20,44.6-30,73.6-30c29.2,0,54,10.1,74.3,30.4
	c17.5,17.6,26.2,41.1,26.2,70.5H609.2z M615.6,184.4h120c-8.5-24.8-28.4-37.3-59.7-37.3C644.5,147.1,624.4,159.5,615.6,184.4z"/>
<path class="st0" d="M839.7,176.5v136.6h-36.3V130.1h36.3c6.1-6.7,18.8-10,38.1-10c23.1,0,41.7,7.1,55.9,21.2s21.4,31.4,21.6,51.9
	v120h-36.1V194.8c0-12.4-4.2-22.7-12.6-30.9c-8.4-8.2-18-12.3-28.8-12.3c-10.7,0-20.1,3.9-28.2,11.6
	C844.9,167.8,841.6,172.3,839.7,176.5z"/>
<path class="st1" d="M1014.7,24.9h36.3v126.2c14.3-24,36-36.1,65.1-36.1c29.1,0,53.7,10,73.7,30c20,20,30,43.9,30,71.5
	c0,27.4-10,51.1-30,71.2c-20,20.1-44.6,30.1-73.7,30.1c-29.1,0-50.8-12.1-65.1-36.3v31.4h-36.3V24.9z M1050.9,201.2V232
	c2.4,12.8,8.6,24.2,18.6,34.1c13.1,13,28.6,19.4,46.5,19.4c17.9,0,33.5-6.6,46.8-19.8c13.3-13.2,19.9-29.6,19.9-49.1
	c0-19.6-6.6-36.1-19.9-49.5c-13.3-13.4-28.9-20-46.8-20c-17.9,0-33.6,6.8-47.3,20.4C1059.3,177,1053.3,188.2,1050.9,201.2z"/>
<path class="st1" d="M1338.3,157.3c-16.6,2.5-29.4,9.1-38.5,19.7c-9.1,10.6-13.6,23.9-13.6,40v96.1H1250V130.1h36.3v26
	c5.3-14.3,16.8-24.2,34.5-29.8L1338.3,157.3z"/>
<path class="st1" d="M1466.9,115.1c29.2,0,53.8,10,73.7,30c19.9,20,29.8,43.9,29.8,71.5c0,27.4-9.9,51.1-29.8,71.2
	c-19.9,20.1-44.5,30.1-73.7,30.1c-29,0-53.5-10-73.6-30.1c-20.1-20.1-30.1-43.8-30.1-71.2c0-27.6,10-51.5,30.1-71.5
	C1413.4,125.1,1437.9,115.1,1466.9,115.1z M1420.1,167.1c-13.2,13.4-19.8,29.8-19.8,49.5c0,19.5,6.6,35.9,19.8,49.1
	c13.2,13.2,28.8,19.8,46.9,19.8c17.9,0,33.5-6.6,46.8-19.8c13.3-13.2,19.9-29.6,19.9-49.1c0-19.6-6.6-36.1-19.9-49.5
	c-13.3-13.4-28.9-20-46.8-20C1448.9,147.1,1433.3,153.8,1420.1,167.1z"/>
<path class="st1" d="M1822.3,130.1L1760,313.1h-25.4l-31-86.7l-30.8,86.7h-25.8l-61.9-183.1h39.1l36.7,113.8l30.8-85.3h24.4
	l30.6,85.3l36.5-113.8H1822.3z"/>
<path class="st1" d="M1878.1,176.5v136.6h-36.3V130.1h36.3c6.1-6.7,18.8-10,38.1-10c23.1,0,41.7,7.1,55.9,21.2s21.4,31.4,21.6,51.9
	v120h-36.1V194.8c0-12.4-4.2-22.7-12.6-30.9c-8.4-8.2-18-12.3-28.8-12.3c-10.7,0-20.1,3.9-28.2,11.6
	C1883.3,167.8,1880,172.3,1878.1,176.5z"/>
<path class="st0" d="M1724.2,15.7c30.1,21.8,34,62.7,7.1,88.7c-21,21-34.5,20.8-55.3,0c-17.3-17.1-23.2-41.2-13.5-63.3
	C1673,17.2,1699.4-1.6,1724.2,15.7L1724.2,15.7z"/>
<path class="st2" d="M1717.8,317l22.1,101.3c8,45-55.8,58.9-67.3,14.7c-1.1-4.9-1-10,0-14.7l22.1-101.3
	C1697.3,304.6,1715.1,304.7,1717.8,317L1717.8,317z"/>
</svg>
