<svg xmlns="http://www.w3.org/2000/svg" width="9.992" height="10.077" viewBox="0 0 9.992 10.077">
  <g id="GREEN_BROWN_DİKEY_LOGO" transform="translate(-20.6 -14)">
    <path id="Path_3181" data-name="Path 3181" d="M25.469,145.36v-3.652c0-.024,0-.048,0-.072s0-.048,0-.072v-.021a2.435,2.435,0,1,0-3.422,2.319c.048.022.1.041.146.06a.465.465,0,0,0,.09.01.439.439,0,0,0,.2-.828c-.026-.01-.052-.02-.077-.032a1.565,1.565,0,1,1,2.188-1.506v.144a1.569,1.569,0,0,1-.909,1.35c-.039.018-.08.035-.121.05a.443.443,0,0,0,.228.823.424.424,0,0,0,.07-.006c.063-.023.127-.049.189-.078a2.432,2.432,0,0,0,.544-.346v2.216a1.523,1.523,0,0,1-1.519,1.483,1.559,1.559,0,0,1-1.555-1.4c0-.011,0-.021,0-.032a.439.439,0,0,0-.013-.107h0a.44.44,0,0,0-.865.058h0a.424.424,0,0,0,0,.05.435.435,0,0,0,.011.094,2.436,2.436,0,0,0,2.424,2.209,2.336,2.336,0,0,0,1.7-.728,2.484,2.484,0,0,0,.682-1.553.576.576,0,0,0,.007-.081v-.1c0-.027,0-.053,0-.078A1.281,1.281,0,0,0,25.469,145.36Z" transform="translate(0 -123.996)" fill="#585955"/>
    <path id="Path_3182" data-name="Path 3182" d="M609.379,756.481a.267.267,0,0,1-.256.146.409.409,0,0,1-.3-.123.406.406,0,0,1,0-.582.408.408,0,0,1,.3-.122.289.289,0,0,1,.266.148v-.088h.148v.563a.382.382,0,0,1-.118.282.428.428,0,0,1-.6,0,.906.906,0,0,1-.07-.085l.141-.052a.429.429,0,0,0,.04.046.254.254,0,0,0,.189.08A.232.232,0,0,0,609.379,756.481Zm.01-.331a.271.271,0,0,0-.077-.141.254.254,0,0,0-.189-.08.26.26,0,0,0-.191.082.292.292,0,0,0,0,.4.262.262,0,0,0,.191.082.266.266,0,0,0,.192-.083.261.261,0,0,0,.073-.136Z" transform="translate(-582.443 -734.665)" fill="#585955"/>
    <path id="Path_3183" data-name="Path 3183" d="M708.861,760.527a.248.248,0,0,0-.157.081.241.241,0,0,0-.056.164v.392H708.5v-.747h.148v.106a.2.2,0,0,1,.14-.122Z" transform="translate(-681.283 -739.22)" fill="#585955"/>
    <path id="Path_3184" data-name="Path 3184" d="M754.951,756.112v0a.271.271,0,0,0,.081.2.261.261,0,0,0,.191.081.266.266,0,0,0,.192-.083c.008-.008.022-.025.044-.052l.138.049a.454.454,0,0,1-.072.092.428.428,0,0,1-.6,0,.405.405,0,0,1,0-.582.408.408,0,0,1,.3-.122.412.412,0,0,1,.3.124.392.392,0,0,1,.107.288Zm.026-.129h.49a.228.228,0,0,0-.243-.152A.233.233,0,0,0,754.977,755.983Z" transform="translate(-727.138 -734.565)" fill="#585955"/>
    <path id="Path_3185" data-name="Path 3185" d="M849.151,756.112v0a.271.271,0,0,0,.081.2.261.261,0,0,0,.191.081.266.266,0,0,0,.192-.083c.008-.008.022-.025.044-.052l.139.049a.459.459,0,0,1-.072.092.429.429,0,0,1-.6,0,.405.405,0,0,1,0-.582.408.408,0,0,1,.3-.122.412.412,0,0,1,.3.124.392.392,0,0,1,.107.288Zm.026-.129h.49a.228.228,0,0,0-.243-.152A.232.232,0,0,0,849.177,755.983Z" transform="translate(-820.432 -734.565)" fill="#585955"/>
    <path id="Path_3186" data-name="Path 3186" d="M947.248,758.13v.558H947.1v-.747h.148a.215.215,0,0,1,.155-.04.308.308,0,0,1,.228.087.293.293,0,0,1,.089.212v.49h-.147V758.2a.168.168,0,0,0-.052-.126.164.164,0,0,0-.233,0A.184.184,0,0,0,947.248,758.13Z" transform="translate(-917.588 -736.744)" fill="#585955"/>
    <path id="Path_3187" data-name="Path 3187" d="M612.7,874.4h.148v.515a.289.289,0,0,1,.265-.147.41.41,0,0,1,.3.122.408.408,0,0,1,0,.582.409.409,0,0,1-.3.123.286.286,0,0,1-.265-.148v.128H612.7Zm.148.72v.126a.269.269,0,0,0,.456.137.288.288,0,0,0,0-.4.26.26,0,0,0-.19-.082.265.265,0,0,0-.193.084A.255.255,0,0,0,612.848,875.12Z" transform="translate(-586.405 -852.124)" fill="#585955"/>
    <path id="Path_3188" data-name="Path 3188" d="M712.861,917.427a.247.247,0,0,0-.157.081.241.241,0,0,0-.056.164v.392H712.5v-.747h.149v.106a.2.2,0,0,1,.141-.122Z" transform="translate(-685.245 -894.611)" fill="#585955"/>
    <path id="Path_3189" data-name="Path 3189" d="M761.023,912.6a.408.408,0,0,1,.3.122.4.4,0,0,1,.122.291.4.4,0,0,1-.122.29.428.428,0,0,1-.6,0,.405.405,0,0,1,0-.582A.411.411,0,0,1,761.023,912.6Zm-.191.213a.277.277,0,0,0-.081.2.271.271,0,0,0,.081.2.266.266,0,0,0,.382,0,.288.288,0,0,0,0-.4.264.264,0,0,0-.382,0Z" transform="translate(-732.882 -889.956)" fill="#585955"/>
    <path id="Path_3190" data-name="Path 3190" d="M855.668,919l-.254.747h-.1l-.126-.354-.126.354h-.106L854.7,919h.16l.15.465.126-.348h.1l.125.348.149-.465Z" transform="translate(-826.077 -896.295)" fill="#585955"/>
    <path id="Path_3191" data-name="Path 3191" d="M963.848,915.03v.558H963.7v-.747h.148a.215.215,0,0,1,.155-.04.308.308,0,0,1,.228.087.293.293,0,0,1,.089.212v.49h-.147V915.1a.168.168,0,0,0-.052-.126.164.164,0,0,0-.233,0A.155.155,0,0,0,963.848,915.03Z" transform="translate(-934.028 -892.135)" fill="#585955"/>
    <path id="Path_3192" data-name="Path 3192" d="M674.389,871.4H670.75a.05.05,0,1,1,0-.1h3.639a.05.05,0,1,1,0,.1Z" transform="translate(-643.847 -849.054)" fill="#585955"/>
    <path id="Path_3193" data-name="Path 3193" d="M212.877,375.938a.739.739,0,0,1,.092,1.152c-.273.273-.448.27-.719,0a.73.73,0,0,1-.175-.823c.138-.309.479-.553.8-.329Z" transform="translate(-189.573 -358.37)" fill="#898f65"/>
    <path id="Path_3194" data-name="Path 3194" d="M227.947,631.17l.287,1.317a.448.448,0,0,1-.875.19.455.455,0,0,1,0-.19l.287-1.317a.155.155,0,0,1,.3,0Z" transform="translate(-204.76 -611.114)" fill="#653a2b"/>
    <path id="Path_3195" data-name="Path 3195" d="M550.335,15.358a2.424,2.424,0,0,0-1.543.553V14.435a.435.435,0,0,0-.87,0v3.036a2.383,2.383,0,0,0-.022.323,2.436,2.436,0,1,0,2.435-2.436Zm0,4a1.565,1.565,0,1,1,1.565-1.565A1.567,1.567,0,0,1,550.335,19.359Z" transform="translate(-522.228)" fill="#585955"/>
  </g>
</svg>
