<svg xmlns="http://www.w3.org/2000/svg" width="83.388" height="514.234" viewBox="0 0 83.388 514.234">
  <g id="Group_164" data-name="Group 164" transform="translate(2051.488 -221.13) rotate(90)" opacity="0.11">
    <path id="Path_202" data-name="Path 202" d="M649.189,796.4c-3.04,5.792-8.144,8.717-15.255,8.717a24.362,24.362,0,0,1-17.893-7.341,24.17,24.17,0,0,1,0-34.7,24.311,24.311,0,0,1,17.893-7.284c7.054,0,12.388,2.925,15.886,8.832v-5.219h8.832v33.55a22.791,22.791,0,0,1-7.054,16.8,25.548,25.548,0,0,1-35.9.172,55.393,55.393,0,0,1-4.187-5.047l8.43-3.1a25.839,25.839,0,0,0,2.409,2.753,15.135,15.135,0,0,0,11.241,4.76C642.766,809.308,647.985,805.007,649.189,796.4Zm.631-19.729a16.2,16.2,0,0,0-4.588-8.373,15.136,15.136,0,0,0-11.241-4.76,15.5,15.5,0,0,0-11.413,4.875,17.392,17.392,0,0,0,0,24.03,15.624,15.624,0,0,0,11.413,4.875,15.868,15.868,0,0,0,11.47-4.932,15.592,15.592,0,0,0,4.359-8.086Z" transform="translate(-387.57 1234.266)" fill="#585955"/>
    <path id="Path_203" data-name="Path 203" d="M730.006,767.97a14.767,14.767,0,0,0-9.348,4.817,14.368,14.368,0,0,0-3.326,9.75v23.4H708.5V761.375h8.832v6.309c1.319-3.5,4.072-5.907,8.373-7.284Z" transform="translate(-430.135 1232.304)" fill="#585955"/>
    <path id="Path_204" data-name="Path 204" d="M763.8,780.246v.172a16.17,16.17,0,0,0,4.818,11.929,15.567,15.567,0,0,0,11.413,4.818,15.868,15.868,0,0,0,11.47-4.932c.459-.459,1.319-1.491,2.638-3.1l8.258,2.925a27.281,27.281,0,0,1-4.3,5.505,25.546,25.546,0,0,1-35.959.115,24.17,24.17,0,0,1,0-34.7,24.311,24.311,0,0,1,17.893-7.283,24.578,24.578,0,0,1,18.065,7.4c4.244,4.3,6.366,10.036,6.366,17.148Zm1.548-7.685h29.191c-2.065-6.022-6.939-9.061-14.51-9.061C772.407,763.5,767.532,766.539,765.352,772.561Z" transform="translate(-449.881 1234.308)" fill="#585955"/>
    <path id="Path_205" data-name="Path 205" d="M858,780.246v.172a16.171,16.171,0,0,0,4.817,11.929,15.568,15.568,0,0,0,11.413,4.818,15.868,15.868,0,0,0,11.47-4.932c.459-.459,1.319-1.491,2.638-3.1l8.259,2.925a27.286,27.286,0,0,1-4.3,5.505,25.546,25.546,0,0,1-35.959.115,24.17,24.17,0,0,1,0-34.7,24.311,24.311,0,0,1,17.893-7.283,24.578,24.578,0,0,1,18.065,7.4c4.244,4.3,6.366,10.036,6.366,17.148Zm1.549-7.685h29.191c-2.065-6.022-6.939-9.061-14.51-9.061C866.606,763.5,861.674,766.539,859.553,772.561Z" transform="translate(-490.058 1234.308)" fill="#585955"/>
    <path id="Path_206" data-name="Path 206" d="M955.932,771.607V804.87H947.1V760.309h8.832c1.491-1.606,4.588-2.409,9.233-2.409q8.431,0,13.592,5.161a17.46,17.46,0,0,1,5.276,12.617V804.87h-8.775V776.08a9.99,9.99,0,0,0-3.1-7.513,9.764,9.764,0,0,0-13.879-.172A11.138,11.138,0,0,0,955.932,771.607Z" transform="translate(-531.896 1233.37)" fill="#585955"/>
    <path id="Path_207" data-name="Path 207" d="M612.7,874.4h8.832v30.682q5.248-8.774,15.829-8.774a24.44,24.44,0,0,1,17.951,7.283,24.3,24.3,0,0,1,0,34.7,24.4,24.4,0,0,1-17.951,7.341c-7.112,0-12.388-2.925-15.829-8.832v7.628H612.7Zm8.832,42.9v7.513a16.025,16.025,0,0,0,27.184,8.144,17.173,17.173,0,0,0,0-23.972,15.464,15.464,0,0,0-11.355-4.875,15.831,15.831,0,0,0-11.528,4.989A15.224,15.224,0,0,0,621.532,917.3Z" transform="translate(-115.569 1093.7)" fill="#585955"/>
    <path id="Path_208" data-name="Path 208" d="M734.006,924.87a14.767,14.767,0,0,0-9.348,4.817,14.368,14.368,0,0,0-3.326,9.749v23.4H712.5V918.275h8.889v6.309c1.319-3.5,4.072-5.907,8.373-7.284Z" transform="translate(-158.134 1075.403)" fill="#585955"/>
    <path id="Path_209" data-name="Path 209" d="M785.834,912.6a24.349,24.349,0,0,1,17.951,7.284,23.933,23.933,0,0,1,7.284,17.377,23.675,23.675,0,0,1-7.284,17.32,25.548,25.548,0,0,1-35.844,0,24.17,24.17,0,0,1,0-34.7A24.536,24.536,0,0,1,785.834,912.6Zm-11.413,12.674a16.525,16.525,0,0,0-4.817,12.044,16.171,16.171,0,0,0,4.817,11.929,15.86,15.86,0,0,0,22.768,0,17.173,17.173,0,0,0,0-23.973,15.73,15.73,0,0,0-22.768,0Z" transform="translate(-178.648 1077.408)" fill="#585955"/>
    <path id="Path_210" data-name="Path 210" d="M912.395,919l-15.141,44.561H891.06l-7.513-21.1-7.513,21.1h-6.309L854.7,919h9.52l8.947,27.7,7.513-20.761h5.965L894.1,946.7l8.889-27.7Z" transform="translate(-218.781 1074.678)" fill="#585955"/>
    <path id="Path_211" data-name="Path 211" d="M972.532,928.507V961.77H963.7V917.209h8.832c1.491-1.606,4.588-2.409,9.233-2.409q8.43,0,13.592,5.162a17.46,17.46,0,0,1,5.276,12.617V961.77h-8.775V932.98a9.991,9.991,0,0,0-3.1-7.513,9.764,9.764,0,0,0-13.879-.172A9.334,9.334,0,0,0,972.532,928.507Z" transform="translate(-265.27 1076.469)" fill="#585955"/>
  </g>
</svg>
