<svg id="Iconly_Light-Outline_Heart" data-name="Iconly/Light-Outline/Heart" xmlns="http://www.w3.org/2000/svg" width="15.4" height="14.669" viewBox="0 0 15.4 14.669">
  <g id="Heart" transform="translate(0 0)">
    <path id="Combined-Shape" d="M7.7.782A5.184,5.184,0,0,1,11.951.244c3.053.985,4,4.313,3.153,6.962-1.308,4.16-6.9,7.263-7.132,7.393a.563.563,0,0,1-.541,0C7.2,14.472,1.649,11.415.3,7.207h0C-.552,4.557.393,1.228,3.443.244A5.062,5.062,0,0,1,7.7.782ZM3.79,1.319C1.321,2.115.7,4.769,1.372,6.863,2.426,10.144,6.593,12.8,7.7,13.454c1.111-.663,5.308-3.346,6.329-6.588.67-2.1.048-4.75-2.424-5.547a3.978,3.978,0,0,0-3.559.6.564.564,0,0,1-.685,0A3.937,3.937,0,0,0,3.79,1.319Zm7.094,1.494a2.652,2.652,0,0,1,1.832,2.313.564.564,0,0,1-.517.608l-.047,0a.564.564,0,0,1-.562-.518,1.523,1.523,0,0,0-1.052-1.331.564.564,0,1,1,.346-1.074Z" transform="translate(0 0)" fill="#fff" fill-rule="evenodd"/>
  </g>
</svg>
