<svg xmlns="http://www.w3.org/2000/svg" width="13.5" height="9" viewBox="0 0 13.5 9">
  <g id="Iconly_Bold_Arrow---Right" data-name="Iconly/Bold/Arrow---Right" transform="translate(-3 -6)">
    <g id="Arrow---Right" transform="translate(3 6)">
      <path id="Path_70" data-name="Path 70" d="M5.877,4.771V4.5a20.468,20.468,0,0,1,.162-2.766l.085-.408A2.915,2.915,0,0,1,6.3.744,1.361,1.361,0,0,1,7.5,0h.043A3.773,3.773,0,0,1,8.551.306a16.983,16.983,0,0,1,4.195,2.842l.284.3a2.687,2.687,0,0,1,.21.251,1.326,1.326,0,0,1,.26.8,1.392,1.392,0,0,1-.281.853l-.292.315h0l-.065.067A16.555,16.555,0,0,1,8.443,8.748l-.183.07A3.038,3.038,0,0,1,7.544,9a1.5,1.5,0,0,1-.682-.164,1.414,1.414,0,0,1-.606-.678,7.342,7.342,0,0,1-.2-.8A16.712,16.712,0,0,1,5.877,4.771ZM0,4.5A1.133,1.133,0,0,1,1.127,3.361L3.9,3.607a.893.893,0,0,1,0,1.786l-2.774.245A1.133,1.133,0,0,1,0,4.5Z" transform="translate(0)" fill="#45726e"/>
    </g>
  </g>
</svg>
