<svg xmlns="http://www.w3.org/2000/svg" width="30.482" height="28.306" viewBox="0 0 30.482 28.306">
  <path id="Icon_ionic-ios-star" data-name="Icon ionic-ios-star" d="M31.577,13.173l-8.9-.974L18.526,4.1a1.1,1.1,0,0,0-2.069,0l-3.735,8.1-9.383.974h0A1.092,1.092,0,0,0,2.25,14.262a.8.8,0,0,0,.02.184,1.046,1.046,0,0,0,.456.769l7.234,6.023L7.8,30.191a1.092,1.092,0,0,0,.374,1.225,1.053,1.053,0,0,0,.612.265,1.334,1.334,0,0,0,.68-.245l8.029-4.424,8.029,4.424a1.275,1.275,0,0,0,.68.245.977.977,0,0,0,.606-.265,1.078,1.078,0,0,0,.374-1.225l-2.324-8.619,7.325-6.412.2-.17a1.141,1.141,0,0,0,.354-.728A1.152,1.152,0,0,0,31.577,13.173Z" transform="translate(-2.25 -3.375)" fill="#cc6e10"/>
</svg>
