<svg xmlns="http://www.w3.org/2000/svg" width="20.725" height="21.927" viewBox="0 0 20.725 21.927">
  <g id="Iconly_Light-Outline_Bag" data-name="Iconly/Light-Outline/Bag" transform="translate(0)">
    <g id="Bag" transform="translate(0 0)">
      <path id="Combined-Shape" d="M10.35,0a5.371,5.371,0,0,1,5.332,4.8h.079c1.534,0,3.4,1.019,4.029,3.877l.835,6.462A5.98,5.98,0,0,1,19.51,20.1a6.035,6.035,0,0,1-4.737,1.825H5.939c-2.268,0-3.847-.556-4.831-1.7s-1.317-2.862-.981-5.1L.949,8.75C1.488,5.826,3.462,4.8,4.99,4.8A5.365,5.365,0,0,1,10.327,0Zm5.411,6.391H4.99c-.467,0-2.026.188-2.474,2.605L1.7,15.346c-.266,1.781-.06,3.07.612,3.85S4.161,20.34,5.939,20.34h8.834a4.644,4.644,0,0,0,3.537-1.277,4.5,4.5,0,0,0,.743-3.706l-.824-6.4C17.877,7.375,16.95,6.391,15.761,6.391ZM13.436,9.337a.815.815,0,0,1,.818.794.773.773,0,0,1-.769.794h-.049a.794.794,0,1,1,0-1.587Zm-6.169,0a.815.815,0,0,1,.818.794.774.774,0,0,1-.77.794H7.267a.794.794,0,0,1,0-1.587Zm3.08-7.75h-.016A3.775,3.775,0,0,0,6.592,4.8h7.491A3.784,3.784,0,0,0,10.346,1.588Z" transform="translate(0 0)" fill="#45726e" fill-rule="evenodd"/>
    </g>
  </g>
</svg>
