<svg xmlns="http://www.w3.org/2000/svg" width="109" height="109.353" viewBox="0 0 109 109.353">
  <g id="Group_131" data-name="Group 131" transform="translate(-12674.353 113)">
    <circle id="Ellipse_249" data-name="Ellipse 249" cx="54.5" cy="54.5" r="54.5" transform="translate(12674.353 -112.647)" fill="#f1c071"/>
    <path id="Intersection_2" data-name="Intersection 2" d="M63.975,102l0,0s0-.007,0-.01c-3.315-6.8-3.817-16.035-.766-25.3l.051-.152c0-.012.008-.023.011-.035l.057-.171c.009-.028.02-.056.029-.085,3.211-9.408,9.356-16.554,16.241-19.915a18.56,18.56,0,0,1,12.93-1.579c-.313.308-2.839,2.769-3.153,3.077a26.663,26.663,0,0,0-7.005,26.054,22.5,22.5,0,0,1-4.457,20.1,54.334,54.334,0,0,1-9.982,3.647A20.9,20.9,0,0,1,63.975,102ZM0,61.6a18.056,18.056,0,0,1,5.362-7.085c.059.451.524,4.087.584,4.538A27.718,27.718,0,0,0,23.2,81.164,23.485,23.485,0,0,1,37.568,99.84c.092.7.864,6.2.958,6.881-.084.036-.169.071-.254.106l-.223.089A54.735,54.735,0,0,1,0,61.6Zm39.93,38.586A27.652,27.652,0,0,0,23,78.229Q15.061,74.993,8.32,59.447c-.488-3.8-.758-5.916-.814-6.333a20.1,20.1,0,0,1,11.766-1.043c7.936,1.543,16.22,6.9,22.031,15.458,5.758,8.479,7.756,18.014,6.23,25.834a19.72,19.72,0,0,1-6.893,11.944C40.568,104.8,40,100.7,39.93,100.191ZM84.777,82.158Q82.67,74.185,90.718,60c2.638-2.575,4.11-4.009,4.4-4.293a19.318,19.318,0,0,1,7.614,8.432,29.73,29.73,0,0,1,2.736,9.69,54.864,54.864,0,0,1-23.022,27.692A26.384,26.384,0,0,0,84.777,82.158Zm-46.5-33.6A21.874,21.874,0,0,1,26,39.264c.519-.005,4.689-.028,5.208-.034A31.6,31.6,0,0,0,58.585,22.735,26.781,26.781,0,0,1,81.687,9.04c.3,0,1.358-.021,2.615-.042a54.937,54.937,0,0,1,6.059,4.63,24.641,24.641,0,0,1-1.251,8.757l0,0a.074.074,0,0,1,0,.01c-2.822,8.677-10.173,17.108-20.649,22.509a44.492,44.492,0,0,1-20.193,5.15A32.382,32.382,0,0,1,38.28,48.557ZM25.566,24.228C28.417,15.454,35.625,6.811,46.1,1.411Q47.239.825,48.384.31A55.258,55.258,0,0,1,54.241,0,54.429,54.429,0,0,1,81.9,7.5,31.5,31.5,0,0,0,55.631,23.614q-4.766,8.547-23.266,14.037c-4.358.029-6.787.043-7.266.048A22.993,22.993,0,0,1,25.566,24.228Z" transform="translate(12674.472 -113)" fill="#e6b25d"/>
  </g>
</svg>
