<svg xmlns="http://www.w3.org/2000/svg" width="17" height="61" viewBox="0 0 17 61">
  <g id="Group_1050" data-name="Group 1050" transform="translate(-20768 -307)">
    <rect id="Rectangle_1476" data-name="Rectangle 1476" width="17" height="61" transform="translate(20768 307)" fill="#d50404"/>
    <path id="Path_16312" data-name="Path 16312" d="M4.3,5.116V15H2.7V5.116ZM2.716,3.31a.76.76,0,0,1,.224-.56.743.743,0,0,1,.546-.224.783.783,0,0,1,.567.224.786.786,0,0,1,0,1.113.771.771,0,0,1-.567.231.732.732,0,0,1-.546-.231A.766.766,0,0,1,2.716,3.31ZM1.988,26.7h4.8V28H.21V26.754l4.7-7.336H.308v-1.3H6.72v1.246Zm.945,13.056H6.349V41H1.337V31.116h1.6ZM2.457,45.4v3H6.1v1.232H2.457V52.7h4.06V54H.861V44.116H6.517V45.4Z" transform="translate(20773 308)" fill="#fff"/>
  </g>
</svg>
