<svg xmlns="http://www.w3.org/2000/svg" width="18.964" height="18.954" viewBox="0 0 18.964 18.954">
  <g id="kahvecekirdek3" transform="translate(0.465 -5.992)">
    <g id="Group_129" data-name="Group 129" transform="translate(0.048 6.506)">
      <g id="Group_124" data-name="Group 124" transform="translate(0 2.066)">
        <g id="Group_121" data-name="Group 121">
          <path id="bBpLIgRLN" d="M8.877,70.748A9.073,9.073,0,0,1,2.065,64.71L1.517,63.1C-1.053,66.112-.2,71.5,3.664,75.359a11.7,11.7,0,0,0,8.046,3.614A6.552,6.552,0,0,0,15.427,77.9c-.044-.131-.263-.8-.657-2Q11.632,71.294,8.877,70.748Z" transform="translate(-0.048 -63.1)" fill="#fff"/>
        </g>
        <g id="Group_123" data-name="Group 123">
          <g id="Group_122" data-name="Group 122">
            <path id="bBpLIgRLN_00000175289225139286551090000018181062014029969066_" d="M8.877,70.748A9.073,9.073,0,0,1,2.065,64.71L1.517,63.1C-1.053,66.112-.2,71.5,3.664,75.359a11.7,11.7,0,0,0,8.046,3.614A6.552,6.552,0,0,0,15.427,77.9c-.044-.131-.263-.8-.657-2Q11.632,71.294,8.877,70.748Z" transform="translate(-0.048 -63.1)" fill="#fff" stroke="rgba(0,0,0,0)" stroke-width="1"/>
          </g>
        </g>
      </g>
      <g id="Group_128" data-name="Group 128" transform="translate(2.576 0)">
        <g id="Group_125" data-name="Group 125">
          <path id="a2HL1VT1NT" d="M70.6,7.579c.073.215.664,1.946.737,2.165a7.7,7.7,0,0,0,5.783,5.137,9.092,9.092,0,0,1,6.926,6.064c.047.142.424,1.289.471,1.431,2.574-3.012,1.639-8.335-2.223-12.2C78.628,6.513,73.681,5.484,70.6,7.579Z" transform="translate(-70.6 -6.506)" fill="#fff"/>
        </g>
        <g id="Group_127" data-name="Group 127">
          <g id="Group_126" data-name="Group 126">
            <path id="a2HL1VT1NT_00000055691589196594881720000015940195277938584212_" d="M70.6,7.579c.073.215.664,1.946.737,2.165a7.7,7.7,0,0,0,5.783,5.137,9.092,9.092,0,0,1,6.926,6.064c.047.142.424,1.289.471,1.431,2.574-3.012,1.639-8.335-2.223-12.2C78.628,6.513,73.681,5.484,70.6,7.579Z" transform="translate(-70.6 -6.506)" fill="#fff" stroke="rgba(0,0,0,0)" stroke-width="1"/>
          </g>
        </g>
      </g>
    </g>
  </g>
</svg>
