<svg id="Group_19" data-name="Group 19" xmlns="http://www.w3.org/2000/svg" xmlns:xlink="http://www.w3.org/1999/xlink" width="320.975" height="319.576" viewBox="0 0 320.975 319.576">
  <defs>
    <clipPath id="clip-path">
      <rect id="Rectangle_1" data-name="Rectangle 1" width="320.975" height="319.576" fill="none"/>
    </clipPath>
    <clipPath id="clip-path-2">
      <path id="Path_9" data-name="Path 9" d="M141.476,125.568c-5.415,7.55-7.8,16.248-8.78,25.263-1.721,15.788.673,30.818,10.26,43.974,5.171,7.094,11.92,11.839,21.188,11.807,3.43-.011,5.1-1.283,5.266-5.184.647-15.336-2.225-29.983-7.414-44.338-4.644-12.853-10.818-25.225-12.67-39.52-3.71,2.19-5.776,5.105-7.85,8" fill="none"/>
    </clipPath>
    <radialGradient id="radial-gradient" cx="0.508" cy="0.5" r="0.383" gradientTransform="matrix(2.279, 0, 0, -1, 4.287, 4.536)" gradientUnits="objectBoundingBox">
      <stop offset="0" stop-color="#1d3126"/>
      <stop offset="1" stop-color="#305438"/>
    </radialGradient>
    <clipPath id="clip-path-3">
      <path id="Path_10" data-name="Path 10" d="M157.934,113.189c-3.258.709-3.723,2.244-3.049,5.114a133.933,133.933,0,0,0,5.369,18.136c8.247,21.133,16.793,42.208,14.531,66.677a39.3,39.3,0,0,0,14.043-17.588,66.03,66.03,0,0,0,3.264-39.715c-2.093-9.7-5.768-18.627-12.991-25.636-4.711-4.569-10.044-7.518-16.4-7.518a22.4,22.4,0,0,0-4.767.53" fill="none"/>
    </clipPath>
    <radialGradient id="radial-gradient-2" cx="0.489" cy="0.5" r="0.385" gradientTransform="matrix(2.216, 0, 0, -1, 4.596, 4.575)" xlink:href="#radial-gradient"/>
    <clipPath id="clip-path-4">
      <path id="Path_11" data-name="Path 11" d="M213.628,143.051a92.169,92.169,0,0,0-4.219,10.791c-4.843,16.193-8.85,32.769-21.571,46.216a17.134,17.134,0,0,0,2.406.34c21.32-1.586,40.695-26.574,36.72-47.5a16.235,16.235,0,0,0-7.805-11.275,5.789,5.789,0,0,0-2.793-1.045c-1.068,0-1.954.7-2.738,2.473" fill="none"/>
    </clipPath>
    <radialGradient id="radial-gradient-3" cx="0.46" cy="0.5" r="0.424" gradientTransform="matrix(1.389, 0, 0, -1, 1.694, 5.981)" gradientUnits="objectBoundingBox">
      <stop offset="0" stop-color="#130909"/>
      <stop offset="1" stop-color="#473021"/>
    </radialGradient>
    <clipPath id="clip-path-5">
      <path id="Path_12" data-name="Path 12" d="M197.467,143.31c-2.324,1.845.186,5.155.457,7.738.808,7.691.387,15.33.117,23.091,4.927-11.208,6.777-23.4,12.852-34.487h-.087c-5.28,0-9.851.892-13.339,3.658" fill="none"/>
    </clipPath>
    <radialGradient id="radial-gradient-4" cx="0.543" cy="0.5" r="0.383" gradientTransform="matrix(2.19, 0, 0, -1, 14.74, 10.434)" xlink:href="#radial-gradient-3"/>
    <clipPath id="clip-path-6">
      <path id="Path_13" data-name="Path 13" d="M101.118,142.262a16.52,16.52,0,0,0-7.135,13.66c-.418,14,6.063,24.97,15.865,34.194,6.607,6.217,14.235,10.54,24.629,10.316-1.227-1.506-1.848-2.234-2.432-2.991-5.976-7.753-11.34-15.766-14.2-25.355a242.627,242.627,0,0,0-9.635-27.668c-1.123-2.579-2.072-3.8-3.461-3.8-.943,0-2.088.562-3.628,1.645" fill="none"/>
    </clipPath>
    <radialGradient id="radial-gradient-5" cx="0.505" cy="0.498" r="0.425" gradientTransform="matrix(1.468, 0, 0, -1, 1.069, 5.961)" xlink:href="#radial-gradient-3"/>
    <clipPath id="clip-path-7">
      <path id="Path_14" data-name="Path 14" d="M110.191,139.751c4.542,7.74,6.778,15.808,9.245,23.795,3.212,10.394,7.194,20.425,14.024,29.078l1.3,1.136c.539-.849.259-1.439-.584-1.851-5.524-13.916-8.755-28.145-6.052-43.224.277-1.551.275-3.034-1.618-4.112-4.776-2.72-9.652-4.827-15.762-4.827-.185,0-.37,0-.556.005" fill="none"/>
    </clipPath>
    <radialGradient id="radial-gradient-6" cx="0.495" cy="0.5" r="0.389" gradientTransform="matrix(2.151, 0, 0, -1, 5.051, 6.659)" xlink:href="#radial-gradient-3"/>
  </defs>
  <g id="Group_2" data-name="Group 2">
    <g id="Group_1" data-name="Group 1" clip-path="url(#clip-path)">
      <path id="Path_1" data-name="Path 1" d="M252.363,29.1c23.1,16.934,41.278,37.969,53.459,64.033,13.059,27.943,17.361,57.313,14.12,87.829a163.408,163.408,0,0,1-6.291,29.442c-15.917,46.388-46.806,78.726-91.928,97.525a153.737,153.737,0,0,1-71.181,11.19C76.24,313.642,17.414,260.025,3.3,190.429c-7.565-37.3-2.023-72.953,15.739-106.7A185.424,185.424,0,0,1,32.084,62.776l2.162-2.818c.523-.175.992-.389.8-1.088a193.393,193.393,0,0,1,28.53-27.508,39.635,39.635,0,0,1,6.007-4.144C91.389,12.874,114.774,3.246,141.116.9,157.3-.545,173.277-.41,189.209,2.491c23,4.188,43.915,13.438,63.154,26.61M159.005,310.639c82.789,1.219,152.372-63.274,153.052-146.833.7-85.879-67.787-154.69-152.314-155.263C76.177,7.977,8.689,78.129,8.908,157.808c.116,41.951,14.97,78.185,44.734,107.676,29.039,28.773,64,44.733,105.363,45.155" fill="#130909"/>
      <path id="Path_2" data-name="Path 2" d="M35.048,58.869c.19.7-.279.914-.8,1.089l.8-1.089" fill="#130909"/>
      <path id="Path_3" data-name="Path 3" d="M300.071,144.431c4.288,37.254-4.2,71.568-27.609,101.3-.213.27-.433.529-.647.8a10.376,10.376,0,0,1,1.6,1.287l.167.106c.041.015.084.033.124.045.557.175,1.109.353,1.65.57a137.842,137.842,0,0,0,29.315-86.7A145.422,145.422,0,0,0,154.325,15.814C73.782,18.478,14.6,86.788,16.258,162.287a144.1,144.1,0,0,0,30.8,85.337c.56-.394,1.135-.769,1.7-1.134.3-.193.6-.4.9-.585.036-.023.05-.031.079-.048s.031-.028.07-.058.121-.084.2-.136c.015-.025.04-.066.061-.1.027-.067.063-.123.092-.188-16.669-20.621-26.066-44.609-29.435-71.06-.532-4.174-.319-8.442-.451-12.667-.866-19.506,3.071-38.132,10.464-56.082,2.337-5.673,4.827-11.309,8.413-16.36C57.148,57.75,83.6,36.445,118.031,25.851c39.318-12.1,77.344-7.69,112.808,13.313,16.54,9.8,30.457,22.806,42.273,38.318a133.842,133.842,0,0,1,26.959,66.949" fill="#130909"/>
      <path id="Path_4" data-name="Path 4" d="M77.067,171.445c-3.247-24.308,3.358-45.9,17.97-65.3l7.01-7.423c4.578-4.631,10.1-8.028,15.367-11.761l9.945-4.958c45.688-18.6,94.234,4.2,111.271,46.415,20.4,50.549-9.2,102.951-60.664,113.618-.944.195-1.852.556-2.777.84l-20.555.874c-2.2-.977-4.539-.835-6.859-.854a18.252,18.252,0,0,0-2.3-.766c-22.954-4.487-40.94-16.557-54.44-35.537-5.315-7.474-8.626-15.906-11.876-24.377.084-1.085.269-2.2-.8-2.975l-1.3-7.8m3.126-12.175c-.615,42.117,34.594,80.614,81.195,80.695,44.316.078,80.032-35.537,79.946-79.388-.088-44.842-36.667-81.369-81.37-81.253A79.684,79.684,0,0,0,80.193,159.27" fill="#130909"/>
      <path id="Path_5" data-name="Path 5" d="M275.073,175.234c-2.619,19.421-9.17,37.184-21.017,52.832-1.27,1.677-2.656,3.266-3.922,4.945-.815,1.079-2.017,1.477-2.92.755-1-.8-.511-1.81.389-2.833,14.083-16.017,21.217-35.094,24.429-55.875.184-1.19-.312-2.887,1.887-2.483,1.722.317.967,1.748,1.154,2.659" fill="#130909"/>
      <path id="Path_6" data-name="Path 6" d="M46.422,174.3c-.253-.915-.068-1.541.994-1.758,1.529-.312,2.06.55,2.286,1.817.6,3.353,1.031,6.742,1.8,10.054a111.754,111.754,0,0,0,22.365,45.4c.791.98,3.407,1.9,1.355,3.762-2.08,1.884-2.774-.694-3.61-1.72-13.4-16.432-22.089-34.976-24.847-56.133a12.588,12.588,0,0,0-.343-1.423" fill="#130909"/>
      <path id="Path_7" data-name="Path 7" d="M274.686,144.428c.36,1.355-.022,2.349-1.537,2.328-1.866-.026-1.749-1.707-1.889-2.872a101.26,101.26,0,0,0-8.931-30.054c-.4-.875-.821-1.744-1.158-2.644-.3-.795-.916-2.156-.664-2.358,1.5-1.2,2.669-.917,3.577,1.02a120.784,120.784,0,0,1,9.032,26c.609,2.842,1.052,5.72,1.57,8.582" fill="#130909"/>
      <path id="Path_8" data-name="Path 8" d="M46.315,144.337a112.089,112.089,0,0,1,9.956-33.694c.387-.815.5-2.514,2.274-1.486,1.289.747,1.149,1.533.564,2.786a104.5,104.5,0,0,0-9.515,32.724c-.122,1.091-.342,2.341-2,2.179-1.753-.172-1.424-1.4-1.284-2.509" fill="#130909"/>
    </g>
  </g>
  <g id="Group_4" data-name="Group 4">
    <g id="Group_3" data-name="Group 3" clip-path="url(#clip-path-2)">
      <rect id="Rectangle_2" data-name="Rectangle 2" width="39.082" height="89.074" transform="translate(130.975 117.57)" fill="url(#radial-gradient)"/>
    </g>
  </g>
  <g id="Group_6" data-name="Group 6">
    <g id="Group_5" data-name="Group 5" clip-path="url(#clip-path-3)">
      <rect id="Rectangle_3" data-name="Rectangle 3" width="40.813" height="90.457" transform="translate(154.211 112.659)" fill="url(#radial-gradient-2)"/>
    </g>
  </g>
  <g id="Group_8" data-name="Group 8">
    <g id="Group_7" data-name="Group 7" clip-path="url(#clip-path-4)">
      <rect id="Rectangle_4" data-name="Rectangle 4" width="43.101" height="59.853" transform="translate(187.838 140.578)" fill="url(#radial-gradient-3)"/>
    </g>
  </g>
  <g id="Group_10" data-name="Group 10">
    <g id="Group_9" data-name="Group 9" clip-path="url(#clip-path-5)">
      <rect id="Rectangle_5" data-name="Rectangle 5" width="15.75" height="34.487" transform="translate(195.143 139.652)" fill="url(#radial-gradient-4)"/>
    </g>
  </g>
  <g id="Group_12" data-name="Group 12">
    <g id="Group_11" data-name="Group 11" clip-path="url(#clip-path-6)">
      <rect id="Rectangle_6" data-name="Rectangle 6" width="40.912" height="60.039" transform="translate(93.565 140.617)" fill="url(#radial-gradient-5)"/>
    </g>
  </g>
  <g id="Group_14" data-name="Group 14">
    <g id="Group_13" data-name="Group 13" clip-path="url(#clip-path-7)">
      <rect id="Rectangle_7" data-name="Rectangle 7" width="25.111" height="54.014" transform="translate(110.191 139.746)" fill="url(#radial-gradient-6)"/>
    </g>
  </g>
  <g id="Group_16" data-name="Group 16">
    <g id="Group_15" data-name="Group 15" clip-path="url(#clip-path)">
      <path id="Path_15" data-name="Path 15" d="M267.637,204.019c-7.558,18.082-18.483,33.543-33.977,45.591-1.66,1.291-3.41,2.468-5.068,3.761-1.066.832-2.33.9-3.016-.027-.756-1.025-.025-1.88,1.109-2.636,17.749-11.824,29.579-28.4,38.06-47.646.485-1.1.445-2.87,2.466-1.91,1.581.751.48,1.939.426,2.867" fill="#130909"/>
      <path id="Path_16" data-name="Path 16" d="M53.823,202.015c-.468-.826-.441-1.478.536-1.947,1.407-.675,2.132.033,2.659,1.207,1.395,3.106,2.642,6.287,4.193,9.313a111.763,111.763,0,0,0,32.741,38.594c1.006.757,3.767,1.016,2.23,3.318-1.559,2.334-2.859,0-3.92-.789-17-12.677-29.936-28.55-37.76-48.4a12.494,12.494,0,0,0-.679-1.3" fill="#130909"/>
    </g>
  </g>
  <text id="G" transform="translate(72.584 108.691) rotate(-56.409)" fill="#1d3126" font-size="29.596" font-family="AvantGardeITCbyBT-Demi, AvantGarde Bk BT" font-weight="300"><tspan x="0" y="0">G</tspan></text>
  <text id="R" transform="translate(86.969 88.062) rotate(-43.634)" fill="#1d3126" font-size="29.596" font-family="AvantGardeITCbyBT-Demi, AvantGarde Bk BT" font-weight="300"><tspan x="0" y="0">R</tspan></text>
  <text id="E" transform="translate(100.844 75.221) rotate(-33.203)" fill="#1d3126" font-size="29.596" font-family="AvantGardeITCbyBT-Demi, AvantGarde Bk BT" font-weight="300"><tspan x="0" y="0">E</tspan></text>
  <text id="E-2" data-name="E" transform="translate(115.123 66.097) rotate(-23.256)" fill="#1d3126" font-size="29.596" font-family="AvantGardeITCbyBT-Demi, AvantGarde Bk BT" font-weight="300"><tspan x="0" y="0">E</tspan></text>
  <text id="N" transform="translate(130.548 59.396) rotate(-11.778)" fill="#1d3126" font-size="29.596" font-family="AvantGardeITCbyBT-Demi, AvantGarde Bk BT" font-weight="300"><tspan x="0" y="0">N</tspan></text>
  <text id="_" data-name=" " transform="translate(152.473 55.509) rotate(-2.119)" fill="#1d3126" font-size="29.596" font-family="AvantGardeITCbyBT-Demi, AvantGarde Bk BT" font-weight="300"><tspan x="0" y="0"> </tspan></text>
  <text id="B" transform="translate(163.337 55.029) rotate(6.07)" fill="#381c03" font-size="29.596" font-family="AvantGardeITCbyBT-Demi, AvantGarde Bk BT" font-weight="300"><tspan x="0" y="0">B</tspan></text>
  <text id="R-2" data-name="R" transform="matrix(0.958, 0.288, -0.288, 0.958, 180.541, 56.976)" fill="#381c03" font-size="29.596" font-family="AvantGardeITCbyBT-Demi, AvantGarde Bk BT" font-weight="300"><tspan x="0" y="0">R</tspan></text>
  <text id="O" transform="translate(198.567 62.243) rotate(29.64)" fill="#381c03" font-size="29.596" font-family="AvantGardeITCbyBT-Demi, AvantGarde Bk BT" font-weight="300"><tspan x="0" y="0">O</tspan></text>
  <text id="W" transform="translate(220.295 74.756) rotate(44.702)" fill="#381c03" font-size="29.596" font-family="AvantGardeITCbyBT-Demi, AvantGarde Bk BT" font-weight="300"><tspan x="0" y="0">W</tspan></text>
  <text id="N-2" data-name="N" transform="matrix(0.517, 0.856, -0.856, 0.517, 238.912, 93.903)" fill="#381c03" font-size="29.596" font-family="AvantGardeITCbyBT-Demi, AvantGarde Bk BT" font-weight="300"><tspan x="0" y="0">N</tspan></text>
  <text id="C" transform="matrix(0.91, 0.415, -0.415, 0.91, 99.789, 266.171)" fill="#381c03" font-size="29.426" font-family="AvantGardeITCbyBT-Demi, AvantGarde Bk BT" font-weight="300"><tspan x="0" y="0">C</tspan></text>
  <text id="O-2" data-name="O" transform="translate(125.638 277.253) rotate(11.092)" fill="#381c03" font-size="29.426" font-family="AvantGardeITCbyBT-Demi, AvantGarde Bk BT" font-weight="300"><tspan x="0" y="0">O</tspan></text>
  <text id="F" transform="translate(153.866 281.811) rotate(-0.246)" fill="#381c03" font-size="29.426" font-family="AvantGardeITCbyBT-Demi, AvantGarde Bk BT" font-weight="300"><tspan x="0" y="0">F</tspan></text>
  <text id="F-2" data-name="F" transform="translate(172.838 281.402) rotate(-8.86)" fill="#381c03" font-size="29.426" font-family="AvantGardeITCbyBT-Demi, AvantGarde Bk BT" font-weight="300"><tspan x="0" y="0">F</tspan></text>
  <text id="E-3" data-name="E" transform="translate(191.677 278.089) rotate(-17.968)" fill="#381c03" font-size="29.426" font-family="AvantGardeITCbyBT-Demi, AvantGarde Bk BT" font-weight="300"><tspan x="0" y="0">E</tspan></text>
  <text id="E-4" data-name="E" transform="translate(210.315 271.616) rotate(-27.221)" fill="#381c03" font-size="29.426" font-family="AvantGardeITCbyBT-Demi, AvantGarde Bk BT" font-weight="300"><tspan x="0" y="0">E</tspan></text>
  <text id="Y" transform="matrix(0.644, 0.765, -0.765, 0.644, 56.288, 258.463)" font-size="10.154" font-family="AvantGardeITCbyBT-Demi, AvantGarde Bk BT" font-weight="300"><tspan x="0" y="0">Y</tspan></text>
  <text id="E-5" data-name="E" transform="matrix(0.695, 0.719, -0.719, 0.695, 61.159, 264.169)" font-size="10.154" font-family="AvantGardeITCbyBT-Demi, AvantGarde Bk BT" font-weight="300"><tspan x="0" y="0">E</tspan></text>
  <text id="Ş" transform="matrix(0.74, 0.673, -0.673, 0.74, 66.462, 269.582)" font-size="10.154" font-family="AvantGardeITCbyBT-Demi, AvantGarde Bk BT" font-weight="300"><tspan x="0" y="0">Ş</tspan></text>
  <text id="İ" transform="matrix(0.773, 0.635, -0.635, 0.773, 71.861, 274.394)" font-size="10.154" font-family="AvantGardeITCbyBT-Demi, AvantGarde Bk BT" font-weight="300"><tspan x="0" y="0">İ</tspan></text>
  <text id="L" transform="matrix(0.802, 0.598, -0.598, 0.802, 75.413, 277.301)" font-size="10.154" font-family="AvantGardeITCbyBT-Demi, AvantGarde Bk BT" font-weight="300"><tspan x="0" y="0">L</tspan></text>
  <text id="D" transform="matrix(0.84, 0.543, -0.543, 0.84, 80.89, 281.386)" font-size="10.154" font-family="AvantGardeITCbyBT-Demi, AvantGarde Bk BT" font-weight="300"><tspan x="0" y="0">D</tspan></text>
  <text id="E-6" data-name="E" transform="matrix(0.874, 0.485, -0.485, 0.874, 89.205, 286.653)" font-size="10.154" font-family="AvantGardeITCbyBT-Demi, AvantGarde Bk BT" font-weight="300"><tspan x="0" y="0">E</tspan></text>
  <text id="N-3" data-name="N" transform="matrix(0.904, 0.427, -0.427, 0.904, 95.824, 290.309)" font-size="10.154" font-family="AvantGardeITCbyBT-Demi, AvantGarde Bk BT" font-weight="300"><tspan x="0" y="0">N</tspan></text>
  <text id="_2" data-name=" " transform="matrix(0.926, 0.377, -0.377, 0.926, 104.668, 294.37)" font-size="10.154" font-family="AvantGardeITCbyBT-Demi, AvantGarde Bk BT" font-weight="300"><tspan x="0" y="0"> </tspan></text>
  <text id="K" transform="matrix(0.943, 0.333, -0.333, 0.943, 109.258, 296.245)" font-size="10.154" font-family="AvantGardeITCbyBT-Demi, AvantGarde Bk BT" font-weight="300"><tspan x="0" y="0">K</tspan></text>
  <text id="A" transform="matrix(0.961, 0.276, -0.276, 0.961, 117.03, 298.95)" font-size="10.154" font-family="AvantGardeITCbyBT-Demi, AvantGarde Bk BT" font-weight="300"><tspan x="0" y="0">A</tspan></text>
  <text id="H" transform="matrix(0.977, 0.215, -0.215, 0.977, 125.526, 301.341)" font-size="10.154" font-family="AvantGardeITCbyBT-Demi, AvantGarde Bk BT" font-weight="300"><tspan x="0" y="0">H</tspan></text>
  <text id="V" transform="matrix(0.988, 0.157, -0.157, 0.988, 134.387, 303.235)" font-size="10.154" font-family="AvantGardeITCbyBT-Demi, AvantGarde Bk BT" font-weight="300"><tspan x="0" y="0">V</tspan></text>
  <text id="E-7" data-name="E" transform="matrix(0.995, 0.104, -0.104, 0.995, 142.618, 304.489)" font-size="10.154" font-family="AvantGardeITCbyBT-Demi, AvantGarde Bk BT" font-weight="300"><tspan x="0" y="0">E</tspan></text>
  <text id="Y-2" data-name="Y" transform="matrix(0.999, 0.054, -0.054, 0.999, 150.078, 305.23)" font-size="10.154" font-family="AvantGardeITCbyBT-Demi, AvantGarde Bk BT" font-weight="300"><tspan x="0" y="0">Y</tspan></text>
  <text id="E-8" data-name="E" transform="matrix(1, -0.002, 0.002, 1, 157.502, 305.62)" font-size="10.154" font-family="AvantGardeITCbyBT-Demi, AvantGarde Bk BT" font-weight="300"><tspan x="0" y="0">E</tspan></text>
  <text id="_3" data-name=" " transform="matrix(0.999, -0.035, 0.035, 0.999, 164.893, 305.586)" font-size="10.154" font-family="AvantGardeITCbyBT-Demi, AvantGarde Bk BT" font-weight="300"><tspan x="0" y="0"> </tspan></text>
  <text id="D-2" data-name="D" transform="matrix(0.996, -0.084, 0.084, 0.996, 169.875, 305.435)" font-size="10.154" font-family="AvantGardeITCbyBT-Demi, AvantGarde Bk BT" font-weight="300"><tspan x="0" y="0">D</tspan></text>
  <text id="Ö" transform="matrix(0.988, -0.154, 0.154, 0.988, 179.667, 304.58)" font-size="10.154" font-family="AvantGardeITCbyBT-Demi, AvantGarde Bk BT" font-weight="300"><tspan x="0" y="0">Ö</tspan></text>
  <text id="N-4" data-name="N" transform="matrix(0.974, -0.225, 0.225, 0.974, 190.623, 302.794)" font-size="10.154" font-family="AvantGardeITCbyBT-Demi, AvantGarde Bk BT" font-weight="300"><tspan x="0" y="0">N</tspan></text>
  <text id="Ü" transform="matrix(0.958, -0.287, 0.287, 0.958, 200.125, 300.532)" font-size="10.154" font-family="AvantGardeITCbyBT-Demi, AvantGarde Bk BT" font-weight="300"><tspan x="0" y="0">Ü</tspan></text>
  <text id="Ş-2" data-name="Ş" transform="matrix(0.94, -0.34, 0.34, 0.94, 208.201, 298.055)" font-size="10.154" font-family="AvantGardeITCbyBT-Demi, AvantGarde Bk BT" font-weight="300"><tspan x="0" y="0">Ş</tspan></text>
  <text id="E-9" data-name="E" transform="matrix(0.921, -0.391, 0.391, 0.921, 215.02, 295.55)" font-size="10.154" font-family="AvantGardeITCbyBT-Demi, AvantGarde Bk BT" font-weight="300"><tspan x="0" y="0">E</tspan></text>
  <text id="N-5" data-name="N" transform="matrix(0.893, -0.45, 0.45, 0.893, 222.004, 292.572)" font-size="10.154" font-family="AvantGardeITCbyBT-Demi, AvantGarde Bk BT" font-weight="300"><tspan x="0" y="0">N</tspan></text>
  <text id="_4" data-name=" " transform="matrix(0.866, -0.499, 0.499, 0.866, 230.645, 288.102)" font-size="10.154" font-family="AvantGardeITCbyBT-Demi, AvantGarde Bk BT" font-weight="300"><tspan x="0" y="0"> </tspan></text>
  <text id="L-2" data-name="L" transform="matrix(0.842, -0.539, 0.539, 0.842, 234.934, 285.616)" font-size="10.154" font-family="AvantGardeITCbyBT-Demi, AvantGarde Bk BT" font-weight="300"><tspan x="0" y="0">L</tspan></text>
  <text id="E-10" data-name="E" transform="matrix(0.81, -0.587, 0.587, 0.81, 240.648, 281.923)" font-size="10.154" font-family="AvantGardeITCbyBT-Demi, AvantGarde Bk BT" font-weight="300"><tspan x="0" y="0">E</tspan></text>
  <text id="Z" transform="matrix(0.772, -0.636, 0.636, 0.772, 246.744, 277.443)" font-size="10.154" font-family="AvantGardeITCbyBT-Demi, AvantGarde Bk BT" font-weight="300"><tspan x="0" y="0">Z</tspan></text>
  <text id="Z-2" data-name="Z" transform="matrix(0.731, -0.683, 0.683, 0.731, 252.311, 272.803)" font-size="10.154" font-family="AvantGardeITCbyBT-Demi, AvantGarde Bk BT" font-weight="300"><tspan x="0" y="0">Z</tspan></text>
  <text id="E-11" data-name="E" transform="matrix(0.684, -0.73, 0.73, 0.684, 257.614, 267.789)" font-size="10.154" font-family="AvantGardeITCbyBT-Demi, AvantGarde Bk BT" font-weight="300"><tspan x="0" y="0">E</tspan></text>
  <text id="T" transform="matrix(0.635, -0.773, 0.773, 0.635, 262.746, 262.222)" font-size="10.154" font-family="AvantGardeITCbyBT-Demi, AvantGarde Bk BT" font-weight="300"><tspan x="0" y="0">T</tspan></text>
  <text id="SINCE" transform="translate(27.356 164.67)" font-size="12.73" font-family="AvantGardeITCbyBT-Demi, AvantGarde Bk BT" font-weight="300"><tspan x="0" y="0" letter-spacing="0.1em">SI</tspan><tspan y="0" letter-spacing="0.099em">N</tspan><tspan y="0" letter-spacing="0.1em">C</tspan><tspan y="0">E</tspan></text>
  <text id="_1984" data-name="1984" transform="translate(256.15 164.67)" font-size="12.73" font-family="AvantGardeITCbyBT-Demi, AvantGarde Bk BT" font-weight="300"><tspan x="0" y="0" letter-spacing="0.099em">198</tspan><tspan y="0">4</tspan></text>
  <g id="Group_18" data-name="Group 18">
    <g id="Group_17" data-name="Group 17" clip-path="url(#clip-path)">
      <path id="Path_17" data-name="Path 17" d="M51.189,254.819l2.195-1.342,2.2,1.342-.6-2.5,1.954-1.673-2.565-.2-.987-2.377-.987,2.377-2.565.2,1.955,1.673Z" fill="#fbca00"/>
      <path id="Path_18" data-name="Path 18" d="M265.7,254.521l2.2-1.342,2.2,1.342-.6-2.5,1.954-1.673-2.565-.2-.987-2.377-.987,2.377-2.565.2,1.955,1.673Z" fill="#fbca00"/>
    </g>
  </g>
</svg>
