<svg xmlns="http://www.w3.org/2000/svg" width="36.394" height="36.394" viewBox="0 0 36.394 36.394">
  <g id="kampanya" transform="translate(0.5 0.5)">
    <g id="Group_328" data-name="Group 328">
      <g id="Group_301" data-name="Group 301">
        <path id="Path_3120" data-name="Path 3120" d="M29.649,9.893A4.148,4.148,0,0,0,23.1,6.513L17.191.606a2.074,2.074,0,0,0-3.223,2.569L7.607,20.943,2.966,25.585a2.074,2.074,0,0,0-2.36,3.338l5.866,5.866a2.075,2.075,0,0,0,3.338-2.36l4.262-4.262,3.422,3.422a2.077,2.077,0,0,0,2.933,0L25.314,26.7a2.077,2.077,0,0,0,.092-2.835l6.814-2.439A2.074,2.074,0,0,0,34.789,18.2L28.882,12.3A4.125,4.125,0,0,0,29.649,9.893Zm-1.765,1.4L24.1,7.511A2.766,2.766,0,0,1,27.883,11.3ZM9,21.144,13.76,7.858l1.978,1.979a.691.691,0,0,0,.978-.978L14.275,6.419,15.03,4.31,31.084,20.364,14.251,26.39ZM7.449,33.811,1.583,27.945a.691.691,0,0,1,.978-.977l5.865,5.865a.691.691,0,0,1-.977.978ZM4.028,26.479,8.206,22.3l4.888,4.888L8.915,31.366Zm20.51-1.245a.686.686,0,0,1-.2.489L19.449,30.61a.695.695,0,0,1-.978,0l-3.138-3.138,8.639-3.093.366.366A.686.686,0,0,1,24.538,25.233Zm-9.3-22.672a.691.691,0,0,1,.978-.978l17.6,17.6a.691.691,0,1,1-.978.977Z" fill="#fff"/>
        <g id="Group_300" data-name="Group 300">
          <path id="Path_3121" data-name="Path 3121" d="M29.649,9.893A4.148,4.148,0,0,0,23.1,6.513L17.191.606a2.074,2.074,0,0,0-3.223,2.569L7.607,20.943,2.966,25.585a2.074,2.074,0,0,0-2.36,3.338l5.866,5.866a2.075,2.075,0,0,0,3.338-2.36l4.262-4.262,3.422,3.422a2.077,2.077,0,0,0,2.933,0L25.314,26.7a2.077,2.077,0,0,0,.092-2.835l6.814-2.439A2.074,2.074,0,0,0,34.789,18.2L28.882,12.3A4.125,4.125,0,0,0,29.649,9.893Zm-1.765,1.4L24.1,7.511A2.766,2.766,0,0,1,27.883,11.3ZM9,21.144,13.76,7.858l1.978,1.979a.691.691,0,0,0,.978-.978L14.275,6.419,15.03,4.31,31.084,20.364,14.251,26.39ZM7.449,33.811,1.583,27.945a.691.691,0,0,1,.978-.977l5.865,5.865a.691.691,0,0,1-.977.978ZM4.028,26.479,8.206,22.3l4.888,4.888L8.915,31.366Zm20.51-1.245a.686.686,0,0,1-.2.489L19.449,30.61a.695.695,0,0,1-.978,0l-3.138-3.138,8.639-3.093.366.366A.686.686,0,0,1,24.538,25.233Zm-9.3-22.672a.691.691,0,0,1,.978-.978l17.6,17.6a.691.691,0,1,1-.978.977Z" fill="#fff" stroke="rgba(0,0,0,0)" stroke-width="1"/>
        </g>
      </g>
      <g id="Group_303" data-name="Group 303">
        <path id="Path_3122" data-name="Path 3122" d="M29.649,9.893A4.148,4.148,0,0,0,23.1,6.513L17.191.606a2.074,2.074,0,0,0-3.223,2.569L7.607,20.943,2.966,25.585a2.074,2.074,0,0,0-2.36,3.338l5.866,5.866a2.075,2.075,0,0,0,3.338-2.36l4.262-4.262,3.422,3.422a2.077,2.077,0,0,0,2.933,0L25.314,26.7a2.077,2.077,0,0,0,.092-2.835l6.814-2.439A2.074,2.074,0,0,0,34.789,18.2L28.882,12.3A4.125,4.125,0,0,0,29.649,9.893Zm-1.765,1.4L24.1,7.511A2.766,2.766,0,0,1,27.883,11.3ZM9,21.144,13.76,7.858l1.978,1.979a.691.691,0,0,0,.978-.978L14.275,6.419,15.03,4.31,31.084,20.364,14.251,26.39ZM7.449,33.811,1.583,27.945a.691.691,0,0,1,.978-.977l5.865,5.865a.691.691,0,0,1-.977.978ZM4.028,26.479,8.206,22.3l4.888,4.888L8.915,31.366Zm20.51-1.245a.686.686,0,0,1-.2.489L19.449,30.61a.695.695,0,0,1-.978,0l-3.138-3.138,8.639-3.093.366.366A.686.686,0,0,1,24.538,25.233Zm-9.3-22.672a.691.691,0,0,1,.978-.978l17.6,17.6a.691.691,0,1,1-.978.977Z" fill="#fff"/>
        <g id="Group_302" data-name="Group 302">
          <path id="Path_3123" data-name="Path 3123" d="M29.649,9.893A4.148,4.148,0,0,0,23.1,6.513L17.191.606a2.074,2.074,0,0,0-3.223,2.569L7.607,20.943,2.966,25.585a2.074,2.074,0,0,0-2.36,3.338l5.866,5.866a2.075,2.075,0,0,0,3.338-2.36l4.262-4.262,3.422,3.422a2.077,2.077,0,0,0,2.933,0L25.314,26.7a2.077,2.077,0,0,0,.092-2.835l6.814-2.439A2.074,2.074,0,0,0,34.789,18.2L28.882,12.3A4.125,4.125,0,0,0,29.649,9.893Zm-1.765,1.4L24.1,7.511A2.766,2.766,0,0,1,27.883,11.3ZM9,21.144,13.76,7.858l1.978,1.979a.691.691,0,0,0,.978-.978L14.275,6.419,15.03,4.31,31.084,20.364,14.251,26.39ZM7.449,33.811,1.583,27.945a.691.691,0,0,1,.978-.977l5.865,5.865a.691.691,0,0,1-.977.978ZM4.028,26.479,8.206,22.3l4.888,4.888L8.915,31.366Zm20.51-1.245a.686.686,0,0,1-.2.489L19.449,30.61a.695.695,0,0,1-.978,0l-3.138-3.138,8.639-3.093.366.366A.686.686,0,0,1,24.538,25.233Zm-9.3-22.672a.691.691,0,0,1,.978-.978l17.6,17.6a.691.691,0,1,1-.978.977Z" fill="#fff" stroke="rgba(0,0,0,0)" stroke-width="1"/>
        </g>
      </g>
      <g id="Group_305" data-name="Group 305" transform="translate(29.468 3.436)">
        <path id="Path_3124" data-name="Path 3124" d="M535.137,63.3a.691.691,0,0,0-.977-.977l-1.108,1.107a.691.691,0,0,0,.978.978Z" transform="translate(-532.85 -62.123)" fill="#fff"/>
        <g id="Group_304" data-name="Group 304">
          <path id="Path_3125" data-name="Path 3125" d="M535.137,63.3a.691.691,0,0,0-.977-.977l-1.108,1.107a.691.691,0,0,0,.978.978Z" transform="translate(-532.85 -62.123)" fill="#fff" stroke="rgba(0,0,0,0)" stroke-width="1"/>
        </g>
      </g>
      <g id="Group_307" data-name="Group 307" transform="translate(29.468 3.436)">
        <path id="Path_3126" data-name="Path 3126" d="M535.137,63.3a.691.691,0,0,0-.977-.977l-1.108,1.107a.691.691,0,0,0,.978.978Z" transform="translate(-532.85 -62.123)" fill="#fff"/>
        <g id="Group_306" data-name="Group 306">
          <path id="Path_3127" data-name="Path 3127" d="M535.137,63.3a.691.691,0,0,0-.977-.977l-1.108,1.107a.691.691,0,0,0,.978.978Z" transform="translate(-532.85 -62.123)" fill="#fff" stroke="rgba(0,0,0,0)" stroke-width="1"/>
        </g>
      </g>
      <g id="Group_309" data-name="Group 309" transform="translate(26.515 1.325)">
        <path id="Path_3128" data-name="Path 3128" d="M480.8,26.337c.04-.152.364-1.362.405-1.513a.691.691,0,0,0-1.336-.358l-.405,1.513a.691.691,0,1,0,1.336.358Z" transform="translate(-479.44 -23.953)" fill="#fff"/>
        <g id="Group_308" data-name="Group 308">
          <path id="Path_3129" data-name="Path 3129" d="M480.8,26.337c.04-.152.364-1.362.405-1.513a.691.691,0,0,0-1.336-.358l-.405,1.513a.691.691,0,1,0,1.336.358Z" transform="translate(-479.44 -23.953)" fill="#fff" stroke="rgba(0,0,0,0)" stroke-width="1"/>
        </g>
      </g>
      <g id="Group_311" data-name="Group 311" transform="translate(26.515 1.325)">
        <path id="Path_3130" data-name="Path 3130" d="M480.8,26.337c.04-.152.364-1.362.405-1.513a.691.691,0,0,0-1.336-.358l-.405,1.513a.691.691,0,1,0,1.336.358Z" transform="translate(-479.44 -23.953)" fill="#fff"/>
        <g id="Group_310" data-name="Group 310">
          <path id="Path_3131" data-name="Path 3131" d="M480.8,26.337c.04-.152.364-1.362.405-1.513a.691.691,0,0,0-1.336-.358l-.405,1.513a.691.691,0,1,0,1.336.358Z" transform="translate(-479.44 -23.953)" fill="#fff" stroke="rgba(0,0,0,0)" stroke-width="1"/>
        </g>
      </g>
      <g id="Group_313" data-name="Group 313" transform="translate(22.699 1.325)">
        <path id="Path_3132" data-name="Path 3132" d="M411.537,26.855a.692.692,0,0,0,.668-.87c-.04-.152-.365-1.362-.405-1.513a.691.691,0,0,0-1.336.358l.405,1.513A.692.692,0,0,0,411.537,26.855Z" transform="translate(-410.44 -23.96)" fill="#fff"/>
        <g id="Group_312" data-name="Group 312">
          <path id="Path_3133" data-name="Path 3133" d="M411.537,26.855a.692.692,0,0,0,.668-.87c-.04-.152-.365-1.362-.405-1.513a.691.691,0,0,0-1.336.358l.405,1.513A.692.692,0,0,0,411.537,26.855Z" transform="translate(-410.44 -23.96)" fill="#fff" stroke="rgba(0,0,0,0)" stroke-width="1"/>
        </g>
      </g>
      <g id="Group_315" data-name="Group 315" transform="translate(22.699 1.325)">
        <path id="Path_3134" data-name="Path 3134" d="M411.537,26.855a.692.692,0,0,0,.668-.87c-.04-.152-.365-1.362-.405-1.513a.691.691,0,0,0-1.336.358l.405,1.513A.692.692,0,0,0,411.537,26.855Z" transform="translate(-410.44 -23.96)" fill="#fff"/>
        <g id="Group_314" data-name="Group 314">
          <path id="Path_3135" data-name="Path 3135" d="M411.537,26.855a.692.692,0,0,0,.668-.87c-.04-.152-.365-1.362-.405-1.513a.691.691,0,0,0-1.336.358l.405,1.513A.692.692,0,0,0,411.537,26.855Z" transform="translate(-410.44 -23.96)" fill="#fff" stroke="rgba(0,0,0,0)" stroke-width="1"/>
        </g>
      </g>
      <g id="Group_317" data-name="Group 317" transform="translate(31.173 7.091)">
        <path id="Path_3136" data-name="Path 3136" d="M564.55,129.985l1.513-.405a.691.691,0,0,0-.358-1.336l-1.512.405a.691.691,0,1,0,.358,1.336Z" transform="translate(-563.68 -128.22)" fill="#fff"/>
        <g id="Group_316" data-name="Group 316">
          <path id="Path_3137" data-name="Path 3137" d="M564.55,129.985l1.513-.405a.691.691,0,0,0-.358-1.336l-1.512.405a.691.691,0,1,0,.358,1.336Z" transform="translate(-563.68 -128.22)" fill="#fff" stroke="rgba(0,0,0,0)" stroke-width="1"/>
        </g>
      </g>
      <g id="Group_319" data-name="Group 319" transform="translate(31.173 7.091)">
        <path id="Path_3138" data-name="Path 3138" d="M564.55,129.985l1.513-.405a.691.691,0,0,0-.358-1.336l-1.512.405a.691.691,0,1,0,.358,1.336Z" transform="translate(-563.68 -128.22)" fill="#fff"/>
        <g id="Group_318" data-name="Group 318">
          <path id="Path_3139" data-name="Path 3139" d="M564.55,129.985l1.513-.405a.691.691,0,0,0-.358-1.336l-1.512.405a.691.691,0,1,0,.358,1.336Z" transform="translate(-563.68 -128.22)" fill="#fff" stroke="rgba(0,0,0,0)" stroke-width="1"/>
        </g>
      </g>
      <g id="Group_321" data-name="Group 321" transform="translate(31.173 10.907)">
        <path id="Path_3140" data-name="Path 3140" d="M563.7,197.733a.691.691,0,0,0,.489.847l1.512.405a.7.7,0,0,0,.18.024.691.691,0,0,0,.178-1.359l-1.512-.405A.691.691,0,0,0,563.7,197.733Z" transform="translate(-563.68 -197.22)" fill="#fff"/>
        <g id="Group_320" data-name="Group 320">
          <path id="Path_3141" data-name="Path 3141" d="M563.7,197.733a.691.691,0,0,0,.489.847l1.512.405a.7.7,0,0,0,.18.024.691.691,0,0,0,.178-1.359l-1.512-.405A.691.691,0,0,0,563.7,197.733Z" transform="translate(-563.68 -197.22)" fill="#fff" stroke="rgba(0,0,0,0)" stroke-width="1"/>
        </g>
      </g>
      <g id="Group_323" data-name="Group 323" transform="translate(31.173 10.907)">
        <path id="Path_3142" data-name="Path 3142" d="M563.7,197.733a.691.691,0,0,0,.489.847l1.512.405a.7.7,0,0,0,.18.024.691.691,0,0,0,.178-1.359l-1.512-.405A.691.691,0,0,0,563.7,197.733Z" transform="translate(-563.68 -197.22)" fill="#fff"/>
        <g id="Group_322" data-name="Group 322">
          <path id="Path_3143" data-name="Path 3143" d="M563.7,197.733a.691.691,0,0,0,.489.847l1.512.405a.7.7,0,0,0,.18.024.691.691,0,0,0,.178-1.359l-1.512-.405A.691.691,0,0,0,563.7,197.733Z" transform="translate(-563.68 -197.22)" fill="#fff" stroke="rgba(0,0,0,0)" stroke-width="1"/>
        </g>
      </g>
      <g id="Group_325" data-name="Group 325" transform="translate(17.735 10.856)">
        <path id="Path_3144" data-name="Path 3144" d="M320.868,197.456h0a.691.691,0,1,0,.042-.977A.689.689,0,0,0,320.869,197.456Z" transform="translate(-320.687 -196.297)" fill="#fff"/>
        <g id="Group_324" data-name="Group 324">
          <path id="Path_3145" data-name="Path 3145" d="M320.868,197.456h0a.691.691,0,1,0,.042-.977A.689.689,0,0,0,320.869,197.456Z" transform="translate(-320.687 -196.297)" fill="#fff" stroke="rgba(0,0,0,0)" stroke-width="1"/>
        </g>
      </g>
      <g id="Group_327" data-name="Group 327" transform="translate(17.735 10.856)">
        <path id="Path_3146" data-name="Path 3146" d="M320.868,197.456h0a.691.691,0,1,0,.042-.977A.689.689,0,0,0,320.869,197.456Z" transform="translate(-320.687 -196.297)" fill="#fff"/>
        <g id="Group_326" data-name="Group 326">
          <path id="Path_3147" data-name="Path 3147" d="M320.868,197.456h0a.691.691,0,1,0,.042-.977A.689.689,0,0,0,320.869,197.456Z" transform="translate(-320.687 -196.297)" fill="#fff" stroke="rgba(0,0,0,0)" stroke-width="1"/>
        </g>
      </g>
    </g>
  </g>
</svg>
