<svg xmlns="http://www.w3.org/2000/svg" width="70" height="330" viewBox="0 0 70 330">
  <g id="Group_497" data-name="Group 497" transform="translate(-10285 -11168)">
    <g id="online-tr" transform="translate(10285 11168)">
      <rect id="Rectangle_397" data-name="Rectangle 397" width="70" height="330" fill="#00534d"/>
      <g id="Group_480" data-name="Group 480">
        <path id="Path_3248" data-name="Path 3248" d="M34.474,250.568c-6.2,0-10.045-3.9-10.045-9.806,0-5.8,3.76-9.777,10.072-9.777,6.124,0,10.072,3.789,10.072,9.777C44.573,246.619,40.733,250.568,34.474,250.568Zm0-14.13c-3.088,0-5.345,1.53-5.345,4.353,0,2.659,2.176,4.324,5.372,4.324,3.356,0,5.372-1.8,5.372-4.324C39.873,238,37.671,236.438,34.474,236.438Z" fill="#d78935"/>
        <path id="Path_3249" data-name="Path 3249" d="M41.673,229.053H27.356a2.272,2.272,0,0,1-2.579-2.391,2.919,2.919,0,0,1,1.452-2.579l8.649-7.439v-.053H27.33a2.4,2.4,0,0,1-2.552-2.553,2.362,2.362,0,0,1,2.552-2.525H41.647a2.337,2.337,0,0,1,2.579,2.444c0,1.128-.484,1.8-1.692,2.767l-8.355,7.2v.054h7.495a2.538,2.538,0,1,1,0,5.076Z" fill="#d78935"/>
        <path id="Path_3250" data-name="Path 3250" d="M41.565,209.1H27.329a2.538,2.538,0,1,1,0-5.076H39.361v-4.593a2.235,2.235,0,0,1,2.339-2.5,2.291,2.291,0,0,1,2.363,2.444v7.253A2.47,2.47,0,0,1,41.565,209.1Z" fill="#d78935"/>
        <path id="Path_3251" data-name="Path 3251" d="M41.673,195.772H27.329a2.538,2.538,0,1,1,0-5.076H41.673a2.538,2.538,0,1,1,0,5.076Z" fill="#d78935"/>
        <path id="Path_3252" data-name="Path 3252" d="M41.673,188.279H27.356a2.272,2.272,0,0,1-2.579-2.39,2.917,2.917,0,0,1,1.452-2.579l8.649-7.44v-.054H27.33a2.4,2.4,0,0,1-2.552-2.552,2.362,2.362,0,0,1,2.552-2.524H41.647a2.336,2.336,0,0,1,2.579,2.443c0,1.127-.484,1.8-1.692,2.766l-8.355,7.2v.055h7.495a2.538,2.538,0,1,1,0,5.076Z" fill="#d78935"/>
        <path id="Path_3253" data-name="Path 3253" d="M41.592,168.322H27.409a2.489,2.489,0,0,1-2.471-2.417V159a2.284,2.284,0,0,1,2.363-2.417A2.221,2.221,0,0,1,29.639,159v4.271h2.417V159.4a2.243,2.243,0,0,1,2.364-2.418,2.216,2.216,0,0,1,2.364,2.418v3.84h2.577v-4.352a2.2,2.2,0,0,1,2.339-2.444,2.269,2.269,0,0,1,2.363,2.417V165.9A2.471,2.471,0,0,1,41.592,168.322Z" fill="#d78935"/>
        <path id="Path_3254" data-name="Path 3254" d="M42.1,147.723a8.514,8.514,0,0,1-2.82-.645l-11.738-4.4c-1.907-.7-3.115-1.773-3.115-3.68,0-1.8,1.208-2.9,3.115-3.626l11.443-4.3a9.715,9.715,0,0,1,3.115-.725,2.1,2.1,0,0,1,2.123,2.39c0,1.532-.94,2.23-2.444,2.659l-1.236.4v6.5l1.128.295c1.986.618,2.553,1.4,2.553,2.713A2.123,2.123,0,0,1,42.1,147.723Zm-6.286-10.476-5.856,1.639v.054l5.856,1.854Z" fill="#d78935"/>
        <path id="Path_3255" data-name="Path 3255" d="M41.565,129H27.329a2.539,2.539,0,1,1,0-5.077H39.361v-4.593a2.235,2.235,0,0,1,2.339-2.5,2.291,2.291,0,0,1,2.363,2.444v7.253A2.47,2.47,0,0,1,41.565,129Z" fill="#d78935"/>
        <path id="Path_3256" data-name="Path 3256" d="M41.673,115.679H27.329a2.539,2.539,0,1,1,0-5.077H41.673a2.539,2.539,0,1,1,0,5.077Z" fill="#d78935"/>
        <path id="Path_3257" data-name="Path 3257" d="M49.059,105.205c-.455,0-1.021-.35-1.021-.779,0-.4.431-1.021.431-1.4a.931.931,0,0,0-.914-.967c-.4,0-.752.269-.752.967v.35c0,.268-.215.59-.724.59A2.151,2.151,0,0,1,44.9,103.3l-.351-.3a10.764,10.764,0,0,1-1.072,4.3,2.8,2.8,0,0,1-2.339,1.8,2.379,2.379,0,0,1-2.525-2.39,4.939,4.939,0,0,1,.217-1.29,11.406,11.406,0,0,0,.778-3.545c0-1.209-.457-1.719-1.209-1.719-.832,0-1.234.779-1.718,2.363-.833,2.954-1.586,6.257-5.723,6.257-4.109,0-6.526-2.9-6.526-7.306a10.825,10.825,0,0,1,.457-3.384c.51-1.53,1.424-2.336,2.659-2.336a2.171,2.171,0,0,1,2.338,2.283,6.036,6.036,0,0,1-.107,1.021,14.343,14.343,0,0,0-.431,2.632c0,.994.376,1.584,1.128,1.584.779,0,.859-.914,1.37-2.525,1.155-3.6,2.069-6.1,6.232-6.1,3.814,0,6.017,2.336,6.419,6.205l1.074.833.027-.027a1.858,1.858,0,0,1-.081-.538A2.185,2.185,0,0,1,47.9,98.784c1.585,0,2.5,1.907,2.5,3.519C50.4,104,49.945,105.205,49.059,105.205Z" fill="#d78935"/>
        <path id="Path_3258" data-name="Path 3258" d="M42.4,88.041,28.7,93.628a3.5,3.5,0,0,1-1.477.4,2.389,2.389,0,0,1-2.446-2.39c0-1.37.4-2.1,2.473-2.9L35.6,85.49v-.054l-8.085-3.115c-2.148-.833-2.741-1.37-2.741-3.009a2.46,2.46,0,0,1,2.446-2.391,4.9,4.9,0,0,1,1.719.484l13.537,5.667a2.492,2.492,0,0,1,1.747,2.471A2.576,2.576,0,0,1,42.4,88.041Z" fill="#d78935"/>
        <path id="Path_3259" data-name="Path 3259" d="M41.592,75.82H27.409A2.49,2.49,0,0,1,24.938,73.4V66.5A2.284,2.284,0,0,1,27.3,64.083,2.221,2.221,0,0,1,29.639,66.5v4.271h2.417V66.9a2.242,2.242,0,0,1,2.364-2.417A2.216,2.216,0,0,1,36.784,66.9v3.841h2.577V66.392A2.2,2.2,0,0,1,41.7,63.949a2.269,2.269,0,0,1,2.363,2.417V73.4A2.47,2.47,0,0,1,41.592,75.82Z" fill="#d78935"/>
        <path id="Path_3260" data-name="Path 3260" d="M41.673,62.364H27.409a2.472,2.472,0,0,1-2.471-2.417V54.333c0-3.841,2.363-6.554,6.178-6.554a5.23,5.23,0,0,1,5.184,3.68l.053.161,3.305-3.036a3.383,3.383,0,0,1,2.177-1.074,2.482,2.482,0,0,1,2.391,2.713,3.082,3.082,0,0,1-1.559,2.552L36.65,57.233v.054h5.022a2.539,2.539,0,1,1,0,5.077Zm-8.7-7.869a1.624,1.624,0,0,0-1.746-1.639,1.575,1.575,0,0,0-1.584,1.639v2.793h3.331V54.495Z" fill="#d78935"/>
        <path id="Path_3261" data-name="Path 3261" d="M20.56,45.632a2.337,2.337,0,1,1,2.311-2.337A2.338,2.338,0,0,1,20.56,45.632Zm21.113.187H27.329a2.538,2.538,0,1,1,0-5.076H41.673a2.538,2.538,0,1,1,0,5.076Z" fill="#d78935"/>
        <path id="Path_3262" data-name="Path 3262" d="M49.059,35.344c-.455,0-1.021-.35-1.021-.779,0-.4.431-1.021.431-1.4a.929.929,0,0,0-.914-.966c-.4,0-.752.269-.752.966v.349c0,.269-.215.591-.724.591a2.144,2.144,0,0,1-1.183-.671l-.351-.3a10.768,10.768,0,0,1-1.072,4.3,2.805,2.805,0,0,1-2.339,1.8,2.379,2.379,0,0,1-2.525-2.391,4.932,4.932,0,0,1,.217-1.289,11.413,11.413,0,0,0,.778-3.546c0-1.208-.457-1.719-1.209-1.719-.832,0-1.234.779-1.718,2.363-.833,2.956-1.586,6.259-5.723,6.259-4.109,0-6.526-2.9-6.526-7.306a10.82,10.82,0,0,1,.457-3.384c.51-1.531,1.424-2.337,2.659-2.337a2.172,2.172,0,0,1,2.338,2.284,6.036,6.036,0,0,1-.107,1.021,14.343,14.343,0,0,0-.431,2.632c0,.994.376,1.585,1.128,1.585.779,0,.859-.914,1.37-2.525,1.155-3.6,2.069-6.1,6.232-6.1,3.814,0,6.017,2.336,6.419,6.2l1.074.833.027-.027a1.846,1.846,0,0,1-.081-.537A2.185,2.185,0,0,1,47.9,28.925c1.585,0,2.5,1.907,2.5,3.519C50.4,34.135,49.945,35.344,49.059,35.344Z" fill="#d78935"/>
      </g>
    </g>
    <g id="GREEN_BROWN_DİKEY_LOGO_ACIK_RENK" transform="translate(10293.975 11433.833)">
      <path id="Path_3196" data-name="Path 3196" d="M25.54,155.154v-13.9c0-.089.007-.182.007-.275s0-.182-.007-.275v-.078a9.273,9.273,0,1,0-13.031,8.826c.182.082.371.157.56.228a1.8,1.8,0,0,0,.342.036,1.671,1.671,0,0,0,.774-3.152c-.1-.036-.2-.078-.292-.121a5.959,5.959,0,1,1,8.33-5.738v.549a5.969,5.969,0,0,1-3.463,5.139c-.15.071-.3.132-.46.189a1.687,1.687,0,0,0,1.134,3.113c.242-.089.481-.189.717-.3a9.358,9.358,0,0,0,2.072-1.316v8.438a5.8,5.8,0,0,1-5.777,5.649,5.934,5.934,0,0,1-5.923-5.331c0-.039.007-.082.007-.121a1.715,1.715,0,0,0-.05-.407v0a1.68,1.68,0,0,0-3.3.218h0a1.679,1.679,0,0,0-.011.189,1.458,1.458,0,0,0,.043.357,9.278,9.278,0,0,0,9.233,8.409,8.883,8.883,0,0,0,6.473-2.774,9.462,9.462,0,0,0,2.6-5.913,2.366,2.366,0,0,0,.029-.31V156.1c0-.1,0-.2.007-.3A4.436,4.436,0,0,0,25.54,155.154Z" transform="translate(0 -124.014)" fill="#fff"/>
      <path id="Path_3197" data-name="Path 3197" d="M613.685,767.689a1.016,1.016,0,0,1-.974.556,1.569,1.569,0,0,1-1.145-.467,1.546,1.546,0,0,1,0-2.215,1.56,1.56,0,0,1,1.145-.464,1.109,1.109,0,0,1,1.016.563v-.332h.563v2.14a1.453,1.453,0,0,1-.453,1.073,1.561,1.561,0,0,1-1.152.478,1.541,1.541,0,0,1-1.141-.464,3.249,3.249,0,0,1-.267-.325l.539-.2a1.35,1.35,0,0,0,.153.175.979.979,0,0,0,.72.307A.9.9,0,0,0,613.685,767.689Zm.036-1.259a1.077,1.077,0,0,0-.292-.535,1,1,0,0,0-1.448,0,1.112,1.112,0,0,0,0,1.533,1.008,1.008,0,0,0,1.459,0,1.015,1.015,0,0,0,.282-.517Z" transform="translate(-582.557 -734.826)" fill="#fff"/>
      <path id="Path_3198" data-name="Path 3198" d="M714.873,770.185a.955.955,0,0,0-.6.307.909.909,0,0,0-.21.62v1.494H713.5v-2.846h.563v.4a.771.771,0,0,1,.535-.464Z" transform="translate(-681.305 -739.262)" fill="#fff"/>
      <path id="Path_3199" data-name="Path 3199" d="M761.481,766.566v.011a1.046,1.046,0,0,0,.307.763,1.012,1.012,0,0,0,1.459-.007c.029-.029.086-.093.168-.2l.528.185a1.8,1.8,0,0,1-.275.353,1.636,1.636,0,0,1-2.3.011,1.508,1.508,0,0,1-.467-1.105,1.531,1.531,0,0,1,.467-1.113,1.64,1.64,0,0,1,2.3.007,1.489,1.489,0,0,1,.406,1.095h-2.593Zm.1-.492h1.865a.868.868,0,0,0-.927-.578A.884.884,0,0,0,761.581,766.073Z" transform="translate(-727.015 -734.73)" fill="#fff"/>
      <path id="Path_3200" data-name="Path 3200" d="M858.181,766.566v.011a1.046,1.046,0,0,0,.307.763,1.012,1.012,0,0,0,1.458-.007c.029-.029.086-.093.168-.2l.528.185a1.8,1.8,0,0,1-.275.353,1.636,1.636,0,0,1-2.3.011,1.508,1.508,0,0,1-.467-1.105,1.532,1.532,0,0,1,.467-1.113,1.64,1.64,0,0,1,2.3.007,1.489,1.489,0,0,1,.407,1.095h-2.593Zm.1-.492h1.865a.868.868,0,0,0-.927-.578A.884.884,0,0,0,858.281,766.073Z" transform="translate(-820.266 -734.73)" fill="#fff"/>
      <path id="Path_3201" data-name="Path 3201" d="M959.163,767.881V770H958.6v-2.846h.563a.818.818,0,0,1,.592-.157,1.175,1.175,0,0,1,.87.332,1.112,1.112,0,0,1,.335.806V770H960.4v-1.84a.642.642,0,0,0-.2-.481.628.628,0,0,0-.449-.193.609.609,0,0,0-.439.182A.725.725,0,0,0,959.163,767.881Z" transform="translate(-917.665 -736.658)" fill="#fff"/>
      <path id="Path_3202" data-name="Path 3202" d="M615.2,886.8h.563v1.961a1.1,1.1,0,0,1,1.013-.56,1.558,1.558,0,0,1,1.145.467,1.55,1.55,0,0,1,0,2.218,1.544,1.544,0,0,1-1.145.467,1.1,1.1,0,0,1-1.013-.563v.489H615.2Zm.563,2.739v.478a.984.984,0,0,0,.289.528,1,1,0,0,0,.72.3,1.007,1.007,0,0,0,.727-.307,1.036,1.036,0,0,0,.31-.763,1.051,1.051,0,0,0-.31-.77,1,1,0,0,0-.727-.31,1.011,1.011,0,0,0-.735.317A.974.974,0,0,0,615.763,889.539Z" transform="translate(-586.511 -852.186)" fill="#fff"/>
      <path id="Path_3203" data-name="Path 3203" d="M719.073,931.481a.954.954,0,0,0-.6.307.909.909,0,0,0-.21.62V933.9H717.7v-2.846h.563v.407A.771.771,0,0,1,718.8,931Z" transform="translate(-685.355 -894.81)" fill="#fff"/>
      <path id="Path_3204" data-name="Path 3204" d="M768.612,926.1a1.558,1.558,0,0,1,1.145.467,1.558,1.558,0,0,1,0,2.218,1.544,1.544,0,0,1-1.145.467,1.569,1.569,0,0,1-1.145-.467A1.508,1.508,0,0,1,767,927.68a1.532,1.532,0,0,1,.467-1.113A1.555,1.555,0,0,1,768.612,926.1Zm-.727.81a1.112,1.112,0,0,0,0,1.533.993.993,0,0,0,.727.307,1.007,1.007,0,0,0,.728-.307,1.036,1.036,0,0,0,.31-.763,1.052,1.052,0,0,0-.31-.77,1,1,0,0,0-.728-.31A.969.969,0,0,0,767.884,926.91Z" transform="translate(-732.897 -890.085)" fill="#fff"/>
      <path id="Path_3205" data-name="Path 3205" d="M867.387,932.6l-.966,2.846h-.4l-.481-1.348-.478,1.348h-.4L863.7,932.6h.606l.571,1.769.478-1.327h.378l.478,1.327.567-1.769Z" transform="translate(-826.149 -896.353)" fill="#fff"/>
      <path id="Path_3206" data-name="Path 3206" d="M976.164,929.081V931.2H975.6v-2.846h.563a.818.818,0,0,1,.592-.157,1.174,1.174,0,0,1,.87.332,1.113,1.113,0,0,1,.335.806V931.2h-.56v-1.84a.643.643,0,0,0-.2-.481.628.628,0,0,0-.449-.193.609.609,0,0,0-.439.182A.7.7,0,0,0,976.164,929.081Z" transform="translate(-934.058 -892.11)" fill="#fff"/>
      <path id="Path_3207" data-name="Path 3207" d="M688.651,883.885H674.793a.193.193,0,1,1,0-.385h13.858a.192.192,0,0,1,.193.193A.194.194,0,0,1,688.651,883.885Z" transform="translate(-643.792 -849.004)" fill="#fff"/>
      <path id="Path_3208" data-name="Path 3208" d="M206.9,375.1a2.818,2.818,0,0,1,.353,4.39c-1.041,1.038-1.708,1.031-2.739,0a2.773,2.773,0,0,1-.667-3.135c.521-1.18,1.822-2.111,3.053-1.255Z" transform="translate(-189.6 -358.414)" fill="#898f65"/>
      <path id="Path_3209" data-name="Path 3209" d="M221.69,637.332l1.091,5.014a1.7,1.7,0,1,1-3.331,0l1.091-5.014a.589.589,0,0,1,1.148,0Z" transform="translate(-204.837 -611.174)" fill="#653a2b"/>
      <path id="Path_3210" data-name="Path 3210" d="M557.675,8.274a9.227,9.227,0,0,0-5.873,2.1V4.758a1.658,1.658,0,1,0-3.316,0V16.32a9.272,9.272,0,1,0,9.19-8.045Zm0,15.231a5.959,5.959,0,1,1,5.959-5.959A5.968,5.968,0,0,1,557.675,23.505Z" transform="translate(-522.093)" fill="#fff"/>
    </g>
  </g>
</svg>
