<svg xmlns="http://www.w3.org/2000/svg" width="59.982" height="59.982" viewBox="0 0 59.982 59.982"><defs><style>.a{fill:#fff;}.b{fill:#db0000;}</style></defs><circle class="a" cx="20" cy="20" r="20" transform="translate(9.036 9.279)"/><g transform="translate(0 0)"><g transform="translate(0)"><path class="b" d="M29.991,0A29.991,29.991,0,1,1,0,30.009,30.034,30.034,0,0,1,29.991,0ZM26.575,18.084a4.028,4.028,0,0,0-1.824.434,3.753,3.753,0,0,0-1.621,1.794,19.348,19.348,0,0,0-.521,2.112,46.256,46.256,0,0,0-.492,7.552,53.525,53.525,0,0,0,.434,7.321,16.394,16.394,0,0,0,.695,2.633A3.644,3.644,0,0,0,26.459,41.9h.116a10.062,10.062,0,0,0,2.692-.81,44.2,44.2,0,0,0,11.551-7.87h0l.174-.174a11.941,11.941,0,0,0,.811-.926,3.486,3.486,0,0,0,.695-2.109,3.655,3.655,0,0,0-.753-2.26c-.116-.116-.55-.608-.955-1.013A44.257,44.257,0,0,0,28.978,18.75,9.852,9.852,0,0,0,26.575,18.084Z" transform="translate(0)"/></g></g></svg>