<svg xmlns="http://www.w3.org/2000/svg" width="33.133" height="36.394" viewBox="0 0 33.133 36.394">
  <g id="guvenli" transform="translate(0.5 0.5)">
    <g id="Group_299" data-name="Group 299" transform="translate(0)">
      <g id="Group_280" data-name="Group 280" transform="translate(14.906 16.056)">
        <path id="Path_3100" data-name="Path 3100" d="M299.7,292.565V294a.5.5,0,1,0,1.008,0v-1.435a1.18,1.18,0,1,0-1.008,0Z" transform="translate(-299.02 -290.32)" fill="#fff"/>
        <g id="Group_279" data-name="Group 279">
          <path id="Path_3101" data-name="Path 3101" d="M299.7,292.565V294a.5.5,0,1,0,1.008,0v-1.435a1.18,1.18,0,1,0-1.008,0Z" transform="translate(-299.02 -290.32)" fill="#fff" stroke="rgba(0,0,0,0)" stroke-width="1"/>
        </g>
      </g>
      <g id="Group_282" data-name="Group 282" transform="translate(14.906 16.056)">
        <path id="Path_3102" data-name="Path 3102" d="M299.7,292.565V294a.5.5,0,1,0,1.008,0v-1.435a1.18,1.18,0,1,0-1.008,0Z" transform="translate(-299.02 -290.32)" fill="#fff"/>
        <g id="Group_281" data-name="Group 281">
          <path id="Path_3103" data-name="Path 3103" d="M299.7,292.565V294a.5.5,0,1,0,1.008,0v-1.435a1.18,1.18,0,1,0-1.008,0Z" transform="translate(-299.02 -290.32)" fill="#fff" stroke="rgba(0,0,0,0)" stroke-width="1"/>
        </g>
      </g>
      <g id="Group_284" data-name="Group 284" transform="translate(2.474 2.333)">
        <path id="Path_3104" data-name="Path 3104" d="M94.124,42.19H81.5a1.592,1.592,0,0,0-1.433.9,8.958,8.958,0,0,1-4.846,4.45,1.578,1.578,0,0,0-1,1.477v3.07a21.451,21.451,0,0,0,3.394,11.5,24.678,24.678,0,0,0,9.395,8.534l.064.033a1.589,1.589,0,0,0,1.48,0l.064-.034a24.681,24.681,0,0,0,9.394-8.534,21.448,21.448,0,0,0,3.394-11.5v-3.07a1.578,1.578,0,0,0-1-1.477,8.958,8.958,0,0,1-4.846-4.45A1.592,1.592,0,0,0,94.124,42.19ZM88.148,71.228l-.064.033a.582.582,0,0,1-.543,0l-.064-.033a23.676,23.676,0,0,1-9.013-8.183,20.443,20.443,0,0,1-3.237-10.958v-3.07a.577.577,0,0,1,.364-.54,9.961,9.961,0,0,0,5.385-4.955A.581.581,0,0,1,81.5,43.2H94.124a.581.581,0,0,1,.523.326,9.962,9.962,0,0,0,5.385,4.955.577.577,0,0,1,.364.54v3.07Q99.278,59.71,97.16,63.045A23.672,23.672,0,0,1,88.148,71.228Z" transform="translate(-74.22 -42.19)" fill="#fff"/>
        <g id="Group_283" data-name="Group 283">
          <path id="Path_3105" data-name="Path 3105" d="M94.124,42.19H81.5a1.592,1.592,0,0,0-1.433.9,8.958,8.958,0,0,1-4.846,4.45,1.578,1.578,0,0,0-1,1.477v3.07a21.451,21.451,0,0,0,3.394,11.5,24.678,24.678,0,0,0,9.395,8.534l.064.033a1.589,1.589,0,0,0,1.48,0l.064-.034a24.681,24.681,0,0,0,9.394-8.534,21.448,21.448,0,0,0,3.394-11.5v-3.07a1.578,1.578,0,0,0-1-1.477,8.958,8.958,0,0,1-4.846-4.45A1.592,1.592,0,0,0,94.124,42.19ZM88.148,71.228l-.064.033a.582.582,0,0,1-.543,0l-.064-.033a23.676,23.676,0,0,1-9.013-8.183,20.443,20.443,0,0,1-3.237-10.958v-3.07a.577.577,0,0,1,.364-.54,9.961,9.961,0,0,0,5.385-4.955A.581.581,0,0,1,81.5,43.2H94.124a.581.581,0,0,1,.523.326,9.962,9.962,0,0,0,5.385,4.955.577.577,0,0,1,.364.54v3.07Q99.278,59.71,97.16,63.045A23.672,23.672,0,0,1,88.148,71.228Z" transform="translate(-74.22 -42.19)" fill="#fff" stroke="rgba(0,0,0,0)" stroke-width="1"/>
        </g>
      </g>
      <g id="Group_286" data-name="Group 286" transform="translate(2.474 2.333)">
        <path id="Path_3106" data-name="Path 3106" d="M94.124,42.19H81.5a1.592,1.592,0,0,0-1.433.9,8.958,8.958,0,0,1-4.846,4.45,1.578,1.578,0,0,0-1,1.477v3.07a21.451,21.451,0,0,0,3.394,11.5,24.678,24.678,0,0,0,9.395,8.534l.064.033a1.589,1.589,0,0,0,1.48,0l.064-.034a24.681,24.681,0,0,0,9.394-8.534,21.448,21.448,0,0,0,3.394-11.5v-3.07a1.578,1.578,0,0,0-1-1.477,8.958,8.958,0,0,1-4.846-4.45A1.592,1.592,0,0,0,94.124,42.19ZM88.148,71.228l-.064.033a.582.582,0,0,1-.543,0l-.064-.033a23.676,23.676,0,0,1-9.013-8.183,20.443,20.443,0,0,1-3.237-10.958v-3.07a.577.577,0,0,1,.364-.54,9.961,9.961,0,0,0,5.385-4.955A.581.581,0,0,1,81.5,43.2H94.124a.581.581,0,0,1,.523.326,9.962,9.962,0,0,0,5.385,4.955.577.577,0,0,1,.364.54v3.07Q99.278,59.71,97.16,63.045A23.672,23.672,0,0,1,88.148,71.228Z" transform="translate(-74.22 -42.19)" fill="#fff"/>
        <g id="Group_285" data-name="Group 285">
          <path id="Path_3107" data-name="Path 3107" d="M94.124,42.19H81.5a1.592,1.592,0,0,0-1.433.9,8.958,8.958,0,0,1-4.846,4.45,1.578,1.578,0,0,0-1,1.477v3.07a21.451,21.451,0,0,0,3.394,11.5,24.678,24.678,0,0,0,9.395,8.534l.064.033a1.589,1.589,0,0,0,1.48,0l.064-.034a24.681,24.681,0,0,0,9.394-8.534,21.448,21.448,0,0,0,3.394-11.5v-3.07a1.578,1.578,0,0,0-1-1.477,8.958,8.958,0,0,1-4.846-4.45A1.592,1.592,0,0,0,94.124,42.19ZM88.148,71.228l-.064.033a.582.582,0,0,1-.543,0l-.064-.033a23.676,23.676,0,0,1-9.013-8.183,20.443,20.443,0,0,1-3.237-10.958v-3.07a.577.577,0,0,1,.364-.54,9.961,9.961,0,0,0,5.385-4.955A.581.581,0,0,1,81.5,43.2H94.124a.581.581,0,0,1,.523.326,9.962,9.962,0,0,0,5.385,4.955.577.577,0,0,1,.364.54v3.07Q99.278,59.71,97.16,63.045A23.672,23.672,0,0,1,88.148,71.228Z" transform="translate(-74.22 -42.19)" fill="#fff" stroke="rgba(0,0,0,0)" stroke-width="1"/>
        </g>
      </g>
      <g id="Group_288" data-name="Group 288" transform="translate(0.551 16.97)">
        <path id="Path_3108" data-name="Path 3108" d="M56.658,323.427l-1.536.808a.342.342,0,0,1-.317,0l-1.537-.808a24.589,24.589,0,0,1-12.825-16.176.5.5,0,1,0-.983.221A25.6,25.6,0,0,0,52.8,324.319l1.536.807a1.347,1.347,0,0,0,1.254,0l1.537-.808A25.6,25.6,0,0,0,70.46,307.5a.5.5,0,1,0-.983-.222A24.6,24.6,0,0,1,56.658,323.427Z" transform="translate(-39.447 -306.858)" fill="#fff"/>
        <g id="Group_287" data-name="Group 287">
          <path id="Path_3109" data-name="Path 3109" d="M56.658,323.427l-1.536.808a.342.342,0,0,1-.317,0l-1.537-.808a24.589,24.589,0,0,1-12.825-16.176.5.5,0,1,0-.983.221A25.6,25.6,0,0,0,52.8,324.319l1.536.807a1.347,1.347,0,0,0,1.254,0l1.537-.808A25.6,25.6,0,0,0,70.46,307.5a.5.5,0,1,0-.983-.222A24.6,24.6,0,0,1,56.658,323.427Z" transform="translate(-39.447 -306.858)" fill="#fff" stroke="rgba(0,0,0,0)" stroke-width="1"/>
        </g>
      </g>
      <g id="Group_290" data-name="Group 290" transform="translate(0.551 16.97)">
        <path id="Path_3110" data-name="Path 3110" d="M56.658,323.427l-1.536.808a.342.342,0,0,1-.317,0l-1.537-.808a24.589,24.589,0,0,1-12.825-16.176.5.5,0,1,0-.983.221A25.6,25.6,0,0,0,52.8,324.319l1.536.807a1.347,1.347,0,0,0,1.254,0l1.537-.808A25.6,25.6,0,0,0,70.46,307.5a.5.5,0,1,0-.983-.222A24.6,24.6,0,0,1,56.658,323.427Z" transform="translate(-39.447 -306.858)" fill="#fff"/>
        <g id="Group_289" data-name="Group 289">
          <path id="Path_3111" data-name="Path 3111" d="M56.658,323.427l-1.536.808a.342.342,0,0,1-.317,0l-1.537-.808a24.589,24.589,0,0,1-12.825-16.176.5.5,0,1,0-.983.221A25.6,25.6,0,0,0,52.8,324.319l1.536.807a1.347,1.347,0,0,0,1.254,0l1.537-.808A25.6,25.6,0,0,0,70.46,307.5a.5.5,0,1,0-.983-.222A24.6,24.6,0,0,1,56.658,323.427Z" transform="translate(-39.447 -306.858)" fill="#fff" stroke="rgba(0,0,0,0)" stroke-width="1"/>
        </g>
      </g>
      <g id="Group_292" data-name="Group 292">
        <path id="Path_3112" data-name="Path 3112" d="M53.938,0H37.155a1.361,1.361,0,0,0-1.336,1.172,5.6,5.6,0,0,1-5.143,4.591A1.339,1.339,0,0,0,29.48,7.1v5.409a23.224,23.224,0,0,0,.121,2.362.5.5,0,0,0,.5.452l.052,0a.5.5,0,0,0,.45-.552,22.159,22.159,0,0,1-.116-2.259V7.1a.337.337,0,0,1,.294-.337,6.606,6.606,0,0,0,6.035-5.453.344.344,0,0,1,.338-.3H53.938a.344.344,0,0,1,.338.3,6.606,6.606,0,0,0,6.035,5.453.337.337,0,0,1,.294.337v5.409a22.2,22.2,0,0,1-.113,2.236.5.5,0,1,0,1,.1,23.226,23.226,0,0,0,.118-2.338V7.1a1.339,1.339,0,0,0-1.2-1.339,5.6,5.6,0,0,1-5.143-4.591A1.361,1.361,0,0,0,53.938,0Z" transform="translate(-29.48)" fill="#fff"/>
        <g id="Group_291" data-name="Group 291">
          <path id="Path_3113" data-name="Path 3113" d="M53.938,0H37.155a1.361,1.361,0,0,0-1.336,1.172,5.6,5.6,0,0,1-5.143,4.591A1.339,1.339,0,0,0,29.48,7.1v5.409a23.224,23.224,0,0,0,.121,2.362.5.5,0,0,0,.5.452l.052,0a.5.5,0,0,0,.45-.552,22.159,22.159,0,0,1-.116-2.259V7.1a.337.337,0,0,1,.294-.337,6.606,6.606,0,0,0,6.035-5.453.344.344,0,0,1,.338-.3H53.938a.344.344,0,0,1,.338.3,6.606,6.606,0,0,0,6.035,5.453.337.337,0,0,1,.294.337v5.409a22.2,22.2,0,0,1-.113,2.236.5.5,0,1,0,1,.1,23.226,23.226,0,0,0,.118-2.338V7.1a1.339,1.339,0,0,0-1.2-1.339,5.6,5.6,0,0,1-5.143-4.591A1.361,1.361,0,0,0,53.938,0Z" transform="translate(-29.48)" fill="#fff" stroke="rgba(0,0,0,0)" stroke-width="1"/>
        </g>
      </g>
      <g id="Group_294" data-name="Group 294">
        <path id="Path_3114" data-name="Path 3114" d="M53.938,0H37.155a1.361,1.361,0,0,0-1.336,1.172,5.6,5.6,0,0,1-5.143,4.591A1.339,1.339,0,0,0,29.48,7.1v5.409a23.224,23.224,0,0,0,.121,2.362.5.5,0,0,0,.5.452l.052,0a.5.5,0,0,0,.45-.552,22.159,22.159,0,0,1-.116-2.259V7.1a.337.337,0,0,1,.294-.337,6.606,6.606,0,0,0,6.035-5.453.344.344,0,0,1,.338-.3H53.938a.344.344,0,0,1,.338.3,6.606,6.606,0,0,0,6.035,5.453.337.337,0,0,1,.294.337v5.409a22.2,22.2,0,0,1-.113,2.236.5.5,0,1,0,1,.1,23.226,23.226,0,0,0,.118-2.338V7.1a1.339,1.339,0,0,0-1.2-1.339,5.6,5.6,0,0,1-5.143-4.591A1.361,1.361,0,0,0,53.938,0Z" transform="translate(-29.48)" fill="#fff"/>
        <g id="Group_293" data-name="Group 293">
          <path id="Path_3115" data-name="Path 3115" d="M53.938,0H37.155a1.361,1.361,0,0,0-1.336,1.172,5.6,5.6,0,0,1-5.143,4.591A1.339,1.339,0,0,0,29.48,7.1v5.409a23.224,23.224,0,0,0,.121,2.362.5.5,0,0,0,.5.452l.052,0a.5.5,0,0,0,.45-.552,22.159,22.159,0,0,1-.116-2.259V7.1a.337.337,0,0,1,.294-.337,6.606,6.606,0,0,0,6.035-5.453.344.344,0,0,1,.338-.3H53.938a.344.344,0,0,1,.338.3,6.606,6.606,0,0,0,6.035,5.453.337.337,0,0,1,.294.337v5.409a22.2,22.2,0,0,1-.113,2.236.5.5,0,1,0,1,.1,23.226,23.226,0,0,0,.118-2.338V7.1a1.339,1.339,0,0,0-1.2-1.339,5.6,5.6,0,0,1-5.143-4.591A1.361,1.361,0,0,0,53.938,0Z" transform="translate(-29.48)" fill="#fff" stroke="rgba(0,0,0,0)" stroke-width="1"/>
        </g>
      </g>
      <g id="Group_296" data-name="Group 296" transform="translate(8.734 5.246)">
        <path id="Path_3116" data-name="Path 3116" d="M199.684,99.781a4.922,4.922,0,0,0-9.844,0v2.4h-.828a1.6,1.6,0,0,0-1.6,1.6V111a1.6,1.6,0,0,0,1.6,1.6h11.5a1.6,1.6,0,0,0,1.6-1.6v-7.212a1.6,1.6,0,0,0-1.6-1.6h-.828Zm-1.008,0v2.4h-7.829v-2.4q1.756-3.915,3.914-3.915A3.919,3.919,0,0,1,198.676,99.782Zm-9.664,11.813a.6.6,0,0,1-.595-.595v-7.212a.6.6,0,0,1,.595-.595h11.5a.6.6,0,0,1,.595.595V111q-.267.595-.595.595Z" transform="translate(-187.41 -94.86)" fill="#fff"/>
        <g id="Group_295" data-name="Group 295">
          <path id="Path_3117" data-name="Path 3117" d="M199.684,99.781a4.922,4.922,0,0,0-9.844,0v2.4h-.828a1.6,1.6,0,0,0-1.6,1.6V111a1.6,1.6,0,0,0,1.6,1.6h11.5a1.6,1.6,0,0,0,1.6-1.6v-7.212a1.6,1.6,0,0,0-1.6-1.6h-.828Zm-1.008,0v2.4h-7.829v-2.4q1.756-3.915,3.914-3.915A3.919,3.919,0,0,1,198.676,99.782Zm-9.664,11.813a.6.6,0,0,1-.595-.595v-7.212a.6.6,0,0,1,.595-.595h11.5a.6.6,0,0,1,.595.595V111q-.267.595-.595.595Z" transform="translate(-187.41 -94.86)" fill="#fff" stroke="rgba(0,0,0,0)" stroke-width="1"/>
        </g>
      </g>
      <g id="Group_298" data-name="Group 298" transform="translate(8.734 5.246)">
        <path id="Path_3118" data-name="Path 3118" d="M199.684,99.781a4.922,4.922,0,0,0-9.844,0v2.4h-.828a1.6,1.6,0,0,0-1.6,1.6V111a1.6,1.6,0,0,0,1.6,1.6h11.5a1.6,1.6,0,0,0,1.6-1.6v-7.212a1.6,1.6,0,0,0-1.6-1.6h-.828Zm-1.008,0v2.4h-7.829v-2.4q1.756-3.915,3.914-3.915A3.919,3.919,0,0,1,198.676,99.782Zm-9.664,11.813a.6.6,0,0,1-.595-.595v-7.212a.6.6,0,0,1,.595-.595h11.5a.6.6,0,0,1,.595.595V111q-.267.595-.595.595Z" transform="translate(-187.41 -94.86)" fill="#fff"/>
        <g id="Group_297" data-name="Group 297">
          <path id="Path_3119" data-name="Path 3119" d="M199.684,99.781a4.922,4.922,0,0,0-9.844,0v2.4h-.828a1.6,1.6,0,0,0-1.6,1.6V111a1.6,1.6,0,0,0,1.6,1.6h11.5a1.6,1.6,0,0,0,1.6-1.6v-7.212a1.6,1.6,0,0,0-1.6-1.6h-.828Zm-1.008,0v2.4h-7.829v-2.4q1.756-3.915,3.914-3.915A3.919,3.919,0,0,1,198.676,99.782Zm-9.664,11.813a.6.6,0,0,1-.595-.595v-7.212a.6.6,0,0,1,.595-.595h11.5a.6.6,0,0,1,.595.595V111q-.267.595-.595.595Z" transform="translate(-187.41 -94.86)" fill="#fff" stroke="rgba(0,0,0,0)" stroke-width="1"/>
        </g>
      </g>
    </g>
  </g>
</svg>
