<svg xmlns="http://www.w3.org/2000/svg" xmlns:xlink="http://www.w3.org/1999/xlink" width="1920" height="495" viewBox="0 0 1920 495">
  <defs>
    <filter id="Rectangle_307" x="-9" y="-6" width="1938" height="513" filterUnits="userSpaceOnUse">
      <feOffset dy="3" input="SourceAlpha"/>
      <feGaussianBlur stdDeviation="3" result="blur"/>
      <feFlood flood-opacity="0.161"/>
      <feComposite operator="in" in2="blur"/>
      <feComposite in="SourceGraphic"/>
    </filter>
    <clipPath id="clip-path">
      <g transform="matrix(1, 0, 0, 1, 0, 0)" filter="url(#Rectangle_307)">
        <rect id="Rectangle_307-2" data-name="Rectangle 307" width="1920" height="495" transform="translate(0 3871)" fill="#e2f2e5"/>
      </g>
    </clipPath>
  </defs>
  <g id="Mask_Group_6" data-name="Mask Group 6" transform="translate(0 -3871)" opacity="0.067" clip-path="url(#clip-path)">
    <path id="Path_3148" data-name="Path 3148" d="M271.659,0,0,1525.473H543.318Z" transform="translate(246.835 4441.186) rotate(-43)" fill="#b19178"/>
    <path id="Path_3149" data-name="Path 3149" d="M271.659,0,0,1525.473H543.318Z" transform="translate(393.572 4522.672) rotate(-79)" fill="#b19178"/>
    <path id="Path_3150" data-name="Path 3150" d="M271.659,0,0,1525.473H543.318Z" transform="translate(538.87 4511.451) rotate(-110)" fill="#b19178"/>
    <path id="Path_3151" data-name="Path 3151" d="M271.659,0,0,1525.473H543.318Z" transform="translate(686.325 4384.003) rotate(-152)" fill="#b19178"/>
    <path id="Path_3152" data-name="Path 3152" d="M271.659,0,0,1525.473H543.318Z" transform="translate(714.734 4211.146) rotate(170)" fill="#b19178"/>
    <path id="Path_3153" data-name="Path 3153" d="M271.659,0,0,1525.474H543.318Z" transform="translate(615.514 4043.185) rotate(128)" fill="#b19178"/>
    <path id="Path_3154" data-name="Path 3154" d="M271.659,0,0,1525.473H543.318Z" transform="translate(447.741 3984.31) rotate(90)" fill="#b19178"/>
    <path id="Path_3155" data-name="Path 3155" d="M271.659,0,0,1525.474H543.318Z" transform="matrix(0.574, 0.819, -0.819, 0.574, 291.771, 4031.983)" fill="#b19178"/>
    <path id="Path_3156" data-name="Path 3156" d="M271.659,0,0,1525.473H543.318Z" transform="translate(176.365 4221.835) rotate(7)" fill="#b19178"/>
  </g>
</svg>
