<svg xmlns="http://www.w3.org/2000/svg" width="14.01" height="13.01" viewBox="0 0 14.01 13.01">
  <path id="Icon_ionic-ios-star" data-name="Icon ionic-ios-star" d="M15.729,7.878h-4.6l-1.4-4.172a.507.507,0,0,0-.951,0l-1.4,4.172H2.75a.5.5,0,0,0-.5.5.368.368,0,0,0,.009.084.481.481,0,0,0,.21.353L6.25,11.481,4.8,15.7a.5.5,0,0,0,.172.563.484.484,0,0,0,.281.122.613.613,0,0,0,.313-.113l3.69-2.63,3.69,2.63a.586.586,0,0,0,.313.113.449.449,0,0,0,.278-.122.5.5,0,0,0,.172-.563l-1.451-4.219,3.75-2.69.091-.078a.478.478,0,0,0-.369-.835Z" transform="translate(-2.25 -3.375)" fill="#efb802"/>
</svg>
