<svg xmlns="http://www.w3.org/2000/svg" width="311.567" height="70.686" viewBox="0 0 311.567 70.686">
  <g id="GREEN_BROWN_WEB_LOGO" transform="translate(-5.9 -8.972)">
    <path id="Path_53" data-name="Path 53" d="M31.982,141.444q-2.939,5.619-9.828,5.627a15.68,15.68,0,0,1-11.536-4.718,15.614,15.614,0,0,1,0-22.367A15.713,15.713,0,0,1,22.154,115.3a11.138,11.138,0,0,1,10.235,5.69v-3.354h5.69v21.6a14.758,14.758,0,0,1-4.545,10.831,15.769,15.769,0,0,1-11.614,4.8A15.65,15.65,0,0,1,10.4,150.19a36.692,36.692,0,0,1-2.7-3.26l5.439-1.975a14.953,14.953,0,0,0,1.536,1.755,9.861,9.861,0,0,0,7.257,3.072Q30.775,149.759,31.982,141.444Zm.376-12.68a10.685,10.685,0,0,0-2.947-5.408,9.861,9.861,0,0,0-7.257-3.072,10.035,10.035,0,0,0-7.351,3.135,11.191,11.191,0,0,0,0,15.47,9.994,9.994,0,0,0,7.351,3.119,10.116,10.116,0,0,0,7.382-3.166,10.081,10.081,0,0,0,2.821-5.2v-4.875Z" transform="translate(0 -89.662)" fill="#fff"/>
    <path id="Path_54" data-name="Path 54" d="M254.856,131.159a9.485,9.485,0,0,0-6.035,3.088,9.271,9.271,0,0,0-2.132,6.27v15.063H241V126.9h5.69v4.075q1.246-3.362,5.408-4.671Z" transform="translate(-198.25 -98.938)" fill="#fff"/>
    <path id="Path_55" data-name="Path 55" d="M356,131v.094a10.459,10.459,0,0,0,3.1,7.7,10.224,10.224,0,0,0,14.734-.063q.447-.447,1.693-1.975l5.345,1.881a17.836,17.836,0,0,1-2.759,3.542,15.838,15.838,0,0,1-11.661,4.812,15.68,15.68,0,0,1-11.536-4.718,15.614,15.614,0,0,1,0-22.367,16.558,16.558,0,0,1,23.182.063q4.114,4.138,4.107,11.05H356Zm1.019-4.953h18.809c-1.332-3.887-4.451-5.846-9.357-5.846Q359.087,120.2,357.018,126.046Z" transform="translate(-290.334 -89.578)" fill="#fff"/>
    <path id="Path_56" data-name="Path 56" d="M578.084,130.915v.094a10.459,10.459,0,0,0,3.1,7.7,10.224,10.224,0,0,0,14.734-.063q.447-.447,1.693-1.975l5.345,1.881a17.837,17.837,0,0,1-2.759,3.542,16.5,16.5,0,0,1-23.182.078,15.614,15.614,0,0,1,0-22.367,16.558,16.558,0,0,1,23.182.063q4.114,4.138,4.107,11.05Zm1-4.953H597.9c-1.332-3.887-4.451-5.846-9.357-5.846Q581.156,120.116,579.087,125.962Z" transform="translate(-477.622 -89.494)" fill="#fff"/>
    <path id="Path_57" data-name="Path 57" d="M809.09,128.94v21.411H803.4V121.667h5.69c.956-1.05,2.947-1.567,5.972-1.567a11.891,11.891,0,0,1,8.762,3.323,11.184,11.184,0,0,1,3.386,8.135v18.809h-5.658V131.809a6.487,6.487,0,0,0-1.975-4.843,6.265,6.265,0,0,0-8.934-.11A7.155,7.155,0,0,0,809.09,128.94Z" transform="translate(-672.5 -93.71)" fill="#fff"/>
    <path id="Path_58" data-name="Path 58" d="M1014.7,24.9h5.69V44.681a11.1,11.1,0,0,1,10.2-5.658,15.712,15.712,0,0,1,11.552,4.7,15.65,15.65,0,0,1,0,22.367,15.665,15.665,0,0,1-11.552,4.718,11.073,11.073,0,0,1-10.2-5.69v4.922h-5.69Zm5.674,27.633v4.828a10.34,10.34,0,0,0,17.539,5.282,10.412,10.412,0,0,0,3.119-7.7,10.578,10.578,0,0,0-3.119-7.759,9.991,9.991,0,0,0-7.335-3.135,10.208,10.208,0,0,0-7.414,3.2A9.93,9.93,0,0,0,1020.374,52.533Z" transform="translate(-850.681 -13.432)" fill="#fff"/>
    <path id="Path_59" data-name="Path 59" d="M1263.84,131.159a9.484,9.484,0,0,0-6.034,3.088,9.271,9.271,0,0,0-2.132,6.27v15.063H1250V126.9h5.69v4.075q1.246-3.362,5.407-4.671Z" transform="translate(-1049.1 -98.938)" fill="#fff"/>
    <path id="Path_60" data-name="Path 60" d="M1379.454,115.1a15.662,15.662,0,0,1,11.552,4.7,15.723,15.723,0,0,1,0,22.367,16.482,16.482,0,0,1-23.088,0,15.614,15.614,0,0,1,0-22.367A15.727,15.727,0,0,1,1379.454,115.1Zm-7.335,8.15a10.6,10.6,0,0,0-3.1,7.759,10.459,10.459,0,0,0,3.1,7.7,10.239,10.239,0,0,0,14.687,0,10.411,10.411,0,0,0,3.119-7.7,10.578,10.578,0,0,0-3.119-7.759,10.168,10.168,0,0,0-14.687,0Z" transform="translate(-1144.557 -89.494)" fill="#fff"/>
    <path id="Path_61" data-name="Path 61" d="M1622.279,130.016l-9.765,28.683h-3.981l-4.859-13.589-4.828,13.589H1594.8l-9.7-28.7h6.129l5.752,17.837,4.828-13.37h3.824l4.8,13.37L1616.15,130h6.129Z" transform="translate(-1331.676 -102.058)" fill="#fff"/>
    <path id="Path_62" data-name="Path 62" d="M1847.49,128.94v21.411h-5.69V121.667h5.69c.956-1.05,2.947-1.567,5.972-1.567a11.891,11.891,0,0,1,8.762,3.323,11.184,11.184,0,0,1,3.386,8.135v18.809h-5.658V131.809a6.487,6.487,0,0,0-1.975-4.843,6.265,6.265,0,0,0-8.934-.11A7.157,7.157,0,0,0,1847.49,128.94Z" transform="translate(-1548.141 -93.71)" fill="#fff"/>
    <path id="Path_63" data-name="Path 63" d="M1668.243,10.026a8.918,8.918,0,0,1,1.113,13.9c-3.292,3.292-5.408,3.26-8.668,0a8.78,8.78,0,0,1-2.116-9.922c1.646-3.746,5.784-6.693,9.671-3.981Z" transform="translate(-1393.016)" fill="#fff"/>
    <path id="Path_64" data-name="Path 64" d="M1679.02,309.189l3.464,15.878a5.4,5.4,0,1,1-10.549,0l3.464-15.878a1.855,1.855,0,0,1,3.621,0Z" transform="translate(-1404.797 -251.937)" fill="#fff"/>
  </g>
</svg>
